<svg version="1.1" id="Layer_1" xmlns="http://www.w3.org/2000/svg" xmlns:xlink="http://www.w3.org/1999/xlink" x="0px" y="0px"
	 width="100%" viewBox="0 0 1024 544" enable-background="new 0 0 1024 544" xml:space="preserve">
<path fill="#000000" opacity="1.000000" stroke="none" 
	d="
M317.334473,481.193970 
	C316.552551,479.344666 318.066406,477.600250 316.660431,475.921722 
	C312.971863,475.449036 311.571594,479.834473 308.399139,480.263672 
	C305.958649,478.899200 307.288452,476.500122 306.521301,474.711792 
	C305.042969,473.594482 303.964996,476.344940 302.471405,475.158173 
	C300.888916,469.612396 304.002747,462.810150 309.246429,459.003174 
	C319.105438,451.845551 329.503265,446.323639 341.996429,445.513550 
	C346.001678,445.253876 349.099854,442.704681 351.337616,439.407990 
	C357.165466,430.822388 360.671021,421.472076 360.691254,410.934662 
	C360.724579,393.607361 360.691406,376.283783 360.091003,358.962769 
	C359.952972,354.980743 360.219238,350.969177 360.537903,346.990295 
	C361.110199,339.844452 359.704437,333.115814 356.963013,326.543915 
	C349.760376,309.277283 343.880371,291.637756 342.670258,272.779785 
	C342.502808,270.170502 341.135376,268.909454 338.853607,268.198425 
	C321.380981,262.753693 303.907471,257.218353 285.755951,254.527542 
	C274.751526,252.896194 264.638367,256.982544 255.002396,261.567444 
	C244.587250,266.523071 234.657379,267.851288 223.969055,262.276489 
	C216.467819,258.364044 208.316299,260.362946 200.449646,261.847473 
	C191.844299,263.471436 183.061371,264.596527 174.824310,261.275391 
	C167.718475,258.410400 159.579697,256.851898 154.083679,251.280411 
	C147.946518,245.058975 144.010010,236.958786 138.400024,230.141052 
	C135.101639,226.132568 137.556824,221.864273 141.326523,218.890930 
	C152.495834,210.081146 161.593719,199.129074 171.940247,189.474472 
	C177.896378,183.916626 180.955307,177.516144 180.372711,169.096420 
	C179.989349,163.556183 182.360825,158.372269 185.387115,153.647781 
	C190.644135,145.440765 197.603912,138.680679 204.320190,131.762100 
	C210.098434,125.809853 213.049026,119.683533 210.224304,111.155884 
	C208.668152,106.458000 209.224609,101.261642 211.154541,96.449806 
	C213.187851,91.380264 216.762375,89.306786 222.184647,90.156685 
	C229.336044,91.277603 235.727707,94.729927 242.540649,96.901245 
	C246.485733,98.158569 248.719421,97.233749 250.676544,93.674026 
	C256.594299,82.910545 263.861359,79.330223 274.479156,84.662476 
	C284.267365,89.578110 293.224457,88.917061 303.223572,86.873299 
	C322.099823,83.015099 341.219330,80.355133 360.117889,76.594902 
	C370.868744,74.455818 380.883972,69.526894 391.668701,67.201698 
	C409.364838,63.386402 426.771149,63.340664 443.553101,70.866638 
	C458.843506,77.723717 474.496826,76.415710 490.124481,73.228523 
	C516.854675,67.777023 543.526550,62.090195 570.686646,59.096592 
	C595.266174,56.387421 619.832825,56.141720 644.431885,58.842525 
	C669.492554,61.594009 694.052185,66.621574 717.943970,74.726959 
	C750.965149,85.929520 780.450500,103.033630 804.694275,128.306519 
	C822.350525,146.712143 836.751953,167.456650 846.364624,191.277161 
	C848.650391,196.941208 849.491089,202.866714 848.907715,208.886856 
	C848.114380,217.074615 846.500061,218.567261 838.338013,219.557999 
	C841.283264,229.293488 843.942749,239.062119 845.702576,249.031082 
	C849.220642,268.959839 850.135437,289.059753 848.795715,309.222931 
	C846.738464,340.184937 851.615173,369.875946 864.013367,398.365540 
	C868.142700,407.854156 873.790710,416.519409 878.096558,425.925079 
	C883.633362,438.019531 881.018616,448.422455 872.697815,457.750763 
	C862.369995,469.329010 850.807434,479.682556 838.859802,489.550598 
	C833.265015,494.171631 826.578613,496.832001 819.233459,497.538818 
	C809.286621,498.495972 799.334290,499.346924 789.391052,497.641785 
	C787.225647,497.270508 785.493225,497.716766 783.828247,499.062256 
	C782.442566,500.182037 781.343140,501.840118 778.946167,501.803986 
	C776.901306,499.824310 778.385254,495.478943 773.875854,494.433044 
	C770.734253,493.704376 768.511658,493.886292 766.077637,495.660492 
	C764.804749,496.588287 763.436768,498.235199 761.704651,496.796051 
	C760.202820,495.548309 760.897095,493.763580 761.257996,492.122711 
	C761.598572,490.574158 762.823792,489.087311 761.709839,487.267426 
	C758.350647,486.412720 757.555969,490.894958 753.952026,490.762207 
	C752.056458,485.727081 754.290405,481.548492 757.474854,477.987701 
	C764.352295,470.297089 772.769470,465.355072 783.366516,464.677734 
	C787.998962,464.381653 792.023132,462.526093 795.366882,459.198517 
	C800.791260,453.800201 801.183716,449.093292 795.643799,443.662140 
	C789.827881,437.960510 783.379761,432.909760 777.328491,427.441254 
	C759.815063,411.614380 744.630859,393.754242 731.379395,374.246674 
	C727.048950,367.871796 725.750244,367.621826 721.206360,374.105621 
	C707.575928,393.555054 697.742004,414.709351 693.419983,438.204895 
	C692.218750,444.734680 691.499756,451.354706 690.241516,457.871979 
	C689.018433,464.207123 684.983032,467.902771 678.690674,469.548798 
	C668.768860,472.144165 658.583435,472.588043 648.488770,472.908966 
	C632.358337,473.421875 616.185852,475.019196 600.065918,473.280518 
	C594.451233,472.674957 589.294739,472.051361 585.470886,477.385193 
	C581.940002,471.104553 581.940002,471.104553 572.560669,474.416931 
	C570.293152,473.053192 571.596924,470.345367 570.382263,468.564056 
	C568.712158,467.073029 567.353333,469.709686 565.733643,468.905334 
	C563.384949,464.364502 565.639526,458.599792 569.868286,454.011688 
	C578.406860,444.747498 589.380554,442.194214 601.139343,440.573456 
	C612.100464,439.062683 618.581726,432.876251 618.453796,425.035431 
	C618.385986,420.879456 618.125977,416.698517 617.557129,412.583557 
	C614.818176,392.769928 615.890991,373.080383 619.278015,353.461517 
	C619.889404,349.920135 618.493835,347.723083 615.150024,347.384247 
	C594.385071,345.280212 574.223511,340.299622 554.108582,335.011169 
	C548.668518,333.580902 547.854492,334.338074 548.082825,339.888855 
	C549.438354,372.852386 544.367615,404.884308 534.357300,436.230957 
	C531.786316,444.281555 527.800171,451.500275 522.488098,458.029999 
	C518.997803,462.320221 515.864014,466.911957 514.165710,472.165710 
	C509.618347,486.232666 500.520508,494.412933 485.427643,494.821381 
	C471.866547,495.188354 458.749054,498.433472 445.453979,500.519318 
	C440.885803,501.236023 436.378906,500.921722 432.132233,499.547150 
	C427.249512,497.966705 423.061005,498.148926 419.150848,501.648987 
	C418.317078,502.395325 417.253418,503.043152 415.610168,502.598297 
	C415.432831,502.264252 414.945129,501.737793 414.880798,501.163910 
	C414.204590,495.131592 414.200195,495.078735 408.826691,497.524658 
	C406.452393,498.605377 405.343536,497.940186 405.247650,495.411346 
	C405.204895,494.284241 405.954071,493.138275 405.131805,491.975281 
	C403.483856,490.480255 402.215027,493.350525 399.954590,492.098602 
	C398.876617,486.220703 401.968842,481.712372 406.076508,477.702484 
	C415.049683,468.942841 425.813843,463.667725 438.206787,461.850311 
	C450.345642,460.070099 454.858704,455.730743 456.333862,441.773621 
	C458.434692,421.896393 454.206818,402.346069 450.380768,382.899353 
	C450.293152,382.454132 449.890594,382.070862 449.717102,381.791138 
	C447.325256,382.499054 447.237091,384.392883 446.697723,385.858154 
	C441.915405,398.849518 436.095001,411.354218 429.634888,423.596161 
	C425.320557,431.771729 420.155334,439.240662 413.692596,445.843781 
	C409.097717,450.538483 405.512146,456.023468 402.911560,461.981628 
	C398.301300,472.544067 389.530060,476.131866 379.036896,477.282532 
	C367.963898,478.496826 356.815735,478.978516 345.803284,480.798065 
	C340.802795,481.624329 335.744476,481.443604 331.008362,479.650024 
	C327.333679,478.258362 324.307312,478.387115 321.373993,481.092438 
	C320.297791,482.085022 318.941528,483.062469 317.334473,481.193970 
M216.711121,174.213196 
	C207.227341,170.882751 204.329895,172.108887 202.219971,180.440872 
	C204.290131,181.949982 206.838318,182.255585 209.225388,182.530502 
	C213.613190,183.035904 217.800980,178.668457 216.711121,174.213196 
z"/>
</svg>