<svg version="1.1" id="Layer_1" xmlns="http://www.w3.org/2000/svg" xmlns:xlink="http://www.w3.org/1999/xlink" x="0px" y="0px"
	 width="100%" viewBox="0 0 1380 752" enable-background="new 0 0 1380 752" xml:space="preserve">
<g data-loadout-mirror="true" transform="translate(1380 0) scale(-1 1)">
<path fill="#FFFFFF" opacity="1.000000" stroke="none" 
	d="
M779.000000,1.000005 
	C979.622559,1.000000 1180.245117,1.000000 1380.933838,1.000000 
	C1380.933838,251.567474 1380.933838,502.134949 1380.933838,753.000000 
	C1196.306641,753.000000 1011.613037,753.000000 826.656372,752.698181 
	C844.140137,743.783325 862.442261,737.973633 882.600708,740.168945 
	C893.276306,741.331604 902.346252,737.031372 910.774719,730.810547 
	C912.841675,729.285095 915.749634,728.245422 918.303040,728.176636 
	C922.799133,728.055481 926.455017,727.172668 928.864990,723.009888 
	C929.341919,722.185974 930.618042,721.455872 931.597778,721.349854 
	C939.671753,720.476318 943.394653,712.531555 950.379150,709.827576 
	C951.453247,709.411926 951.734070,706.972900 952.403381,705.479309 
	C953.105591,703.912598 953.522095,702.084534 954.606445,700.846252 
	C958.644836,696.234741 959.147339,690.121521 955.598572,685.322266 
	C952.726990,681.438904 949.253296,680.929382 943.103027,683.748169 
	C939.500854,685.399292 936.250122,686.116455 932.186401,684.385742 
	C929.589417,683.279785 926.071594,684.023193 923.016357,684.372864 
	C917.198425,685.038696 911.416199,686.016296 904.502808,687.027710 
	C905.718384,684.825378 906.164062,684.017883 906.613892,683.202820 
	C899.450684,682.599609 892.620544,682.024475 884.992432,681.382141 
	C886.841858,679.904785 887.820801,679.122803 889.561646,677.732178 
	C885.653687,677.732178 882.617737,678.143005 879.735046,677.652893 
	C871.984985,676.335144 863.647400,676.046326 859.045654,667.944580 
	C859.205139,667.779114 859.495117,667.422485 859.871582,667.474121 
	C861.410034,667.700989 862.572021,667.876099 863.733948,668.051208 
	C852.489380,658.974731 846.574768,647.351746 844.018616,633.272339 
	C846.384521,635.512573 848.412354,637.432800 850.440247,639.353027 
	C849.716370,634.886047 848.141296,631.068665 846.914673,627.142395 
	C845.677734,623.182861 844.664124,619.142090 843.779541,615.087402 
	C842.943481,611.255798 842.402100,607.359863 841.731079,603.492249 
	C842.066406,603.418518 842.401794,603.344788 842.737122,603.270996 
	C844.002991,605.174438 845.268799,607.077881 846.534668,608.981262 
	C846.976074,608.796509 847.417542,608.611694 847.858948,608.426880 
	C845.735352,601.329651 843.584778,594.240234 841.505554,587.130066 
	C840.926270,585.149414 839.299622,582.308228 843.891052,583.478882 
	C845.086426,575.957214 840.700439,570.092102 838.053223,563.738708 
	C835.431335,557.445923 833.039917,551.131653 834.113586,543.890015 
	C835.093262,545.511902 836.072998,547.133789 837.052734,548.755615 
	C837.599915,548.593506 838.147095,548.431396 838.694336,548.269348 
	C837.383972,541.174744 836.073669,534.080200 834.731750,526.814880 
	C835.712341,527.363892 836.793091,527.968994 837.873901,528.574097 
	C838.273193,528.358459 838.672485,528.142822 839.071777,527.927185 
	C834.841492,518.674438 830.611267,509.421692 826.102417,499.559540 
	C828.403137,500.610657 830.063538,501.369263 831.723938,502.127869 
	C821.592407,487.825165 805.554443,479.091797 797.106995,461.782806 
	C800.564880,464.161652 803.055237,465.874878 805.879150,467.878540 
	C806.768372,468.009460 807.323975,467.849945 807.624023,467.791016 
	C807.288391,468.042816 807.208252,468.194031 807.128174,468.345215 
	C807.377930,468.133362 807.627747,467.921509 807.538818,467.680786 
	C806.869873,467.365173 806.539673,467.078430 806.139526,466.454773 
	C800.686279,459.863281 795.381104,453.539185 789.897644,447.373688 
	C784.434143,441.230652 778.791748,435.246674 773.228027,429.193207 
	C776.295349,429.736877 779.108276,430.235443 781.600098,430.784729 
	C781.144775,431.008667 781.010498,431.181915 780.876221,431.355133 
	C781.217041,431.142487 781.557861,430.929840 781.528381,430.685303 
	C771.134583,421.769714 761.111084,412.885986 751.054382,403.972870 
	C752.937134,404.152893 754.763367,404.327515 756.589600,404.502136 
	C752.722778,400.708191 748.415161,398.236572 744.435486,395.317841 
	C739.757141,391.886749 735.270508,388.174866 730.884888,384.372375 
	C728.630981,382.418274 727.820374,378.088928 730.298218,377.702698 
	C735.324280,376.919312 734.208618,373.418610 734.864075,370.799957 
	C735.627625,367.749542 735.684875,364.522339 736.129456,360.672302 
	C737.362854,362.803009 738.179504,364.213745 738.996094,365.624451 
	C739.296326,365.519501 739.596558,365.414520 739.896729,365.309570 
	C739.639343,359.941162 739.382019,354.572723 739.124634,349.204315 
	C739.502991,349.023041 739.881409,348.841797 740.259766,348.660553 
	C742.375427,352.844879 744.491028,357.029205 746.490540,360.983856 
	C748.932373,357.162292 750.092590,360.235138 751.261658,362.048706 
	C753.906677,366.151917 756.431030,370.332855 759.004456,374.482178 
	C759.311279,374.318451 759.618103,374.154755 759.924866,373.991028 
	C759.614624,371.842041 759.304321,369.693054 758.994080,367.544037 
	C758.690125,367.968506 758.386169,368.392975 758.082275,368.817444 
	C763.020508,372.934235 767.958801,377.051025 773.054077,381.351105 
	C773.365051,381.406403 773.519043,381.278473 773.672974,381.150513 
	C773.578308,381.068787 773.437439,380.898895 773.396790,380.920197 
	C773.190979,381.028076 773.011292,381.185638 773.203735,381.065704 
	C773.150024,379.366241 772.714966,377.926910 772.534058,376.313721 
	C772.944275,376.006500 773.100403,375.873138 773.588379,375.817078 
	C780.570251,381.590729 787.220215,387.287140 794.211182,393.275665 
	C793.520203,390.819763 792.910950,388.654633 792.532288,386.326843 
	C792.906738,386.043152 793.050659,385.922119 793.529053,385.864136 
	C795.718140,387.678650 797.572754,389.430145 799.787842,391.522064 
	C799.787842,389.543640 799.787842,387.969757 799.787842,385.339386 
	C808.044800,390.534943 814.880920,395.936218 819.930359,403.668030 
	C820.250244,403.380646 820.267395,403.122772 820.284607,402.864868 
	C820.071716,403.180969 819.858826,403.497101 820.112549,403.560669 
	C820.372498,401.054108 820.165894,398.800079 819.917236,396.087646 
	C826.043945,399.000214 826.601318,404.911804 828.908997,410.783844 
	C829.862122,407.624451 830.514038,405.463379 831.291077,402.887726 
	C832.122437,403.828125 832.618408,404.143646 832.745850,404.569458 
	C835.571655,414.012482 841.554565,420.472900 850.142761,425.403229 
	C855.104431,428.251617 858.585876,433.301849 858.300781,439.895508 
	C858.194946,442.342926 857.793945,443.968933 855.420837,445.491028 
	C851.495789,448.008392 850.098267,454.038788 852.447754,456.966461 
	C855.696472,461.014526 859.265503,458.097778 862.307251,456.585693 
	C868.020264,453.745728 871.248657,448.717438 872.859070,442.540741 
	C873.976074,447.916626 872.371948,452.020599 868.035645,455.416199 
	C864.599670,458.106781 864.119873,462.222168 866.108459,465.783813 
	C868.161621,469.461151 871.866577,468.415741 875.005127,466.968414 
	C877.226562,465.944031 879.239136,464.466583 881.354248,463.185730 
	C885.651917,471.305206 888.308167,471.592743 894.639709,464.852997 
	C896.004761,463.399902 897.293762,461.716949 898.968079,460.740265 
	C906.059143,456.603760 910.288452,450.639648 911.085083,442.452789 
	C911.711548,436.014679 915.036377,429.661499 911.064514,423.050537 
	C909.228394,419.994385 907.795532,416.377380 907.349365,412.866028 
	C906.135010,403.309082 901.204956,396.432190 893.799377,390.671722 
	C889.629211,387.427979 886.125793,383.327087 882.522644,379.436462 
	C882.849792,379.135468 882.976257,379.010345 883.507812,378.954163 
	C884.060242,378.228119 884.619080,377.034912 884.293091,376.698029 
	C879.541626,371.787994 874.671936,366.992432 869.966553,362.033386 
	C870.102722,361.897247 870.374573,361.624603 870.724976,361.576477 
	C871.939392,361.611694 872.803406,361.695007 875.215332,361.927582 
	C862.671875,353.934753 850.438049,347.891663 842.970215,336.012451 
	C843.263184,335.620239 843.368042,335.454346 843.769775,335.483521 
	C844.231262,335.704956 844.400635,335.767151 844.558838,335.745850 
	C844.676453,335.729950 844.884094,335.558563 844.874023,335.536316 
	C844.238953,334.124786 843.930603,332.342072 842.875061,331.381958 
	C837.862549,326.822876 832.645935,322.488159 827.502075,318.073517 
	C827.549377,317.877960 827.596741,317.682404 827.644043,317.486847 
	C830.393860,318.484253 833.143677,319.481628 835.893433,320.479034 
	C836.143188,320.066589 836.392944,319.654144 836.642700,319.241699 
	C829.110474,314.661438 821.578308,310.081177 813.806335,305.355133 
	C815.891235,305.171204 817.501282,305.029144 820.189392,304.791962 
	C815.191223,302.561584 811.224426,300.887878 807.340576,299.039673 
	C796.995850,294.116943 795.546448,291.449097 796.415771,278.568787 
	C797.625732,280.660950 798.541809,282.245026 799.457886,283.829071 
	C799.889160,283.676331 800.320435,283.523560 800.751709,283.370789 
	C799.506836,278.597046 798.262024,273.823303 797.055237,269.195648 
	C797.396912,269.195648 798.161438,269.195648 800.041809,269.195648 
	C793.200867,257.122437 786.536438,245.328049 792.484985,231.488327 
	C793.083740,233.287186 793.736572,235.248657 794.389404,237.210129 
	C794.808838,237.139587 795.228271,237.069046 795.647705,236.998505 
	C795.144775,230.394852 794.641785,223.791199 794.102112,216.705154 
	C795.315796,217.737808 796.565369,218.801025 798.216248,220.205688 
	C798.037720,218.098434 798.232300,216.496445 797.731934,215.153366 
	C795.362793,208.794037 792.803894,202.505402 790.299133,196.157394 
	C791.037903,196.039993 792.052185,195.878845 793.420959,195.661362 
	C792.848389,194.315826 792.581299,193.157486 791.940613,192.268219 
	C787.573669,186.206146 783.245850,180.108871 778.653503,174.219330 
	C776.637756,171.634155 775.259277,169.343811 777.611755,166.252502 
	C778.036377,167.378693 778.416382,168.386612 778.993225,169.916595 
	C781.024658,166.762527 782.716309,164.135910 784.774841,160.939697 
	C786.564636,164.495026 787.928650,167.204514 789.516113,170.357910 
	C790.184570,168.235611 790.651306,166.753967 790.905823,165.945892 
	C793.308716,168.488495 795.739014,171.060089 798.776794,174.274490 
	C799.574829,171.519943 799.844849,170.587845 800.279114,169.088760 
	C801.561401,171.247543 802.495544,172.820190 803.435486,174.402588 
	C804.083618,173.529312 804.531433,172.925903 805.265320,171.937149 
	C805.450562,174.240601 805.582642,175.882355 805.763245,178.127533 
	C807.035217,176.333740 807.823120,175.222610 808.611023,174.111496 
	C808.969727,174.268295 809.328430,174.425110 809.687134,174.581909 
	C808.676758,177.742844 807.666443,180.903763 806.538757,184.431641 
	C808.267944,183.503357 809.986084,182.885925 811.327332,181.802048 
	C814.906128,178.909836 818.322937,175.817108 821.965820,172.963531 
	C822.127441,173.122955 822.457031,173.435303 822.459900,173.779312 
	C822.417114,174.710373 822.371399,175.297424 822.325745,175.884476 
	C822.747742,176.037659 823.169739,176.190826 823.591736,176.343994 
	C825.655640,171.807922 827.719482,167.271835 829.254944,163.897202 
	C831.019836,162.704926 832.266846,162.302673 832.343750,161.740356 
	C832.923340,157.502350 834.370728,152.971664 833.434265,149.035049 
	C832.063049,143.271484 833.496704,139.504364 837.719055,135.862381 
	C838.982117,134.772995 839.301636,132.406357 839.689819,130.548874 
	C839.960938,129.251266 839.543274,127.823517 839.559937,126.455437 
	C839.581421,124.692139 840.193787,122.796127 839.730713,121.194557 
	C838.595947,117.269318 836.990173,113.480209 835.464966,109.340630 
	C838.777222,104.722649 838.674072,101.767899 834.592773,97.013397 
	C833.404358,95.628883 831.912231,94.490265 830.816101,93.044365 
	C828.554688,90.061501 829.299927,86.739822 832.420105,85.144188 
	C838.797241,81.882965 839.739075,77.501266 835.506836,71.653183 
	C833.782166,69.270004 831.903137,66.816612 830.938293,64.095879 
	C825.924316,49.957466 822.760864,35.085342 814.025452,22.457916 
	C813.231689,21.310558 812.476746,20.136343 811.169250,18.171347 
	C811.280212,20.356546 811.337769,21.489906 811.264587,22.746082 
	C811.133789,22.868898 810.871399,23.113749 810.551025,22.993759 
	C805.974976,15.178737 799.888550,9.291131 792.269287,5.010638 
	C791.163086,4.389168 789.603333,4.574955 788.658569,4.282186 
	C788.882019,3.826836 788.700378,3.476495 788.518799,3.126154 
	C788.469177,3.547172 788.419556,3.968191 788.714417,4.518251 
	C789.312195,5.370602 789.565552,6.093911 790.281128,8.136549 
	C785.723572,5.253387 782.361755,3.126698 779.000000,1.000005 
z"/>
<path fill="#FFFFFF" opacity="1.000000" stroke="none" 
	d="
M476.000000,753.000000 
	C317.699921,753.000000 159.399826,753.000000 1.049872,753.000000 
	C1.049872,502.419220 1.049872,251.838440 1.049872,1.000000 
	C257.360138,1.000000 513.720337,1.000000 770.359802,1.377552 
	C771.101257,2.379793 771.563477,3.004483 772.713440,4.558658 
	C760.614685,2.150761 749.553650,1.547125 737.890747,8.074691 
	C742.047607,8.074691 744.836731,8.074691 747.625854,8.074691 
	C746.526550,9.268148 745.257629,9.522749 744.166931,10.109001 
	C736.779724,14.079544 729.430298,18.120180 721.914795,21.912659 
	C721.478088,21.922182 721.195068,22.157202 720.912109,22.392220 
	C720.998718,22.477583 721.142883,22.648968 721.163208,22.635363 
	C721.450928,22.442602 721.721741,22.224758 722.369141,22.133595 
	C723.990540,22.163706 725.239563,22.073196 727.215637,21.930002 
	C721.985474,25.941448 717.345154,29.500460 712.704895,33.059471 
	C712.888184,33.292416 713.071472,33.525360 713.254700,33.758308 
	C714.987000,33.492405 716.719299,33.226501 718.451599,32.960598 
	C718.657776,33.377686 718.863953,33.794773 719.070129,34.211861 
	C711.973328,39.610455 704.876587,45.009048 697.640503,50.513569 
	C698.959900,50.891026 699.954163,51.175472 700.948364,51.459919 
	C701.101685,51.946320 701.255005,52.432724 701.408264,52.919125 
	C693.256409,56.931519 685.104553,60.943909 677.030457,64.918022 
	C678.863037,65.558617 680.883850,66.265015 682.904663,66.971420 
	C682.901978,67.521820 682.899231,68.072220 682.896484,68.622612 
	C676.936340,69.438385 670.976135,70.254150 665.270508,71.035088 
	C665.833740,71.547897 666.698853,72.335464 667.883545,73.413979 
	C664.008789,73.696907 660.738770,73.935669 656.550171,74.241508 
	C658.711487,75.350899 659.929504,75.976067 662.528442,77.310051 
	C652.093750,77.896538 643.252869,79.201378 634.849243,84.659325 
	C639.286133,85.133064 642.832092,85.511673 646.377991,85.890282 
	C646.338501,86.233894 646.299011,86.577499 646.259521,86.921112 
	C638.259277,86.921112 630.259033,86.921112 622.110107,86.921112 
	C624.156128,88.289574 626.281677,89.711220 628.414246,91.137543 
	C619.098633,93.759163 610.454163,96.191902 601.809692,98.624641 
	C601.899048,99.085442 601.988403,99.546234 602.077698,100.007034 
	C605.225464,100.326668 608.373169,100.646301 611.520935,100.965935 
	C600.571350,104.449493 590.379700,108.821289 580.879150,117.305618 
	C584.800781,116.588341 587.370300,116.118378 590.856140,115.480820 
	C584.121277,121.262856 578.267212,126.288734 572.413147,131.314606 
	C572.749695,131.737991 573.086304,132.161377 573.422852,132.584763 
	C574.450439,132.166245 575.478088,131.747711 576.665771,131.550873 
	C576.946472,131.909378 577.066956,132.046188 577.102295,132.510101 
	C574.344666,136.557739 571.672180,140.278275 568.727783,144.002975 
	C568.480408,144.226395 568.504883,144.445648 568.529358,144.664886 
	C568.686279,144.443512 568.843140,144.222122 569.349609,144.137787 
	C570.670166,143.842834 571.641052,143.410843 572.611877,142.978851 
	C564.957336,157.743057 548.742615,161.112091 536.017334,171.023483 
	C539.607788,170.035782 542.005188,169.376282 545.596985,168.388229 
	C540.852539,172.836975 536.936890,176.164322 533.440369,179.885483 
	C530.045349,183.498779 527.080322,187.516174 523.926453,191.356094 
	C524.171753,191.628799 524.417053,191.901505 524.662354,192.174210 
	C526.014954,191.689743 527.367554,191.205276 528.974182,190.923187 
	C529.407593,191.246826 529.587036,191.368057 529.629517,191.810043 
	C521.843750,202.221924 515.440430,213.495865 503.248199,219.223618 
	C500.578033,220.478027 498.074707,222.122543 495.599670,223.747543 
	C493.030823,225.434082 490.589539,227.314957 488.092468,229.110825 
	C488.344818,229.507339 488.597168,229.903854 488.849518,230.300369 
	C490.069794,229.958344 491.290039,229.616318 492.700653,229.549759 
	C493.029205,230.000504 493.167450,230.175766 493.174561,230.655350 
	C489.269714,234.045441 485.496002,237.131241 481.722290,240.217041 
	C482.275177,240.873001 482.828094,241.528961 483.380981,242.184921 
	C484.756470,241.889206 486.131927,241.593491 487.710083,241.566101 
	C488.059052,242.004318 488.205292,242.174210 488.220703,242.653870 
	C485.094971,246.563004 482.100128,250.162384 478.535614,254.446442 
	C481.187592,253.777390 483.022369,253.314499 485.037384,253.023697 
	C485.217590,253.195786 485.607208,253.506561 485.433990,253.797745 
	C479.953522,259.577240 474.646271,265.065552 469.981628,269.889374 
	C470.317352,269.889374 472.106110,269.889374 474.068848,270.053772 
	C474.242859,270.218201 474.620911,270.511993 474.440399,270.797791 
	C468.296875,277.582916 463.277954,284.621338 460.650604,294.065338 
	C463.679718,291.472992 465.947784,289.531952 468.215851,287.590881 
	C468.558136,287.854950 468.900421,288.119019 469.242706,288.383087 
	C466.657867,294.210571 464.073029,300.038086 461.163910,306.596680 
	C463.540710,305.854187 464.726471,305.483795 466.681152,304.873169 
	C463.410675,309.606628 460.678070,313.561646 457.945465,317.516663 
	C458.174896,317.789856 458.404297,318.063080 458.633728,318.336273 
	C460.755096,317.536438 462.876465,316.736633 464.997803,315.936798 
	C465.432251,316.243347 465.866699,316.549896 466.301117,316.856445 
	C462.281677,324.711792 458.262268,332.567169 454.381714,340.151062 
	C456.369080,339.295410 459.141327,338.101807 462.075134,337.065918 
	C462.236755,337.223633 462.590027,337.505035 462.506561,337.865082 
	C459.554504,344.156250 456.685913,350.087372 453.854431,355.941772 
	C455.248779,356.035461 456.989471,356.152405 459.837372,356.343719 
	C456.016052,359.417816 452.904663,361.920807 448.983765,365.075012 
	C451.641876,364.814880 453.105072,364.671692 454.715820,364.693237 
	C454.863373,364.858032 455.162018,365.184265 455.023041,365.493103 
	C451.402435,368.825867 446.612488,370.248444 445.726379,376.153198 
	C445.174194,379.832947 442.111816,383.104797 440.331879,386.638245 
	C437.081696,393.090454 433.947235,399.600922 430.851257,405.910278 
	C424.075684,404.078888 421.924988,405.237976 419.775604,411.085663 
	C416.651886,419.584167 418.084045,423.339722 424.503143,426.382538 
	C424.797577,431.023865 423.824829,435.644684 425.629303,438.526672 
	C427.436371,441.412811 432.017120,442.562317 435.541870,444.563751 
	C433.633179,449.398438 433.984497,453.124512 437.098083,455.888306 
	C440.527313,458.932281 445.058899,459.170410 450.226746,455.360748 
	C454.183746,452.443665 457.340912,448.441559 461.176025,445.072388 
	C462.076111,445.952789 462.653900,446.682892 463.062378,447.705078 
	C461.611755,449.854095 460.436279,451.795990 459.027771,453.550812 
	C455.792053,457.582184 455.614380,462.128784 458.716553,465.151093 
	C461.941467,468.293030 468.288483,468.522125 471.311523,464.834808 
	C475.481354,459.748718 479.357788,454.322113 482.626678,448.620911 
	C487.427460,440.248108 491.580078,431.503693 496.008881,422.917633 
	C496.664459,423.189453 497.320038,423.461304 497.975616,423.733154 
	C497.016541,426.689301 496.256195,429.728851 495.057770,432.584564 
	C492.399200,438.919342 493.246002,445.842224 497.333344,449.215118 
	C501.334198,452.516663 504.738495,451.420868 506.346375,446.491425 
	C507.203918,443.862457 507.756439,440.537567 509.644104,438.955444 
	C514.824463,434.613525 515.461792,428.929688 516.314758,422.939392 
	C516.985107,418.231628 517.086731,411.796661 520.063110,409.438477 
	C524.861938,405.636414 520.949463,402.655334 521.360535,399.445984 
	C521.460327,398.667358 521.006714,397.831818 520.899963,397.010437 
	C520.286316,392.290375 519.700562,387.566681 519.105286,382.844238 
	C519.457153,382.791199 519.808960,382.738129 520.160828,382.685059 
	C520.820618,384.245148 521.480408,385.805206 522.453796,388.106720 
	C523.144653,380.555267 523.751465,373.923035 524.358276,367.290802 
	C524.859009,367.339386 525.359741,367.387939 525.860474,367.436493 
	C526.020813,369.439850 526.181091,371.443237 526.341431,373.446594 
	C531.895508,360.959076 529.875488,346.064972 540.295471,334.797028 
	C540.089783,337.783234 539.920654,340.238556 539.751526,342.693848 
	C540.150513,342.842712 540.549500,342.991577 540.948486,343.140411 
	C544.826538,335.587860 548.704590,328.035309 553.176636,319.325867 
	C553.176636,323.706268 553.176636,326.717926 553.176636,330.642090 
	C560.134094,320.238739 562.035767,309.147949 564.317383,296.642822 
	C565.497437,300.971649 566.268616,303.800659 567.039795,306.629700 
	C568.765564,298.352783 569.018799,290.207855 569.953552,282.141846 
	C570.332397,278.872833 572.092407,275.727844 573.508667,272.657745 
	C573.699646,272.243805 575.561768,272.600769 576.650024,272.600769 
	C576.707397,272.945496 576.764771,273.290222 576.822083,273.634949 
	C578.338562,272.348145 579.855042,271.061340 581.371460,269.774506 
	C581.707520,270.011597 582.043579,270.248688 582.379639,270.485779 
	C581.160583,277.256104 579.941589,284.026428 578.722534,290.796753 
	C579.059082,290.982178 579.395630,291.167572 579.732178,291.352997 
	C580.450623,290.117889 581.169067,288.882812 581.887512,287.647705 
	C583.916260,296.711273 578.620300,302.951477 575.734741,310.508850 
	C577.656311,309.454681 579.577881,308.400482 581.687927,307.593079 
	C582.017151,307.991608 582.157898,308.143402 582.266052,308.667053 
	C577.664124,319.256836 573.094849,329.474731 568.520752,339.703339 
	C570.163208,338.684906 571.971008,337.563934 573.778809,336.442963 
	C574.190186,336.795929 574.601562,337.148926 575.012939,337.501892 
	C570.062317,345.394196 565.001404,353.219940 560.188171,361.195160 
	C553.763672,371.839935 550.413452,382.678253 552.040405,387.204559 
	C553.394836,385.729645 554.670959,384.339905 556.065674,383.071259 
	C556.184265,383.192352 556.421082,383.434937 556.406372,383.838226 
	C553.288879,396.933716 552.426025,409.557648 557.226562,423.092896 
	C558.571716,419.448975 559.525574,416.865143 560.447754,414.367157 
	C569.453125,433.559814 559.834961,449.535889 552.071899,466.212006 
	C554.507996,464.386475 556.944153,462.560944 559.380249,460.735443 
	C559.620300,461.018250 559.860291,461.301086 560.100281,461.583923 
	C555.512451,469.477081 550.924561,477.370239 546.336731,485.263428 
	C546.679993,485.482422 547.023315,485.701416 547.366638,485.920410 
	C549.348022,484.434906 551.329468,482.949432 553.310852,481.463928 
	C549.888733,493.472656 551.338379,506.828125 540.274109,515.595520 
	C540.667603,515.844421 541.061096,516.093323 541.454590,516.342224 
	C544.270447,515.059143 547.086304,513.776123 550.604553,512.173035 
	C548.417236,520.192017 544.444214,524.596863 536.869568,525.040161 
	C529.901123,525.447815 522.940186,525.982788 515.205750,526.514587 
	C518.580688,528.041992 521.258057,529.253662 523.935486,530.465332 
	C510.893890,531.583252 498.686127,533.981873 487.233795,540.510132 
	C489.369568,540.772888 491.505341,541.035706 492.789795,541.193726 
	C485.045807,546.398926 476.813477,551.932434 468.581146,557.465881 
	C468.865906,558.006714 469.150635,558.547485 469.435364,559.088318 
	C471.750244,558.706177 474.065125,558.324097 476.380005,557.941956 
	C476.716644,558.430420 477.053314,558.918945 477.389984,559.407410 
	C471.463135,564.686279 465.536316,569.965149 459.018677,575.770264 
	C461.414368,576.034424 462.697968,576.175964 464.646362,576.390808 
	C456.041504,587.520752 446.194824,595.756531 433.764923,600.950562 
	C436.014709,600.950562 438.264465,600.950562 440.514252,600.950562 
	C440.645142,601.348022 440.776031,601.745422 440.906921,602.142883 
	C434.685669,604.524780 428.464417,606.906677 422.041046,609.365906 
	C423.836700,609.664795 425.352875,609.917175 426.869049,610.169495 
	C426.921112,610.659668 426.973175,611.149780 427.025238,611.639893 
	C421.536560,612.631714 416.047882,613.623535 410.559204,614.615417 
	C410.501862,614.834167 410.444550,615.052979 410.387207,615.271790 
	C412.593872,615.724976 414.800537,616.178162 418.392487,616.915894 
	C412.603302,619.703796 407.956116,621.715332 403.521667,624.119385 
	C389.737457,631.591980 379.007660,648.114563 392.522400,666.315369 
	C397.727448,673.325256 403.812164,680.015930 410.630798,685.420349 
	C422.758911,695.033142 432.178192,706.114990 435.669800,721.458191 
	C438.306763,733.045959 445.257233,741.108276 455.787689,745.944336 
	C461.144562,748.404358 467.017365,749.737061 472.645355,751.614136 
	C473.790283,751.996033 474.883118,752.533997 476.000000,753.000000 
M567.065125,340.386078 
	C567.256592,340.445404 567.448059,340.504730 567.639526,340.564056 
	C567.572876,340.377350 567.506287,340.190643 567.065125,340.386078 
M488.000000,230.500000 
	C487.799988,230.366669 487.600006,230.233337 487.399994,230.100006 
	C487.433350,230.400009 487.466675,230.699997 488.000000,230.500000 
z"/>
<path fill="#020403" opacity="1.000000" stroke="none" 
	d="
M568.999695,143.998779 
	C571.672180,140.278275 574.344666,136.557739 577.385925,132.391632 
	C577.759338,131.655365 577.763977,131.364670 577.768555,131.073990 
	C577.347595,131.159058 576.926636,131.244125 576.505676,131.329193 
	C575.478088,131.747711 574.450439,132.166245 573.422852,132.584763 
	C573.086304,132.161377 572.749695,131.737991 572.413147,131.314606 
	C578.267212,126.288734 584.121277,121.262856 590.856140,115.480820 
	C587.370300,116.118378 584.800781,116.588341 580.879150,117.305618 
	C590.379700,108.821289 600.571350,104.449493 611.520935,100.965935 
	C608.373169,100.646301 605.225464,100.326668 602.077698,100.007034 
	C601.988403,99.546234 601.899048,99.085442 601.809692,98.624641 
	C610.454163,96.191902 619.098633,93.759163 628.414246,91.137543 
	C626.281677,89.711220 624.156128,88.289574 622.110107,86.921112 
	C630.259033,86.921112 638.259277,86.921112 646.259521,86.921112 
	C646.299011,86.577499 646.338501,86.233894 646.377991,85.890282 
	C642.832092,85.511673 639.286133,85.133064 634.849243,84.659325 
	C643.252869,79.201378 652.093750,77.896538 662.528442,77.310051 
	C659.929504,75.976067 658.711487,75.350899 656.550171,74.241508 
	C660.738770,73.935669 664.008789,73.696907 667.883545,73.413979 
	C666.698853,72.335464 665.833740,71.547897 665.270508,71.035088 
	C670.976135,70.254150 676.936340,69.438385 682.896484,68.622612 
	C682.899231,68.072220 682.901978,67.521820 682.904663,66.971420 
	C680.883850,66.265015 678.863037,65.558617 677.030457,64.918022 
	C685.104553,60.943909 693.256409,56.931519 701.408264,52.919125 
	C701.255005,52.432724 701.101685,51.946320 700.948364,51.459919 
	C699.954163,51.175472 698.959900,50.891026 697.640503,50.513569 
	C704.876587,45.009048 711.973328,39.610455 719.070129,34.211861 
	C718.863953,33.794773 718.657776,33.377686 718.451599,32.960598 
	C716.719299,33.226501 714.987000,33.492405 713.254700,33.758308 
	C713.071472,33.525360 712.888184,33.292416 712.704895,33.059471 
	C717.345154,29.500460 721.985474,25.941448 727.215637,21.930002 
	C725.239563,22.073196 723.990540,22.163706 722.391846,22.162155 
	C722.042175,22.070097 722.068604,22.138157 722.068604,22.138157 
	C729.430298,18.120180 736.779724,14.079544 744.166931,10.109001 
	C745.257629,9.522749 746.526550,9.268148 747.625854,8.074691 
	C744.836731,8.074691 742.047607,8.074691 737.890747,8.074691 
	C749.553650,1.547125 760.614685,2.150761 772.713440,4.558658 
	C771.563477,3.004483 771.101257,2.379793 770.819519,1.377552 
	C773.370544,1.000000 775.741150,1.000000 778.555847,1.000005 
	C782.361755,3.126698 785.723572,5.253387 790.281128,8.136549 
	C789.565552,6.093911 789.312195,5.370602 788.685669,4.497399 
	C788.312500,4.347505 788.253479,4.387192 788.253479,4.387194 
	C789.603333,4.574955 791.163086,4.389168 792.269287,5.010638 
	C799.888550,9.291131 805.974976,15.178737 810.531006,23.270224 
	C811.098145,23.888510 811.364868,24.110340 811.631592,24.332182 
	C811.552856,23.762550 811.474121,23.192907 811.395386,22.623264 
	C811.337769,21.489906 811.280212,20.356546 811.169250,18.171347 
	C812.476746,20.136343 813.231689,21.310558 814.025452,22.457916 
	C822.760864,35.085342 825.924316,49.957466 830.938293,64.095879 
	C831.903137,66.816612 833.782166,69.270004 835.506836,71.653183 
	C839.739075,77.501266 838.797241,81.882965 832.420105,85.144188 
	C829.299927,86.739822 828.554688,90.061501 830.816101,93.044365 
	C831.912231,94.490265 833.404358,95.628883 834.592773,97.013397 
	C838.674072,101.767899 838.777222,104.722649 835.464966,109.340630 
	C836.990173,113.480209 838.595947,117.269318 839.730713,121.194557 
	C840.193787,122.796127 839.581421,124.692139 839.559937,126.455437 
	C839.543274,127.823517 839.960938,129.251266 839.689819,130.548874 
	C839.301636,132.406357 838.982117,134.772995 837.719055,135.862381 
	C833.496704,139.504364 832.063049,143.271484 833.434265,149.035049 
	C834.370728,152.971664 832.923340,157.502350 832.343750,161.740356 
	C832.266846,162.302673 831.019836,162.704926 829.254944,163.897202 
	C827.719482,167.271835 825.655640,171.807922 823.591736,176.343994 
	C823.169739,176.190826 822.747742,176.037659 822.325745,175.884476 
	C822.371399,175.297424 822.417114,174.710373 822.634033,173.545166 
	C822.747498,172.681091 822.689819,172.395187 822.632080,172.109283 
	C822.356079,172.340881 822.080139,172.572479 821.804138,172.804108 
	C818.322937,175.817108 814.906128,178.909836 811.327332,181.802048 
	C809.986084,182.885925 808.267944,183.503357 806.538757,184.431641 
	C807.666443,180.903763 808.676758,177.742844 809.687134,174.581909 
	C809.328430,174.425110 808.969727,174.268295 808.611023,174.111496 
	C807.823120,175.222610 807.035217,176.333740 805.763245,178.127533 
	C805.582642,175.882355 805.450562,174.240601 805.265320,171.937149 
	C804.531433,172.925903 804.083618,173.529312 803.435486,174.402588 
	C802.495544,172.820190 801.561401,171.247543 800.279114,169.088760 
	C799.844849,170.587845 799.574829,171.519943 798.776794,174.274490 
	C795.739014,171.060089 793.308716,168.488495 790.905823,165.945892 
	C790.651306,166.753967 790.184570,168.235611 789.516113,170.357910 
	C787.928650,167.204514 786.564636,164.495026 784.774841,160.939697 
	C782.716309,164.135910 781.024658,166.762527 778.993225,169.916595 
	C778.416382,168.386612 778.036377,167.378693 777.611755,166.252502 
	C775.259277,169.343811 776.637756,171.634155 778.653503,174.219330 
	C783.245850,180.108871 787.573669,186.206146 791.940613,192.268219 
	C792.581299,193.157486 792.848389,194.315826 793.420959,195.661362 
	C792.052185,195.878845 791.037903,196.039993 790.299133,196.157394 
	C792.803894,202.505402 795.362793,208.794037 797.731934,215.153366 
	C798.232300,216.496445 798.037720,218.098434 798.216248,220.205688 
	C796.565369,218.801025 795.315796,217.737808 794.102112,216.705154 
	C794.641785,223.791199 795.144775,230.394852 795.647705,236.998505 
	C795.228271,237.069046 794.808838,237.139587 794.389404,237.210129 
	C793.736572,235.248657 793.083740,233.287186 792.484985,231.488327 
	C786.536438,245.328049 793.200867,257.122437 800.041809,269.195648 
	C798.161438,269.195648 797.396912,269.195648 797.055237,269.195648 
	C798.262024,273.823303 799.506836,278.597046 800.751709,283.370789 
	C800.320435,283.523560 799.889160,283.676331 799.457886,283.829071 
	C798.541809,282.245026 797.625732,280.660950 796.415771,278.568787 
	C795.546448,291.449097 796.995850,294.116943 807.340576,299.039673 
	C811.224426,300.887878 815.191223,302.561584 820.189392,304.791962 
	C817.501282,305.029144 815.891235,305.171204 813.806335,305.355133 
	C821.578308,310.081177 829.110474,314.661438 836.642700,319.241699 
	C836.392944,319.654144 836.143188,320.066589 835.893433,320.479034 
	C833.143677,319.481628 830.393860,318.484253 827.644043,317.486847 
	C827.596741,317.682404 827.549377,317.877960 827.502075,318.073517 
	C832.645935,322.488159 837.862549,326.822876 842.875061,331.381958 
	C843.930603,332.342072 844.238953,334.124786 844.874023,335.536316 
	C844.884094,335.558563 844.676453,335.729950 844.558838,335.745850 
	C844.400635,335.767151 844.231262,335.704956 843.475830,335.369568 
	C842.294250,335.118622 841.703552,335.176666 840.028320,335.341370 
	C841.640564,335.866791 842.211304,336.052795 842.782104,336.238800 
	C850.438049,347.891663 862.671875,353.934753 875.215332,361.927582 
	C872.803406,361.695007 871.939392,361.611694 870.512329,361.353943 
	C869.651978,361.236694 869.354736,361.293915 869.057434,361.351135 
	C869.315125,361.623932 869.572754,361.896729 869.830444,362.169525 
	C874.671936,366.992432 879.541626,371.787994 884.293091,376.698029 
	C884.619080,377.034912 884.060242,378.228119 883.382568,378.669464 
	C882.324219,378.194885 881.796143,378.073944 880.360535,377.745117 
	C881.478088,378.809021 881.900024,379.210693 882.321960,379.612366 
	C886.125793,383.327087 889.629211,387.427979 893.799377,390.671722 
	C901.204956,396.432190 906.135010,403.309082 907.349365,412.866028 
	C907.795532,416.377380 909.228394,419.994385 911.064514,423.050537 
	C915.036377,429.661499 911.711548,436.014679 911.085083,442.452789 
	C910.288452,450.639648 906.059143,456.603760 898.968079,460.740265 
	C897.293762,461.716949 896.004761,463.399902 894.639709,464.852997 
	C888.308167,471.592743 885.651917,471.305206 881.354248,463.185730 
	C879.239136,464.466583 877.226562,465.944031 875.005127,466.968414 
	C871.866577,468.415741 868.161621,469.461151 866.108459,465.783813 
	C864.119873,462.222168 864.599670,458.106781 868.035645,455.416199 
	C872.371948,452.020599 873.976074,447.916626 872.859070,442.540741 
	C871.248657,448.717438 868.020264,453.745728 862.307251,456.585693 
	C859.265503,458.097778 855.696472,461.014526 852.447754,456.966461 
	C850.098267,454.038788 851.495789,448.008392 855.420837,445.491028 
	C857.793945,443.968933 858.194946,442.342926 858.300781,439.895508 
	C858.585876,433.301849 855.104431,428.251617 850.142761,425.403229 
	C841.554565,420.472900 835.571655,414.012482 832.745850,404.569458 
	C832.618408,404.143646 832.122437,403.828125 831.291077,402.887726 
	C830.514038,405.463379 829.862122,407.624451 828.908997,410.783844 
	C826.601318,404.911804 826.043945,399.000214 819.917236,396.087646 
	C820.165894,398.800079 820.372498,401.054108 820.135620,403.527405 
	C819.692078,403.746643 819.627686,403.697479 819.627686,403.697479 
	C814.880920,395.936218 808.044800,390.534943 799.787842,385.339386 
	C799.787842,387.969757 799.787842,389.543640 799.787842,391.522064 
	C797.572754,389.430145 795.718140,387.678650 793.409546,385.552307 
	C792.737671,385.614807 792.519775,386.052155 792.301758,386.489502 
	C792.910950,388.654633 793.520203,390.819763 794.211182,393.275665 
	C787.220215,387.287140 780.570251,381.590729 773.444946,375.528442 
	C772.739746,375.604187 772.509827,376.045868 772.279968,376.487549 
	C772.714966,377.926910 773.150024,379.366241 773.219604,381.024902 
	C772.854126,381.244171 772.897034,381.167877 772.897095,381.167847 
	C767.958801,377.051025 763.020508,372.934235 758.082275,368.817444 
	C758.386169,368.392975 758.690125,367.968506 758.994080,367.544037 
	C759.304321,369.693054 759.614624,371.842041 759.924866,373.991028 
	C759.618103,374.154755 759.311279,374.318451 759.004456,374.482178 
	C756.431030,370.332855 753.906677,366.151917 751.261658,362.048706 
	C750.092590,360.235138 748.932373,357.162292 746.490540,360.983856 
	C744.491028,357.029205 742.375427,352.844879 740.259766,348.660553 
	C739.881409,348.841797 739.502991,349.023041 739.124634,349.204315 
	C739.382019,354.572723 739.639343,359.941162 739.896729,365.309570 
	C739.596558,365.414520 739.296326,365.519501 738.996094,365.624451 
	C738.179504,364.213745 737.362854,362.803009 736.129456,360.672302 
	C735.684875,364.522339 735.627625,367.749542 734.864075,370.799957 
	C734.208618,373.418610 735.324280,376.919312 730.298218,377.702698 
	C727.820374,378.088928 728.630981,382.418274 730.884888,384.372375 
	C735.270508,388.174866 739.757141,391.886749 744.435486,395.317841 
	C748.415161,398.236572 752.722778,400.708191 756.589600,404.502136 
	C754.763367,404.327515 752.937134,404.152893 751.054382,403.972870 
	C761.111084,412.885986 771.134583,421.769714 781.484497,430.707001 
	C781.810974,430.760590 781.921204,430.734039 781.921204,430.734039 
	C779.108276,430.235443 776.295349,429.736877 773.228027,429.193207 
	C778.791748,435.246674 784.434143,441.230652 789.897644,447.373688 
	C795.381104,453.539185 800.686279,459.863281 805.967224,466.648560 
	C805.758423,467.315552 805.651978,467.451843 805.545593,467.588104 
	C803.055237,465.874878 800.564880,464.161652 797.106995,461.782806 
	C805.554443,479.091797 821.592407,487.825165 831.723938,502.127869 
	C830.063538,501.369263 828.403137,500.610657 826.102417,499.559540 
	C830.611267,509.421692 834.841492,518.674438 839.071777,527.927185 
	C838.672485,528.142822 838.273193,528.358459 837.873901,528.574097 
	C836.793091,527.968994 835.712341,527.363892 834.731750,526.814880 
	C836.073669,534.080200 837.383972,541.174744 838.694336,548.269348 
	C838.147095,548.431396 837.599915,548.593506 837.052734,548.755615 
	C836.072998,547.133789 835.093262,545.511902 834.113586,543.890015 
	C833.039917,551.131653 835.431335,557.445923 838.053223,563.738708 
	C840.700439,570.092102 845.086426,575.957214 843.891052,583.478882 
	C839.299622,582.308228 840.926270,585.149414 841.505554,587.130066 
	C843.584778,594.240234 845.735352,601.329651 847.858948,608.426880 
	C847.417542,608.611694 846.976074,608.796509 846.534668,608.981262 
	C845.268799,607.077881 844.002991,605.174438 842.737122,603.270996 
	C842.401794,603.344788 842.066406,603.418518 841.731079,603.492249 
	C842.402100,607.359863 842.943481,611.255798 843.779541,615.087402 
	C844.664124,619.142090 845.677734,623.182861 846.914673,627.142395 
	C848.141296,631.068665 849.716370,634.886047 850.440247,639.353027 
	C848.412354,637.432800 846.384521,635.512573 844.018616,633.272339 
	C846.574768,647.351746 852.489380,658.974731 863.733948,668.051208 
	C862.572021,667.876099 861.410034,667.700989 859.636353,667.329651 
	C858.764832,667.190613 858.505127,667.247742 858.245361,667.304810 
	C858.458923,667.573242 858.672546,667.841675 858.886108,668.110107 
	C863.647400,676.046326 871.984985,676.335144 879.735046,677.652893 
	C882.617737,678.143005 885.653687,677.732178 889.561646,677.732178 
	C887.820801,679.122803 886.841858,679.904785 884.992432,681.382141 
	C892.620544,682.024475 899.450684,682.599609 906.613892,683.202820 
	C906.164062,684.017883 905.718384,684.825378 904.502808,687.027710 
	C911.416199,686.016296 917.198425,685.038696 923.016357,684.372864 
	C926.071594,684.023193 929.589417,683.279785 932.186401,684.385742 
	C936.250122,686.116455 939.500854,685.399292 943.103027,683.748169 
	C949.253296,680.929382 952.726990,681.438904 955.598572,685.322266 
	C959.147339,690.121521 958.644836,696.234741 954.606445,700.846252 
	C953.522095,702.084534 953.105591,703.912598 952.403381,705.479309 
	C951.734070,706.972900 951.453247,709.411926 950.379150,709.827576 
	C943.394653,712.531555 939.671753,720.476318 931.597778,721.349854 
	C930.618042,721.455872 929.341919,722.185974 928.864990,723.009888 
	C926.455017,727.172668 922.799133,728.055481 918.303040,728.176636 
	C915.749634,728.245422 912.841675,729.285095 910.774719,730.810547 
	C902.346252,737.031372 893.276306,741.331604 882.600708,740.168945 
	C862.442261,737.973633 844.140137,743.783325 826.196655,752.698181 
	C814.645752,753.000000 803.291565,753.000000 791.248413,752.744995 
	C784.187622,749.405334 779.634888,744.476624 778.443176,737.570312 
	C777.413818,731.604980 777.514099,725.397400 777.600220,719.303772 
	C777.656738,715.306335 778.576721,711.321167 779.109924,707.330505 
	C778.813354,707.228638 778.516724,707.126709 778.220093,707.024780 
	C776.350708,709.383057 774.481384,711.741333 771.921814,714.970337 
	C773.073730,702.091736 775.353943,690.501343 771.884705,678.144653 
	C770.490845,682.077393 769.398254,685.160156 768.305664,688.242981 
	C767.746155,672.694275 765.757080,658.024597 758.075623,644.474609 
	C758.075623,646.483765 758.075623,648.492859 758.075623,650.502014 
	C757.839783,650.540649 757.603882,650.579346 757.368042,650.617981 
	C754.889954,644.598511 752.411865,638.578979 749.689209,631.965454 
	C749.131836,634.099365 748.769653,635.436523 748.435364,636.780640 
	C748.148804,637.932617 747.894165,639.092468 747.625427,640.248840 
	C746.873108,640.222412 746.120789,640.195984 745.368469,640.169495 
	C743.150330,628.300110 740.932251,616.430725 738.721619,604.601562 
	C737.487549,607.169434 736.097046,610.062927 734.706482,612.956421 
	C732.798828,599.500732 736.351807,586.911987 739.515991,572.763855 
	C736.645996,575.283386 734.995728,576.732178 732.347778,579.056885 
	C735.857178,569.276062 738.938171,560.689148 742.019165,552.102295 
	C741.551697,551.895447 741.084167,551.688660 740.616699,551.481812 
	C739.824097,552.015442 739.031494,552.549011 739.410400,552.293945 
	C735.501465,546.047180 731.738586,540.033813 727.960388,533.762146 
	C727.750366,533.532898 727.555542,533.561951 727.360779,533.591003 
	C727.382874,533.711731 727.398010,533.934753 727.428223,533.936890 
	C727.637817,533.951233 727.850586,533.919678 727.827393,534.281128 
	C728.044678,537.911133 728.496948,541.162964 728.932922,544.298218 
	C722.314880,537.187134 715.975586,530.375610 709.636292,523.564148 
	C709.226685,523.826172 708.817078,524.088257 708.407471,524.350281 
	C709.015320,526.492615 709.623169,528.635010 710.017151,530.999878 
	C709.668091,531.377441 709.532837,531.532532 709.123047,531.496826 
	C705.550354,527.123169 702.252197,522.940308 698.612000,518.323608 
	C699.076599,523.600830 699.514893,528.578979 700.071716,534.902893 
	C693.354980,523.679077 690.546204,511.575470 679.895020,504.691315 
	C680.565918,508.609589 681.104248,511.753387 681.664673,514.857117 
	C681.686707,514.817078 681.608032,514.829041 681.595581,514.463623 
	C678.269348,510.095428 674.955566,506.092560 671.761108,502.233948 
	C669.030273,510.675232 666.323547,519.041992 663.616760,527.408752 
	C663.166687,527.296021 662.716614,527.183350 662.266541,527.070618 
	C662.129822,524.637146 661.993103,522.203613 661.792419,518.630249 
	C657.159119,532.156433 652.931824,544.497620 648.704468,556.838867 
	C648.222473,556.709351 647.740540,556.579834 647.258545,556.450317 
	C647.258545,553.301147 647.258545,550.151978 647.258545,547.002808 
	C646.797241,546.857361 646.335938,546.711975 645.874573,546.566528 
	C642.888184,553.797180 640.083862,561.110107 636.864868,568.235718 
	C633.547913,575.578125 629.941406,582.798157 626.190674,589.929199 
	C625.401062,591.430359 623.433167,592.311707 621.085449,594.234436 
	C621.580627,591.598022 621.820923,590.318970 622.241760,588.078491 
	C614.508545,596.455750 606.693542,603.062134 595.526306,606.814941 
	C597.602112,603.639465 598.937561,601.596558 600.273071,599.553650 
	C599.931641,599.252502 599.590210,598.951355 599.248779,598.650208 
	C594.608887,601.702393 589.968994,604.754517 585.329163,607.806702 
	C584.361328,607.087952 583.341980,607.013123 582.791016,607.485046 
	C576.598877,612.789124 570.589905,618.312500 564.293274,623.486755 
	C561.063782,626.140564 557.354736,628.210815 553.862488,630.544800 
	C553.620667,630.240906 553.378906,629.937012 553.137085,629.633118 
	C554.832947,627.241943 556.528809,624.850830 558.224731,622.459656 
	C549.003540,627.509216 541.669006,635.174438 530.803284,638.301941 
	C532.071289,636.256958 532.932312,634.868469 533.921448,633.211304 
	C533.938599,632.664978 533.827637,632.387146 533.716675,632.109375 
	C533.389099,632.317383 533.061523,632.525391 532.402100,632.823486 
	C524.641052,638.339111 517.211853,643.764648 509.905975,649.100159 
	C509.945770,648.255371 510.017975,646.722534 510.137207,644.192017 
	C501.179962,650.742065 496.918518,659.344238 493.123230,668.649536 
	C493.123230,665.346741 493.123230,662.044006 493.123230,657.679016 
	C488.193634,663.037598 487.344299,668.546265 488.193542,674.122742 
	C489.041931,679.693359 490.859650,685.116333 492.474060,691.477417 
	C490.511383,689.932556 489.398407,689.056519 488.285400,688.180420 
	C487.916290,688.359619 487.547180,688.538879 487.178070,688.718079 
	C489.210510,694.374939 491.242920,700.031799 493.323029,705.821289 
	C492.830597,705.767212 492.400726,705.652710 491.986664,705.694458 
	C491.607208,705.732788 491.244812,705.939880 491.056305,705.887573 
	C490.985138,705.650635 490.732574,705.598755 490.480042,705.546936 
	C490.655823,705.695862 490.831604,705.844788 490.989716,706.368530 
	C493.431152,714.767151 497.522766,721.037598 506.703888,722.496338 
	C508.491974,722.780457 509.972748,724.668579 511.729523,725.549011 
	C515.337952,727.357483 518.882874,729.621277 522.731140,730.554993 
	C530.941467,732.546997 534.147095,740.502747 528.615540,746.984619 
	C526.555725,749.398254 523.565796,751.018127 521.000000,753.000000 
	C506.312439,753.000000 491.624878,753.000000 476.468658,753.000000 
	C474.883118,752.533997 473.790283,751.996033 472.645355,751.614136 
	C467.017365,749.737061 461.144562,748.404358 455.787689,745.944336 
	C445.257233,741.108276 438.306763,733.045959 435.669800,721.458191 
	C432.178192,706.114990 422.758911,695.033142 410.630798,685.420349 
	C403.812164,680.015930 397.727448,673.325256 392.522400,666.315369 
	C379.007660,648.114563 389.737457,631.591980 403.521667,624.119385 
	C407.956116,621.715332 412.603302,619.703796 418.392487,616.915894 
	C414.800537,616.178162 412.593872,615.724976 410.387207,615.271790 
	C410.444550,615.052979 410.501862,614.834167 410.559204,614.615417 
	C416.047882,613.623535 421.536560,612.631714 427.025238,611.639893 
	C426.973175,611.149780 426.921112,610.659668 426.869049,610.169495 
	C425.352875,609.917175 423.836700,609.664795 422.041046,609.365906 
	C428.464417,606.906677 434.685669,604.524780 440.906921,602.142883 
	C440.776031,601.745422 440.645142,601.348022 440.514252,600.950562 
	C438.264465,600.950562 436.014709,600.950562 433.764923,600.950562 
	C446.194824,595.756531 456.041504,587.520752 464.646362,576.390808 
	C462.697968,576.175964 461.414368,576.034424 459.018677,575.770264 
	C465.536316,569.965149 471.463135,564.686279 477.389984,559.407410 
	C477.053314,558.918945 476.716644,558.430420 476.380005,557.941956 
	C474.065125,558.324097 471.750244,558.706177 469.435364,559.088318 
	C469.150635,558.547485 468.865906,558.006714 468.581146,557.465881 
	C476.813477,551.932434 485.045807,546.398926 492.789795,541.193726 
	C491.505341,541.035706 489.369568,540.772888 487.233795,540.510132 
	C498.686127,533.981873 510.893890,531.583252 523.935486,530.465332 
	C521.258057,529.253662 518.580688,528.041992 515.205750,526.514587 
	C522.940186,525.982788 529.901123,525.447815 536.869568,525.040161 
	C544.444214,524.596863 548.417236,520.192017 550.604553,512.173035 
	C547.086304,513.776123 544.270447,515.059143 541.454590,516.342224 
	C541.061096,516.093323 540.667603,515.844421 540.274109,515.595520 
	C551.338379,506.828125 549.888733,493.472656 553.310852,481.463928 
	C551.329468,482.949432 549.348022,484.434906 547.366638,485.920410 
	C547.023315,485.701416 546.679993,485.482422 546.336731,485.263428 
	C550.924561,477.370239 555.512451,469.477081 560.100281,461.583923 
	C559.860291,461.301086 559.620300,461.018250 559.380249,460.735443 
	C556.944153,462.560944 554.507996,464.386475 552.071899,466.212006 
	C559.834961,449.535889 569.453125,433.559814 560.447754,414.367157 
	C559.525574,416.865143 558.571716,419.448975 557.226562,423.092896 
	C552.426025,409.557648 553.288879,396.933716 556.607300,383.657532 
	C556.678467,382.630402 556.534058,382.187195 556.389526,381.744019 
	C556.242065,382.146057 556.094604,382.548126 555.947083,382.950195 
	C554.670959,384.339905 553.394836,385.729645 552.040405,387.204559 
	C550.413452,382.678253 553.763672,371.839935 560.188171,361.195160 
	C565.001404,353.219940 570.062317,345.394196 575.012939,337.501892 
	C574.601562,337.148926 574.190186,336.795929 573.778809,336.442963 
	C571.971008,337.563934 570.163208,338.684906 568.520752,339.703339 
	C573.094849,329.474731 577.664124,319.256836 582.496460,308.503845 
	C582.339478,307.761292 581.919434,307.553802 581.499451,307.346313 
	C579.577881,308.400482 577.656311,309.454681 575.734741,310.508850 
	C578.620300,302.951477 583.916260,296.711273 581.887512,287.647705 
	C581.169067,288.882812 580.450623,290.117889 579.732178,291.352997 
	C579.395630,291.167572 579.059082,290.982178 578.722534,290.796753 
	C579.941589,284.026428 581.160583,277.256104 582.379639,270.485779 
	C582.043579,270.248688 581.707520,270.011597 581.371460,269.774506 
	C579.855042,271.061340 578.338562,272.348145 576.822083,273.634949 
	C576.764771,273.290222 576.707397,272.945496 576.650024,272.600769 
	C575.561768,272.600769 573.699646,272.243805 573.508667,272.657745 
	C572.092407,275.727844 570.332397,278.872833 569.953552,282.141846 
	C569.018799,290.207855 568.765564,298.352783 567.039795,306.629700 
	C566.268616,303.800659 565.497437,300.971649 564.317383,296.642822 
	C562.035767,309.147949 560.134094,320.238739 553.176636,330.642090 
	C553.176636,326.717926 553.176636,323.706268 553.176636,319.325867 
	C548.704590,328.035309 544.826538,335.587860 540.948486,343.140411 
	C540.549500,342.991577 540.150513,342.842712 539.751526,342.693848 
	C539.920654,340.238556 540.089783,337.783234 540.295471,334.797028 
	C529.875488,346.064972 531.895508,360.959076 526.341431,373.446594 
	C526.181091,371.443237 526.020813,369.439850 525.860474,367.436493 
	C525.359741,367.387939 524.859009,367.339386 524.358276,367.290802 
	C523.751465,373.923035 523.144653,380.555267 522.453796,388.106720 
	C521.480408,385.805206 520.820618,384.245148 520.160828,382.685059 
	C519.808960,382.738129 519.457153,382.791199 519.105286,382.844238 
	C519.700562,387.566681 520.286316,392.290375 520.899963,397.010437 
	C521.006714,397.831818 521.460327,398.667358 521.360535,399.445984 
	C520.949463,402.655334 524.861938,405.636414 520.063110,409.438477 
	C517.086731,411.796661 516.985107,418.231628 516.314758,422.939392 
	C515.461792,428.929688 514.824463,434.613525 509.644104,438.955444 
	C507.756439,440.537567 507.203918,443.862457 506.346375,446.491425 
	C504.738495,451.420868 501.334198,452.516663 497.333344,449.215118 
	C493.246002,445.842224 492.399200,438.919342 495.057770,432.584564 
	C496.256195,429.728851 497.016541,426.689301 497.975616,423.733154 
	C497.320038,423.461304 496.664459,423.189453 496.008881,422.917633 
	C491.580078,431.503693 487.427460,440.248108 482.626678,448.620911 
	C479.357788,454.322113 475.481354,459.748718 471.311523,464.834808 
	C468.288483,468.522125 461.941467,468.293030 458.716553,465.151093 
	C455.614380,462.128784 455.792053,457.582184 459.027771,453.550812 
	C460.436279,451.795990 461.611755,449.854095 463.353149,447.489868 
	C465.019867,444.027191 466.226501,441.071838 467.433136,438.116486 
	C466.957001,437.892975 466.480865,437.669434 466.004761,437.445923 
	C464.287750,439.937958 462.570770,442.429993 460.853790,444.922028 
	C457.340912,448.441559 454.183746,452.443665 450.226746,455.360748 
	C445.058899,459.170410 440.527313,458.932281 437.098083,455.888306 
	C433.984497,453.124512 433.633179,449.398438 435.541870,444.563751 
	C432.017120,442.562317 427.436371,441.412811 425.629303,438.526672 
	C423.824829,435.644684 424.797577,431.023865 424.503143,426.382538 
	C418.084045,423.339722 416.651886,419.584167 419.775604,411.085663 
	C421.924988,405.237976 424.075684,404.078888 430.851257,405.910278 
	C433.947235,399.600922 437.081696,393.090454 440.331879,386.638245 
	C442.111816,383.104797 445.174194,379.832947 445.726379,376.153198 
	C446.612488,370.248444 451.402435,368.825867 455.278931,365.493713 
	C455.842712,364.908691 456.011627,364.631927 456.180542,364.355194 
	C455.643127,364.412964 455.105713,364.470703 454.568298,364.528473 
	C453.105072,364.671692 451.641876,364.814880 448.983765,365.075012 
	C452.904663,361.920807 456.016052,359.417816 459.837372,356.343719 
	C456.989471,356.152405 455.248779,356.035461 453.854431,355.941772 
	C456.685913,350.087372 459.554504,344.156250 462.608398,337.657837 
	C462.683655,336.824493 462.573608,336.558441 462.463562,336.292358 
	C462.280212,336.497620 462.096863,336.702911 461.913544,336.908203 
	C459.141327,338.101807 456.369080,339.295410 454.381714,340.151062 
	C458.262268,332.567169 462.281677,324.711792 466.301117,316.856445 
	C465.866699,316.549896 465.432251,316.243347 464.997803,315.936798 
	C462.876465,316.736633 460.755096,317.536438 458.633728,318.336273 
	C458.404297,318.063080 458.174896,317.789856 457.945465,317.516663 
	C460.678070,313.561646 463.410675,309.606628 466.681152,304.873169 
	C464.726471,305.483795 463.540710,305.854187 461.163910,306.596680 
	C464.073029,300.038086 466.657867,294.210571 469.242706,288.383087 
	C468.900421,288.119019 468.558136,287.854950 468.215851,287.590881 
	C465.947784,289.531952 463.679718,291.472992 460.650604,294.065338 
	C463.277954,284.621338 468.296875,277.582916 474.595215,270.582214 
	C474.879333,269.844482 474.828125,269.608185 474.776917,269.371887 
	C474.482910,269.544373 474.188873,269.716888 473.894867,269.889374 
	C472.106110,269.889374 470.317352,269.889374 469.981628,269.889374 
	C474.646271,265.065552 479.953522,259.577240 485.555542,253.589691 
	C485.519287,253.010834 485.188232,252.931213 484.857178,252.851608 
	C483.022369,253.314499 481.187592,253.777390 478.535614,254.446442 
	C482.100128,250.162384 485.094971,246.563004 488.518677,242.480469 
	C488.467499,241.764130 487.987427,241.530945 487.507385,241.297775 
	C486.131927,241.593491 484.756470,241.889206 483.380981,242.184921 
	C482.828094,241.528961 482.275177,240.873001 481.722290,240.217041 
	C485.496002,237.131241 489.269714,234.045441 493.431732,230.572098 
	C493.961395,229.846375 494.102722,229.508194 494.244080,229.170044 
	C493.666168,229.204788 493.088226,229.239532 492.510315,229.274292 
	C491.290039,229.616318 490.069794,229.958344 488.849518,230.300369 
	C488.597168,229.903854 488.344818,229.507339 488.092468,229.110825 
	C490.589539,227.314957 493.030823,225.434082 495.599670,223.747543 
	C498.074707,222.122543 500.578033,220.478027 503.248199,219.223618 
	C515.440430,213.495865 521.843750,202.221924 529.858643,191.555740 
	C530.276978,190.836227 530.408997,190.658875 530.365662,190.553955 
	C530.265930,190.312302 530.080933,190.105835 530.143188,190.065186 
	C530.389832,189.964355 530.423767,189.683395 530.457764,189.402435 
	C530.308960,189.605911 530.160156,189.809372 529.731628,189.971680 
	C529.208008,190.193970 528.964111,190.457397 528.720154,190.720825 
	C527.367554,191.205276 526.014954,191.689743 524.662354,192.174210 
	C524.417053,191.901505 524.171753,191.628799 523.926453,191.356094 
	C527.080322,187.516174 530.045349,183.498779 533.440369,179.885483 
	C536.936890,176.164322 540.852539,172.836975 545.596985,168.388229 
	C542.005188,169.376282 539.607788,170.035782 536.017334,171.023483 
	C548.742615,161.112091 564.957336,157.743057 572.611877,142.978851 
	C571.641052,143.410843 570.670166,143.842834 569.349609,144.137405 
	C569.000000,144.000000 568.999695,143.998779 568.999695,143.998779 
M574.184448,335.587891 
	C574.390686,335.608673 574.596924,335.629425 574.803162,335.650208 
	C574.711609,335.525513 574.620117,335.400848 574.184448,335.587891 
z"/>
<path fill="#FEFEFE" opacity="1.000000" stroke="none" 
	d="
M533.793335,633.479919 
	C532.932312,634.868469 532.071289,636.256958 530.803284,638.301941 
	C541.669006,635.174438 549.003540,627.509216 558.224731,622.459656 
	C556.528809,624.850830 554.832947,627.241943 553.137085,629.633118 
	C553.378906,629.937012 553.620667,630.240906 553.862488,630.544800 
	C557.354736,628.210815 561.063782,626.140564 564.293274,623.486755 
	C570.589905,618.312500 576.598877,612.789124 582.791016,607.485046 
	C583.341980,607.013123 584.361328,607.087952 585.329163,607.806702 
	C589.968994,604.754517 594.608887,601.702393 599.248779,598.650208 
	C599.590210,598.951355 599.931641,599.252502 600.273071,599.553650 
	C598.937561,601.596558 597.602112,603.639465 595.526306,606.814941 
	C606.693542,603.062134 614.508545,596.455750 622.241760,588.078491 
	C621.820923,590.318970 621.580627,591.598022 621.085449,594.234436 
	C623.433167,592.311707 625.401062,591.430359 626.190674,589.929199 
	C629.941406,582.798157 633.547913,575.578125 636.864868,568.235718 
	C640.083862,561.110107 642.888184,553.797180 645.874573,546.566528 
	C646.335938,546.711975 646.797241,546.857361 647.258545,547.002808 
	C647.258545,550.151978 647.258545,553.301147 647.258545,556.450317 
	C647.740540,556.579834 648.222473,556.709351 648.704468,556.838867 
	C652.931824,544.497620 657.159119,532.156433 661.792419,518.630249 
	C661.993103,522.203613 662.129822,524.637146 662.266541,527.070618 
	C662.716614,527.183350 663.166687,527.296021 663.616760,527.408752 
	C666.323547,519.041992 669.030273,510.675232 671.761108,502.233948 
	C674.955566,506.092560 678.269348,510.095428 681.935486,514.411011 
	C682.312378,514.421204 682.336975,514.118713 682.361633,513.816162 
	C682.121948,514.176514 681.882263,514.536804 681.642578,514.897156 
	C681.104248,511.753387 680.565918,508.609589 679.895020,504.691315 
	C690.546204,511.575470 693.354980,523.679077 700.071716,534.902893 
	C699.514893,528.578979 699.076599,523.600830 698.612000,518.323608 
	C702.252197,522.940308 705.550354,527.123169 709.313354,531.719299 
	C710.135437,532.275146 710.492615,532.417664 710.849854,532.560181 
	C710.643555,531.965881 710.437317,531.371643 710.231018,530.777344 
	C709.623169,528.635010 709.015320,526.492615 708.407471,524.350281 
	C708.817078,524.088257 709.226685,523.826172 709.636292,523.564148 
	C715.975586,530.375610 722.314880,537.187134 728.932922,544.298218 
	C728.496948,541.162964 728.044678,537.911133 727.807983,534.312134 
	C728.023438,533.964966 727.975647,534.020447 727.975647,534.020447 
	C731.738586,540.033813 735.501465,546.047180 739.410400,552.293945 
	C739.031494,552.549011 739.824097,552.015442 740.616699,551.481812 
	C741.084167,551.688660 741.551697,551.895447 742.019165,552.102295 
	C738.938171,560.689148 735.857178,569.276062 732.347778,579.056885 
	C734.995728,576.732178 736.645996,575.283386 739.515991,572.763855 
	C736.351807,586.911987 732.798828,599.500732 734.706482,612.956421 
	C736.097046,610.062927 737.487549,607.169434 738.721619,604.601562 
	C740.932251,616.430725 743.150330,628.300110 745.368469,640.169495 
	C746.120789,640.195984 746.873108,640.222412 747.625427,640.248840 
	C747.894165,639.092468 748.148804,637.932617 748.435364,636.780640 
	C748.769653,635.436523 749.131836,634.099365 749.689209,631.965454 
	C752.411865,638.578979 754.889954,644.598511 757.368042,650.617981 
	C757.603882,650.579346 757.839783,650.540649 758.075623,650.502014 
	C758.075623,648.492859 758.075623,646.483765 758.075623,644.474609 
	C765.757080,658.024597 767.746155,672.694275 768.305664,688.242981 
	C769.398254,685.160156 770.490845,682.077393 771.884705,678.144653 
	C775.353943,690.501343 773.073730,702.091736 771.921814,714.970337 
	C774.481384,711.741333 776.350708,709.383057 778.220093,707.024780 
	C778.516724,707.126709 778.813354,707.228638 779.109924,707.330505 
	C778.576721,711.321167 777.656738,715.306335 777.600220,719.303772 
	C777.514099,725.397400 777.413818,731.604980 778.443176,737.570312 
	C779.634888,744.476624 784.187622,749.405334 790.779785,752.744995 
	C701.312439,753.000000 611.624878,753.000000 521.468628,753.000000 
	C523.565796,751.018127 526.555725,749.398254 528.615540,746.984619 
	C534.147095,740.502747 530.941467,732.546997 522.731140,730.554993 
	C518.882874,729.621277 515.337952,727.357483 511.729523,725.549011 
	C509.972748,724.668579 508.491974,722.780457 506.703888,722.496338 
	C497.522766,721.037598 493.431152,714.767151 490.957825,706.390320 
	C490.943634,706.037292 490.874908,706.072571 490.874939,706.072632 
	C491.244812,705.939880 491.607208,705.732788 491.986664,705.694458 
	C492.400726,705.652710 492.830597,705.767212 493.323029,705.821289 
	C491.242920,700.031799 489.210510,694.374939 487.178070,688.718079 
	C487.547180,688.538879 487.916290,688.359619 488.285400,688.180420 
	C489.398407,689.056519 490.511383,689.932556 492.474060,691.477417 
	C490.859650,685.116333 489.041931,679.693359 488.193542,674.122742 
	C487.344299,668.546265 488.193634,663.037598 493.123230,657.679016 
	C493.123230,662.044006 493.123230,665.346741 493.123230,668.649536 
	C496.918518,659.344238 501.179962,650.742065 510.137207,644.192017 
	C510.017975,646.722534 509.945770,648.255371 509.905975,649.100159 
	C517.211853,643.764648 524.641052,638.339111 532.653320,633.029297 
	C533.422119,633.256714 533.607727,633.368286 533.793335,633.479919 
z"/>
<path fill="#020403" opacity="1.000000" stroke="none" 
	d="
M819.669067,403.779938 
	C819.858826,403.497101 820.071716,403.180969 820.284607,402.864868 
	C820.267395,403.122772 820.250244,403.380646 819.930359,403.668030 
	C819.627686,403.697479 819.692078,403.746643 819.669067,403.779938 
z"/>
<path fill="#020403" opacity="1.000000" stroke="none" 
	d="
M781.854858,430.738892 
	C781.557861,430.929840 781.217041,431.142487 780.876221,431.355133 
	C781.010498,431.181915 781.144775,431.008667 781.600098,430.784729 
	C781.921204,430.734039 781.810974,430.760590 781.854858,430.738892 
z"/>
<path fill="#020403" opacity="1.000000" stroke="none" 
	d="
M806.037170,466.985474 
	C806.539673,467.078430 806.869873,467.365173 807.479980,467.686798 
	C807.759949,467.721680 807.879517,467.690369 807.879517,467.690369 
	C807.323975,467.849945 806.768372,468.009460 805.879150,467.878540 
	C805.651978,467.451843 805.758423,467.315552 806.037170,466.985474 
z"/>
<path fill="#020403" opacity="1.000000" stroke="none" 
	d="
M807.818726,467.715668 
	C807.627747,467.921509 807.377930,468.133362 807.128174,468.345215 
	C807.208252,468.194031 807.288391,468.042816 807.624023,467.790985 
	C807.879517,467.690369 807.759949,467.721680 807.818726,467.715668 
z"/>
<path fill="#020403" opacity="1.000000" stroke="none" 
	d="
M788.341248,4.368358 
	C788.419556,3.968191 788.469177,3.547172 788.518799,3.126154 
	C788.700378,3.476495 788.882019,3.826836 788.658569,4.282184 
	C788.253479,4.387192 788.312500,4.347505 788.341248,4.368358 
z"/>
<path fill="#020403" opacity="1.000000" stroke="none" 
	d="
M772.838257,381.284973 
	C773.011292,381.185638 773.190979,381.028076 773.396790,380.920197 
	C773.437439,380.898895 773.578308,381.068787 773.672974,381.150513 
	C773.519043,381.278473 773.365051,381.406403 773.054077,381.351135 
	C772.897034,381.167877 772.854126,381.244171 772.838257,381.284973 
z"/>
<path fill="#DFE0E0" opacity="1.000000" stroke="none" 
	d="
M461.176025,445.072388 
	C462.570770,442.429993 464.287750,439.937958 466.004761,437.445923 
	C466.480865,437.669434 466.957001,437.892975 467.433136,438.116486 
	C466.226501,441.071838 465.019867,444.027191 463.522461,447.197754 
	C462.653900,446.682892 462.076111,445.952789 461.176025,445.072388 
z"/>
<path fill="#020403" opacity="1.000000" stroke="none" 
	d="
M722.019409,22.041534 
	C721.721741,22.224758 721.450928,22.442602 721.163208,22.635363 
	C721.142883,22.648968 720.998718,22.477583 720.912109,22.392220 
	C721.195068,22.157202 721.478088,21.922182 721.914795,21.912659 
	C722.068604,22.138157 722.042175,22.070097 722.019409,22.041534 
z"/>
<path fill="#020403" opacity="1.000000" stroke="none" 
	d="
M567.252380,340.195007 
	C567.506287,340.190643 567.572876,340.377350 567.639526,340.564056 
	C567.448059,340.504730 567.256592,340.445404 567.252380,340.195007 
z"/>
<path fill="#020403" opacity="1.000000" stroke="none" 
	d="
M487.750000,230.750000 
	C487.466675,230.699997 487.433350,230.400009 487.399994,230.100006 
	C487.600006,230.233337 487.799988,230.366669 487.750000,230.750000 
z"/>
<path fill="#020403" opacity="1.000000" stroke="none" 
	d="
M569.000000,144.000366 
	C568.843140,144.222122 568.686279,144.443512 568.529358,144.664886 
	C568.504883,144.445648 568.480408,144.226395 568.727783,144.002960 
	C568.999695,143.998779 569.000000,144.000000 569.000000,144.000366 
z"/>
<path fill="#FFFFFF" opacity="1.000000" stroke="none" 
	d="
M556.065674,383.071289 
	C556.094604,382.548126 556.242065,382.146057 556.389526,381.744019 
	C556.534058,382.187195 556.678467,382.630402 556.622009,383.254272 
	C556.421082,383.434937 556.184265,383.192352 556.065674,383.071289 
z"/>
<path fill="#FFFFFF" opacity="1.000000" stroke="none" 
	d="
M882.522644,379.436462 
	C881.900024,379.210693 881.478088,378.809021 880.360535,377.745117 
	C881.796143,378.073944 882.324219,378.194885 882.977539,378.600555 
	C882.976257,379.010345 882.849792,379.135468 882.522644,379.436462 
z"/>
<path fill="#FFFFFF" opacity="1.000000" stroke="none" 
	d="
M492.700653,229.549759 
	C493.088226,229.239532 493.666168,229.204788 494.244080,229.170044 
	C494.102722,229.508194 493.961395,229.846375 493.562866,230.267792 
	C493.167450,230.175766 493.029205,230.000504 492.700653,229.549759 
z"/>
<path fill="#FFFFFF" opacity="1.000000" stroke="none" 
	d="
M811.264587,22.746082 
	C811.474121,23.192907 811.552856,23.762550 811.631592,24.332182 
	C811.364868,24.110340 811.098145,23.888510 810.851440,23.390213 
	C810.871399,23.113749 811.133789,22.868898 811.264587,22.746082 
z"/>
<path fill="#FFFFFF" opacity="1.000000" stroke="none" 
	d="
M454.715820,364.693237 
	C455.105713,364.470703 455.643127,364.412964 456.180542,364.355194 
	C456.011627,364.631927 455.842712,364.908691 455.417908,365.184875 
	C455.162018,365.184265 454.863373,364.858032 454.715820,364.693237 
z"/>
<path fill="#FFFFFF" opacity="1.000000" stroke="none" 
	d="
M842.970215,336.012451 
	C842.211304,336.052795 841.640564,335.866791 840.028320,335.341370 
	C841.703552,335.176666 842.294250,335.118622 843.178894,335.174500 
	C843.368042,335.454346 843.263184,335.620239 842.970215,336.012451 
z"/>
<path fill="#FFFFFF" opacity="1.000000" stroke="none" 
	d="
M792.532349,386.326843 
	C792.519775,386.052155 792.737671,385.614807 793.075073,385.489258 
	C793.050659,385.922119 792.906738,386.043152 792.532349,386.326843 
z"/>
<path fill="#FEFEFE" opacity="1.000000" stroke="none" 
	d="
M728.042847,533.933960 
	C727.850586,533.919678 727.637817,533.951233 727.428223,533.936890 
	C727.398010,533.934753 727.382874,533.711731 727.360779,533.591003 
	C727.555542,533.561951 727.750366,533.532898 727.960388,533.762146 
	C727.975647,534.020447 728.023438,533.964966 728.042847,533.933960 
z"/>
<path fill="#FEFEFE" opacity="1.000000" stroke="none" 
	d="
M532.985168,632.939209 
	C533.061523,632.525391 533.389099,632.317383 533.716675,632.109375 
	C533.827637,632.387146 533.938599,632.664978 533.921387,633.211304 
	C533.607727,633.368286 533.422119,633.256714 532.985168,632.939209 
z"/>
<path fill="#FFFFFF" opacity="1.000000" stroke="none" 
	d="
M859.045654,667.944580 
	C858.672546,667.841675 858.458923,667.573242 858.245361,667.304810 
	C858.505127,667.247742 858.764832,667.190613 859.259888,667.277954 
	C859.495117,667.422485 859.205139,667.779114 859.045654,667.944580 
z"/>
<path fill="#FEFEFE" opacity="1.000000" stroke="none" 
	d="
M490.975525,706.015503 
	C490.831604,705.844788 490.655823,705.695862 490.480042,705.546936 
	C490.732574,705.598755 490.985138,705.650635 491.056274,705.887512 
	C490.874908,706.072571 490.943634,706.037292 490.975525,706.015503 
z"/>
<path fill="#FFFFFF" opacity="1.000000" stroke="none" 
	d="
M576.665771,131.550873 
	C576.926636,131.244125 577.347595,131.159058 577.768555,131.073990 
	C577.763977,131.364670 577.759338,131.655365 577.471130,132.064529 
	C577.066956,132.046188 576.946472,131.909378 576.665771,131.550873 
z"/>
<path fill="#FFFFFF" opacity="1.000000" stroke="none" 
	d="
M772.534058,376.313721 
	C772.509827,376.045868 772.739746,375.604187 773.113037,375.451172 
	C773.100403,375.873138 772.944275,376.006500 772.534058,376.313721 
z"/>
<path fill="#FFFFFF" opacity="1.000000" stroke="none" 
	d="
M869.966553,362.033386 
	C869.572754,361.896729 869.315125,361.623932 869.057434,361.351135 
	C869.354736,361.293915 869.651978,361.236694 870.161926,361.402039 
	C870.374573,361.624603 870.102722,361.897247 869.966553,362.033386 
z"/>
<path fill="#FFFFFF" opacity="1.000000" stroke="none" 
	d="
M462.075134,337.065918 
	C462.096863,336.702911 462.280212,336.497620 462.463562,336.292358 
	C462.573608,336.558441 462.683655,336.824493 462.691864,337.297791 
	C462.590027,337.505035 462.236755,337.223633 462.075134,337.065918 
z"/>
<path fill="#FFFFFF" opacity="1.000000" stroke="none" 
	d="
M574.356506,335.432007 
	C574.620117,335.400848 574.711609,335.525513 574.803162,335.650208 
	C574.596924,335.629425 574.390686,335.608673 574.356506,335.432007 
z"/>
<path fill="#FFFFFF" opacity="1.000000" stroke="none" 
	d="
M581.687927,307.593079 
	C581.919434,307.553802 582.339478,307.761292 582.529053,308.131958 
	C582.157898,308.143402 582.017151,307.991608 581.687927,307.593079 
z"/>
<path fill="#FFFFFF" opacity="1.000000" stroke="none" 
	d="
M474.068848,270.053772 
	C474.188873,269.716888 474.482910,269.544373 474.776917,269.371887 
	C474.828125,269.608185 474.879333,269.844482 474.775757,270.296387 
	C474.620911,270.511993 474.242859,270.218201 474.068848,270.053772 
z"/>
<path fill="#FFFFFF" opacity="1.000000" stroke="none" 
	d="
M485.037384,253.023697 
	C485.188232,252.931213 485.519287,253.010834 485.728760,253.298492 
	C485.607208,253.506561 485.217590,253.195786 485.037384,253.023697 
z"/>
<path fill="#FFFFFF" opacity="1.000000" stroke="none" 
	d="
M487.710083,241.566101 
	C487.987427,241.530945 488.467499,241.764130 488.649536,242.170715 
	C488.205292,242.174210 488.059052,242.004318 487.710083,241.566101 
z"/>
<path fill="#FFFFFF" opacity="1.000000" stroke="none" 
	d="
M528.974182,190.923218 
	C528.964111,190.457397 529.208008,190.193970 529.709412,189.941040 
	C529.966919,189.951538 529.930481,189.885086 529.930481,189.885086 
	C530.080933,190.105835 530.265930,190.312302 530.365662,190.553955 
	C530.408997,190.658875 530.276978,190.836227 529.995483,191.234970 
	C529.587036,191.368057 529.407593,191.246826 528.974182,190.923218 
z"/>
<path fill="#FFFFFF" opacity="1.000000" stroke="none" 
	d="
M529.989136,189.982193 
	C530.160156,189.809372 530.308960,189.605911 530.457764,189.402435 
	C530.423767,189.683395 530.389832,189.964355 530.143188,190.065186 
	C529.930481,189.885086 529.966919,189.951538 529.989136,189.982193 
z"/>
<path fill="#FFFFFF" opacity="1.000000" stroke="none" 
	d="
M821.965820,172.963531 
	C822.080139,172.572479 822.356079,172.340881 822.632080,172.109283 
	C822.689819,172.395187 822.747498,172.681091 822.631104,173.201141 
	C822.457031,173.435303 822.127441,173.122955 821.965820,172.963531 
z"/>
<path fill="#020403" opacity="1.000000" stroke="none" 
	d="
M710.017151,530.999878 
	C710.437317,531.371643 710.643555,531.965881 710.849854,532.560181 
	C710.492615,532.417664 710.135437,532.275146 709.587891,531.910156 
	C709.532837,531.532532 709.668091,531.377441 710.017151,530.999878 
z"/>
<path fill="#020403" opacity="1.000000" stroke="none" 
	d="
M681.664673,514.857117 
	C681.882263,514.536804 682.121948,514.176514 682.361633,513.816162 
	C682.336975,514.118713 682.312378,514.421204 681.947876,514.776367 
	C681.608032,514.829041 681.686707,514.817078 681.664673,514.857117 
z"/>
</g>
</svg>