<svg version="1.1" id="Layer_1" xmlns="http://www.w3.org/2000/svg" xmlns:xlink="http://www.w3.org/1999/xlink" x="0px" y="0px"
	 width="100%" viewBox="0 0 2816 1536" enable-background="new 0 0 2816 1536" xml:space="preserve">
<g data-loadout-mirror="true" transform="translate(2816 0) scale(-1 1)">
<path fill="#000101" opacity="1.000000" stroke="none" 
	d="
M2420.000000,1538.000000 
	C2403.958252,1538.000000 2387.916260,1538.000000 2370.414062,1537.482910 
	C2367.511719,1534.288818 2366.069580,1531.611816 2364.578857,1528.845093 
	C2357.729980,1529.167114 2350.768311,1529.818970 2343.814941,1529.741333 
	C2334.569580,1529.638306 2331.925537,1526.442383 2335.240967,1517.889648 
	C2339.431396,1507.080566 2344.281006,1496.421265 2349.957031,1486.321533 
	C2356.552734,1474.584717 2366.937744,1465.358765 2370.887939,1451.600952 
	C2372.786865,1444.986938 2378.746582,1439.334961 2383.491211,1433.780396 
	C2396.955566,1418.018066 2402.806152,1399.610962 2401.989258,1379.287231 
	C2401.334961,1363.013672 2399.539307,1346.769043 2397.794434,1330.560669 
	C2395.299805,1307.386108 2392.153564,1284.320435 2386.174561,1261.695435 
	C2378.336670,1232.035400 2363.629150,1206.087158 2342.722656,1184.062744 
	C2328.278076,1168.846191 2311.146484,1156.559448 2292.830322,1145.983521 
	C2261.625488,1127.965332 2231.862061,1107.838989 2205.043457,1083.598389 
	C2200.482178,1079.475586 2195.660400,1075.640991 2189.336182,1070.303955 
	C2190.710205,1090.767212 2193.954590,1108.323242 2199.227295,1125.504761 
	C2204.713379,1143.382202 2202.472412,1160.332031 2193.660889,1176.625732 
	C2185.744629,1191.263794 2177.379639,1205.686890 2170.111328,1220.641602 
	C2156.147949,1249.371094 2142.540039,1278.282104 2129.330078,1307.365601 
	C2120.534424,1326.730103 2111.727295,1346.189331 2104.716797,1366.232544 
	C2099.250977,1381.858887 2096.408447,1398.418945 2092.651123,1414.622437 
	C2089.145264,1429.740601 2080.603760,1441.904907 2070.575684,1453.212646 
	C2068.701660,1455.325806 2066.066406,1456.763672 2063.249023,1458.921875 
	C2054.758057,1449.680542 2058.301514,1437.095703 2052.299072,1427.625610 
	C2045.870239,1429.766724 2041.376343,1433.657593 2038.601196,1439.084595 
	C2034.676392,1446.759888 2030.348877,1454.458618 2028.007568,1462.664917 
	C2023.648193,1477.945312 2013.557617,1485.828369 1998.798462,1489.396362 
	C1967.343872,1497.000366 1935.435913,1497.476685 1903.412476,1495.519287 
	C1893.061890,1494.886475 1892.543457,1493.795410 1891.130615,1484.079224 
	C1886.008545,1483.273926 1880.881836,1482.468262 1874.099854,1481.402466 
	C1876.101929,1476.226318 1876.941772,1471.942749 1879.208862,1468.638672 
	C1883.716431,1462.069946 1888.801392,1455.859985 1894.025513,1449.828857 
	C1902.741089,1439.766724 1912.580811,1430.563599 1920.374146,1419.854126 
	C1926.384888,1411.594360 1932.946289,1404.451294 1941.260498,1398.736694 
	C1947.024292,1394.774780 1952.718018,1390.709595 1958.515137,1386.797363 
	C1972.329102,1377.475098 1983.340332,1365.382324 1991.225708,1350.907349 
	C2007.958008,1320.192261 2023.101318,1288.705444 2033.061646,1255.007812 
	C2037.528564,1239.895386 2040.548828,1224.444702 2038.738647,1208.691284 
	C2035.264648,1178.458740 2025.252808,1150.951904 2001.893433,1130.036499 
	C1971.396851,1102.730713 1948.927002,1069.559448 1930.084351,1033.612793 
	C1924.831177,1023.591003 1919.280029,1013.721741 1913.691650,1003.881287 
	C1911.958984,1000.830261 1909.652710,998.104980 1907.836792,995.550903 
	C1905.703247,996.074219 1904.693726,996.198181 1903.780640,996.563599 
	C1856.828613,1015.352234 1809.640869,1033.582397 1763.040161,1053.206421 
	C1738.802246,1063.413208 1715.431763,1075.827759 1697.953003,1096.617065 
	C1697.650635,1096.976685 1696.790161,1096.867310 1695.541382,1097.095337 
	C1695.036743,1091.440186 1694.485229,1085.845703 1694.047119,1080.242432 
	C1692.670654,1062.639526 1680.373901,1040.707886 1654.441406,1035.986206 
	C1635.456055,1032.529419 1616.609619,1028.314575 1597.676880,1024.560547 
	C1592.706299,1023.574951 1587.645386,1023.045898 1580.388916,1021.977966 
	C1585.629639,1029.772095 1589.499268,1035.526855 1593.929688,1042.115845 
	C1591.363770,1041.717285 1590.046387,1041.614624 1588.781250,1041.301392 
	C1556.160767,1033.223999 1523.639526,1024.720825 1490.905884,1017.132996 
	C1451.258179,1007.942505 1411.369263,1000.485718 1370.239136,1003.495544 
	C1362.433350,1004.066772 1356.244141,1006.098022 1350.620117,1011.431396 
	C1332.880493,1028.254395 1320.963257,1048.910645 1310.935913,1070.833008 
	C1310.067017,1072.732544 1310.271362,1075.123169 1309.805054,1078.552246 
	C1315.140137,1077.059448 1319.324585,1075.888550 1324.478882,1074.446289 
	C1314.385498,1104.528564 1295.941040,1129.065308 1280.298218,1156.446411 
	C1286.397705,1157.855835 1291.129761,1158.949341 1297.387817,1160.395386 
	C1292.242065,1166.246460 1287.742798,1171.414917 1283.184937,1176.531250 
	C1277.648560,1182.746216 1271.690918,1188.626709 1266.577393,1195.168945 
	C1256.599731,1207.934204 1256.227295,1220.255737 1264.670776,1234.027344 
	C1265.969727,1236.145996 1267.175781,1238.321655 1268.532593,1240.656494 
	C1254.899292,1244.568359 1247.872314,1250.339233 1241.630859,1262.311523 
	C1230.113892,1284.403931 1227.402222,1307.939087 1231.037598,1332.225464 
	C1233.188110,1346.591919 1236.486450,1360.786621 1238.919312,1373.266724 
	C1236.730347,1376.438110 1235.069092,1378.109375 1234.365601,1380.116455 
	C1233.877808,1381.508057 1234.615356,1383.382324 1234.965088,1385.006470 
	C1242.135498,1418.308105 1235.966064,1450.554321 1227.148560,1482.560059 
	C1225.911133,1487.052002 1224.197754,1492.430176 1218.999512,1492.991211 
	C1213.437744,1493.591431 1211.588989,1487.977417 1209.765381,1483.871704 
	C1206.258911,1475.976807 1203.395386,1467.798828 1200.092163,1459.809692 
	C1199.062256,1457.318970 1197.475220,1455.058472 1195.547241,1451.634033 
	C1185.974854,1465.298462 1179.706055,1478.330200 1179.655518,1493.555420 
	C1179.628418,1501.718506 1176.839111,1508.068604 1171.196411,1514.068604 
	C1162.654175,1523.152100 1152.666016,1528.989502 1140.632690,1531.832886 
	C1133.027466,1533.630127 1125.540161,1535.927246 1118.000000,1538.000000 
	C1091.291504,1538.000000 1064.583130,1538.000000 1037.052490,1537.099609 
	C1035.961914,1533.400757 1035.693604,1530.602173 1035.451050,1528.073242 
	C1028.665894,1526.902466 1021.922119,1529.816162 1016.266296,1524.417358 
	C1016.071106,1515.415894 1020.187256,1507.714233 1025.692505,1501.114380 
	C1036.557007,1488.089355 1048.158936,1475.680908 1059.364258,1462.937012 
	C1061.493164,1460.515747 1064.411255,1457.910522 1064.853760,1455.062134 
	C1065.863770,1448.562866 1069.685181,1444.262085 1073.924683,1439.984131 
	C1079.320679,1434.539185 1084.600708,1428.971313 1090.158203,1423.696045 
	C1102.930054,1411.572388 1110.454834,1396.589233 1114.078247,1379.610474 
	C1117.133911,1365.291260 1119.328979,1350.786987 1122.447998,1336.483032 
	C1126.791260,1316.564819 1126.654053,1296.867188 1121.454468,1277.131836 
	C1115.096802,1253.000610 1108.974609,1228.807251 1102.733887,1204.645142 
	C1102.296753,1202.952637 1101.722534,1201.295532 1101.151001,1199.421631 
	C1099.730469,1200.248291 1098.919922,1200.429565 1098.679321,1200.901245 
	C1081.338501,1234.898071 1071.925049,1271.049072 1069.816772,1309.082886 
	C1069.097900,1322.051025 1068.678955,1335.075684 1069.003174,1348.052490 
	C1069.517700,1368.635742 1063.665405,1388.262207 1060.714600,1408.309692 
	C1059.222534,1418.446411 1056.274414,1428.411621 1053.377930,1438.276245 
	C1052.350464,1441.775513 1049.526733,1444.747314 1047.372314,1448.201782 
	C1031.905762,1440.775024 1031.198364,1424.467163 1022.326599,1411.287476 
	C1019.600525,1417.377075 1017.486389,1421.402832 1015.960205,1425.640259 
	C1011.453125,1438.154419 1007.113953,1450.730347 1002.832275,1463.323853 
	C998.917786,1474.837524 990.805054,1481.432251 979.101013,1483.745361 
	C966.052673,1486.324463 953.055908,1489.604858 939.870422,1490.950073 
	C917.988892,1493.182251 895.970459,1493.804321 874.074829,1490.451660 
	C871.185669,1490.009155 867.703613,1489.509033 865.805298,1487.678101 
	C864.058228,1485.993408 864.075745,1482.479004 863.406738,1480.094360 
	C858.148560,1478.945435 853.132080,1477.849487 846.428284,1476.384766 
	C849.905457,1470.394775 851.881226,1465.343750 855.242493,1461.506470 
	C865.768066,1449.490112 876.688660,1437.810059 887.709900,1426.241455 
	C894.281128,1419.343872 902.318481,1413.911133 905.256287,1403.878052 
	C906.376770,1400.051270 910.156799,1396.813354 913.200806,1393.785645 
	C917.444763,1389.564453 921.802490,1385.312378 926.696838,1381.917358 
	C941.747986,1371.476807 949.758972,1356.432373 955.119812,1339.637695 
	C959.368042,1326.328491 963.396301,1312.940430 967.147522,1299.483032 
	C973.471191,1276.796875 976.028748,1253.877563 972.354797,1230.296753 
	C969.796326,1213.875854 967.784851,1197.268433 967.125000,1180.680786 
	C966.432678,1163.277954 964.909302,1146.109619 960.477539,1129.294189 
	C954.033508,1104.843750 947.416138,1080.436523 940.589417,1056.090332 
	C934.575989,1034.644653 928.002869,1013.355774 922.019104,991.902161 
	C919.234924,981.920105 914.180664,975.382812 902.924438,975.407654 
	C900.316833,975.413391 897.708008,974.421936 895.098083,973.897522 
	C868.012512,968.454834 840.938904,962.951721 813.837158,957.590393 
	C788.045105,952.488220 764.497498,941.428894 741.523621,929.377991 
	C713.763123,914.816101 684.526917,905.387512 653.675293,900.801270 
	C647.515625,899.885681 640.795471,899.556580 634.849854,901.033813 
	C621.670410,904.308533 608.809387,908.872681 595.841553,912.983704 
	C593.515869,913.720947 591.300598,914.806519 588.339661,916.014832 
	C589.921753,909.176514 591.228455,903.528442 592.715149,897.102417 
	C578.537720,896.385864 567.420654,901.255371 557.105164,908.076965 
	C543.689880,916.948486 531.777954,927.577942 521.885742,940.364685 
	C519.936829,942.883972 517.736450,945.208740 515.310059,948.019348 
	C512.871399,940.530579 510.764069,934.059143 508.404083,926.812012 
	C497.687469,933.794312 492.700439,944.091187 485.898315,953.044800 
	C472.673187,934.983276 463.856079,927.865540 453.433014,926.760315 
	C454.166656,931.929138 454.881989,936.969177 455.846191,943.762512 
	C449.964447,940.466370 445.666443,938.080566 441.390106,935.656555 
	C432.415192,930.569214 423.600037,925.249573 413.138092,923.464600 
	C388.602417,919.278687 364.714447,920.161133 341.947144,931.503662 
	C337.780304,933.579651 333.479065,935.397400 329.186188,937.206909 
	C306.462952,946.785156 282.967682,949.957397 258.796082,944.423035 
	C239.063812,939.905212 219.311234,939.305054 199.226837,941.066223 
	C182.989243,942.490051 167.332092,940.031433 153.556274,930.194153 
	C151.171768,928.491394 148.290833,927.483826 145.934357,926.303040 
	C144.844345,926.844177 144.060532,926.984497 143.692383,927.452087 
	C131.544403,942.883179 102.946030,942.559570 88.182945,929.692444 
	C78.716011,921.441284 69.487495,912.411926 62.224606,902.250244 
	C50.139519,885.341675 36.731621,869.793518 21.861645,855.387695 
	C14.907451,848.650574 8.046533,841.845947 4.997040,832.211060 
	C4.694045,831.253723 3.031540,830.726746 2.000003,830.000000 
	C2.000000,825.916687 2.000000,821.833313 2.642362,816.615845 
	C8.580086,807.811157 16.186634,805.148987 25.013618,806.320618 
	C37.900616,808.031189 48.422482,803.225159 58.180637,795.566345 
	C79.348946,778.951965 97.412292,759.374634 111.713478,736.683228 
	C128.437866,710.146790 148.558334,686.979004 173.876373,668.388367 
	C188.640045,657.547668 203.250351,646.496216 218.092712,635.765076 
	C244.849899,616.419556 271.130096,596.519287 293.755402,572.270508 
	C312.482849,552.199341 329.632690,530.867920 339.835510,505.112427 
	C345.569794,490.637054 349.063354,475.288605 354.007050,460.480591 
	C357.465424,450.121552 360.660736,439.464996 365.819489,429.941254 
	C371.167389,420.068298 378.207245,410.950348 385.487091,402.329773 
	C393.076965,393.342041 397.699585,383.246246 399.684418,371.969238 
	C402.163849,357.882111 404.118500,343.692841 405.930786,329.500549 
	C408.242126,311.399933 410.221008,293.259613 417.598206,272.893341 
	C419.088806,276.015656 419.527679,277.808105 420.624725,278.989227 
	C421.740509,280.190552 423.504669,280.789612 425.337097,281.857697 
	C426.152618,265.966461 428.213928,262.331238 446.156616,244.634354 
	C444.600372,212.614334 447.803467,180.927063 461.298065,149.211166 
	C462.756805,154.173920 463.753845,157.565979 465.151276,162.320129 
	C470.015106,146.264267 477.921539,133.323990 488.613983,122.067558 
	C501.231445,108.784607 516.856812,97.990700 526.356323,96.134605 
	C527.338318,102.784203 528.320679,109.436295 529.445984,117.056572 
	C534.229797,111.984375 537.894348,108.098969 542.479126,103.237831 
	C547.798035,124.227814 553.447449,143.102859 559.722290,161.823273 
	C571.446472,156.867615 581.917297,152.353546 593.270081,150.395905 
	C591.950623,158.665085 590.762817,166.109360 589.091187,173.765274 
	C588.706848,174.844681 588.806335,175.712433 588.905823,176.580185 
	C589.295593,175.742676 589.685364,174.905167 590.774841,173.984741 
	C599.788940,160.304443 607.867493,146.555267 616.490173,133.156281 
	C623.771362,121.841949 633.364807,112.719398 644.768005,105.428108 
	C661.570923,94.684120 678.184875,83.644653 694.914124,72.784752 
	C696.803711,71.558136 698.918213,70.678093 701.183899,69.505028 
	C700.798401,74.989906 700.449219,79.958145 700.060852,85.483398 
	C716.966553,81.472275 732.130371,75.594017 748.770508,73.903442 
	C749.695740,89.976906 754.899536,103.760796 761.694885,117.884880 
	C779.134705,110.931717 796.057312,104.131638 813.021545,97.436928 
	C828.440613,91.351959 843.904968,85.381592 859.587708,79.594330 
	C859.826050,79.827965 860.300293,80.297752 860.237854,80.986916 
	C855.278931,89.615021 850.382385,97.553955 844.983643,105.819260 
	C843.973267,109.105141 845.416321,108.414902 847.687134,107.324661 
	C859.015381,100.983253 869.646240,94.806458 880.271973,88.620865 
	C895.206238,79.927116 910.078369,71.123947 925.109619,62.601257 
	C928.890503,60.457554 932.725647,57.668201 937.840942,58.253891 
	C933.682617,69.285812 927.312256,78.895859 925.609558,90.926964 
	C939.485596,82.516342 951.939575,74.257469 965.036804,67.190781 
	C986.197449,55.773403 997.386658,52.261047 1006.051331,52.765209 
	C999.553833,62.182137 992.653503,71.364738 990.204346,84.065781 
	C1006.010925,79.611969 1020.140869,74.080933 1033.665527,67.146042 
	C1078.277344,44.270935 1122.335571,20.224318 1170.776001,3.968573 
	C1173.006592,4.117598 1174.457031,4.228430 1177.007935,4.423371 
	C1171.626343,13.962485 1164.091797,21.291605 1162.090576,32.469063 
	C1187.456543,19.294500 1212.326416,8.238363 1239.550293,3.537380 
	C1240.429199,3.385613 1241.186157,2.528386 1242.000000,2.000011 
	C1252.044189,2.000000 1262.088379,2.000000 1273.774170,2.482101 
	C1270.545410,7.779331 1265.675171,12.594460 1260.514038,17.697002 
	C1261.829834,17.879333 1262.551514,18.201632 1263.119019,18.025953 
	C1286.965088,10.645092 1311.587402,7.423733 1336.220947,4.217889 
	C1337.554199,4.044368 1338.743652,2.764753 1340.000000,2.000009 
	C1342.133423,2.000000 1344.266724,2.000000 1347.595337,2.697151 
	C1353.860352,2.929535 1358.930176,2.464768 1364.000000,2.000000 
	C1371.385864,2.000000 1378.771606,2.000000 1386.835205,2.661250 
	C1384.658691,5.327445 1381.999756,7.721400 1378.915649,9.267646 
	C1367.633789,14.923968 1358.811279,22.310318 1355.415283,29.114538 
	C1372.609497,25.703318 1390.122070,21.831362 1407.782837,18.832064 
	C1427.144409,15.543941 1455.155396,16.910288 1462.067017,21.029554 
	C1449.982910,26.924509 1437.890625,32.375786 1428.270142,44.349384 
	C1448.148315,41.237747 1465.869141,38.346630 1483.628784,35.716984 
	C1501.141846,33.123848 1518.742432,31.991869 1536.467896,32.914330 
	C1528.212402,38.837616 1518.669678,42.487885 1512.832642,52.525757 
	C1516.427124,53.058468 1519.277466,53.722866 1522.153687,53.866600 
	C1537.130127,54.614967 1552.112427,55.245148 1567.093872,55.889351 
	C1588.425903,56.806633 1609.650635,58.573586 1630.369873,64.133301 
	C1633.225342,64.899536 1635.936523,66.203445 1638.714600,67.258408 
	C1621.310425,73.261642 1604.448608,78.014336 1589.314941,87.240768 
	C1629.929443,87.559540 1670.406006,86.142174 1711.009888,101.104156 
	C1699.783813,105.185486 1689.962402,107.914886 1680.807251,116.124199 
	C1710.993774,116.105858 1739.430542,114.136230 1768.386597,122.164970 
	C1762.954468,125.749573 1757.019409,126.745964 1755.911255,134.597595 
	C1768.566528,137.103821 1780.822021,140.119064 1793.255249,141.879578 
	C1826.563477,146.595917 1860.004028,150.390121 1893.288574,155.257797 
	C1942.137207,162.401642 1991.051147,167.899872 2040.549561,167.380951 
	C2054.470947,167.235016 2068.432861,169.391403 2082.342529,170.819473 
	C2085.688965,171.163025 2088.901123,172.813583 2093.888184,174.412277 
	C2087.422852,177.069412 2082.859131,178.944931 2078.295410,180.820465 
	C2087.616455,183.694885 2096.492920,184.671432 2105.331055,185.920212 
	C2128.243164,189.157547 2149.991699,196.384308 2171.193359,205.424362 
	C2173.836914,206.551544 2177.208984,207.228317 2175.422119,211.663712 
	C2169.489746,212.860870 2163.529053,214.063751 2157.568359,215.266617 
	C2186.341309,228.614075 2214.789795,240.937439 2241.328369,258.926239 
	C2234.934082,260.134155 2229.760986,261.111359 2222.890137,262.409332 
	C2227.036133,265.970917 2229.349121,268.372711 2232.046875,270.208496 
	C2251.314941,283.319153 2270.664795,296.308929 2289.981934,309.347443 
	C2314.267822,325.739990 2339.022705,341.489624 2362.695312,358.725281 
	C2386.145752,375.799377 2407.874512,395.046661 2426.850586,417.193542 
	C2451.744629,446.247437 2463.911377,481.586609 2475.438721,517.033081 
	C2480.664795,533.103516 2483.822266,549.936035 2486.829346,566.619080 
	C2492.159180,596.187195 2495.406006,625.961548 2492.098145,656.102234 
	C2490.678955,669.034668 2488.229492,678.914246 2484.413086,684.476440 
	C2474.555176,633.808533 2463.792480,605.784058 2451.286865,597.098450 
	C2452.005615,653.269409 2456.873779,710.036438 2441.120361,765.891052 
	C2440.463867,761.893372 2439.807373,757.895691 2439.150879,753.898010 
	C2429.927490,798.431885 2428.156982,843.616516 2427.522949,888.908691 
	C2426.794434,889.165588 2426.066162,889.422485 2425.337646,889.679382 
	C2422.200928,886.184143 2419.064209,882.688843 2414.554443,877.663635 
	C2413.161133,890.103577 2411.691895,900.514465 2410.882080,910.976379 
	C2408.750244,938.516357 2411.109863,965.583923 2420.897705,991.638428 
	C2431.943604,1021.041077 2449.840820,1045.699951 2474.726807,1064.724365 
	C2494.945801,1080.180908 2502.840820,1099.958008 2500.899902,1124.867432 
	C2499.476562,1143.129639 2498.954834,1161.478027 2498.537354,1179.799561 
	C2497.647705,1218.851685 2501.098877,1257.685791 2504.745850,1296.517090 
	C2507.217285,1322.829834 2512.061279,1348.460327 2521.514893,1373.299927 
	C2530.697021,1397.427612 2528.362793,1422.468994 2524.920410,1447.368286 
	C2524.419678,1450.990479 2523.745117,1454.752441 2518.802490,1455.593506 
	C2508.742432,1449.794800 2507.376709,1435.659912 2495.497070,1429.747925 
	C2494.083252,1433.678711 2492.444580,1436.643066 2491.986572,1439.779907 
	C2489.825439,1454.582886 2486.687500,1469.408691 2486.406494,1484.273682 
	C2486.136475,1498.562988 2480.215332,1508.208740 2469.247803,1516.058228 
	C2455.500244,1525.897461 2440.487793,1532.670166 2423.873779,1535.914795 
	C2422.499268,1536.183105 2421.287354,1537.285278 2420.000000,1538.000000 
z"/>
<path fill="#FEFEFE" opacity="1.000000" stroke="none" 
	d="
M2420.937256,1538.000000 
	C2421.287354,1537.285278 2422.499268,1536.183105 2423.873779,1535.914795 
	C2440.487793,1532.670166 2455.500244,1525.897461 2469.247803,1516.058228 
	C2480.215332,1508.208740 2486.136475,1498.562988 2486.406494,1484.273682 
	C2486.687500,1469.408691 2489.825439,1454.582886 2491.986572,1439.779907 
	C2492.444580,1436.643066 2494.083252,1433.678711 2495.497070,1429.747925 
	C2507.376709,1435.659912 2508.742432,1449.794800 2518.802490,1455.593506 
	C2523.745117,1454.752441 2524.419678,1450.990479 2524.920410,1447.368286 
	C2528.362793,1422.468994 2530.697021,1397.427612 2521.514893,1373.299927 
	C2512.061279,1348.460327 2507.217285,1322.829834 2504.745850,1296.517090 
	C2501.098877,1257.685791 2497.647705,1218.851685 2498.537354,1179.799561 
	C2498.954834,1161.478027 2499.476562,1143.129639 2500.899902,1124.867432 
	C2502.840820,1099.958008 2494.945801,1080.180908 2474.726807,1064.724365 
	C2449.840820,1045.699951 2431.943604,1021.041077 2420.897705,991.638428 
	C2411.109863,965.583923 2408.750244,938.516357 2410.882080,910.976379 
	C2411.691895,900.514465 2413.161133,890.103577 2414.554443,877.663635 
	C2419.064209,882.688843 2422.200928,886.184143 2425.337646,889.679382 
	C2426.066162,889.422485 2426.794434,889.165588 2427.522949,888.908691 
	C2428.156982,843.616516 2429.927490,798.431885 2439.150879,753.898010 
	C2439.807373,757.895691 2440.463867,761.893372 2441.120361,765.891052 
	C2456.873779,710.036438 2452.005615,653.269409 2451.286865,597.098450 
	C2463.792480,605.784058 2474.555176,633.808533 2484.413086,684.476440 
	C2488.229492,678.914246 2490.678955,669.034668 2492.098145,656.102234 
	C2495.406006,625.961548 2492.159180,596.187195 2486.829346,566.619080 
	C2483.822266,549.936035 2480.664795,533.103516 2475.438721,517.033081 
	C2463.911377,481.586609 2451.744629,446.247437 2426.850586,417.193542 
	C2407.874512,395.046661 2386.145752,375.799377 2362.695312,358.725281 
	C2339.022705,341.489624 2314.267822,325.739990 2289.981934,309.347443 
	C2270.664795,296.308929 2251.314941,283.319153 2232.046875,270.208496 
	C2229.349121,268.372711 2227.036133,265.970917 2222.890137,262.409332 
	C2229.760986,261.111359 2234.934082,260.134155 2241.328369,258.926239 
	C2214.789795,240.937439 2186.341309,228.614075 2157.568359,215.266617 
	C2163.529053,214.063751 2169.489746,212.860870 2175.422119,211.663712 
	C2177.208984,207.228317 2173.836914,206.551544 2171.193359,205.424362 
	C2149.991699,196.384308 2128.243164,189.157547 2105.331055,185.920212 
	C2096.492920,184.671432 2087.616455,183.694885 2078.295410,180.820465 
	C2082.859131,178.944931 2087.422852,177.069412 2093.888184,174.412277 
	C2088.901123,172.813583 2085.688965,171.163025 2082.342529,170.819473 
	C2068.432861,169.391403 2054.470947,167.235016 2040.549561,167.380951 
	C1991.051147,167.899872 1942.137207,162.401642 1893.288574,155.257797 
	C1860.004028,150.390121 1826.563477,146.595917 1793.255249,141.879578 
	C1780.822021,140.119064 1768.566528,137.103821 1755.911255,134.597595 
	C1757.019409,126.745964 1762.954468,125.749573 1768.386597,122.164970 
	C1739.430542,114.136230 1710.993774,116.105858 1680.807251,116.124199 
	C1689.962402,107.914886 1699.783813,105.185486 1711.009888,101.104156 
	C1670.406006,86.142174 1629.929443,87.559540 1589.314941,87.240768 
	C1604.448608,78.014336 1621.310425,73.261642 1638.714600,67.258408 
	C1635.936523,66.203445 1633.225342,64.899536 1630.369873,64.133301 
	C1609.650635,58.573586 1588.425903,56.806633 1567.093872,55.889351 
	C1552.112427,55.245148 1537.130127,54.614967 1522.153687,53.866600 
	C1519.277466,53.722866 1516.427124,53.058468 1512.832642,52.525757 
	C1518.669678,42.487885 1528.212402,38.837616 1536.467896,32.914330 
	C1518.742432,31.991869 1501.141846,33.123848 1483.628784,35.716984 
	C1465.869141,38.346630 1448.148315,41.237747 1428.270142,44.349384 
	C1437.890625,32.375786 1449.982910,26.924509 1462.067017,21.029554 
	C1455.155396,16.910288 1427.144409,15.543941 1407.782837,18.832064 
	C1390.122070,21.831362 1372.609497,25.703318 1355.415283,29.114538 
	C1358.811279,22.310318 1367.633789,14.923968 1378.915649,9.267646 
	C1381.999756,7.721400 1384.658691,5.327445 1387.756348,2.661250 
	C1864.542725,2.000000 2341.085449,2.000000 2817.813965,2.000000 
	C2817.813965,514.000000 2817.813965,1026.000000 2817.813965,1538.000000 
	C2685.805908,1538.000000 2553.840088,1538.000000 2420.937256,1538.000000 
z"/>
<path fill="#FEFEFE" opacity="1.000000" stroke="none" 
	d="
M2.000003,830.937317 
	C3.031540,830.726746 4.694045,831.253723 4.997040,832.211060 
	C8.046533,841.845947 14.907451,848.650574 21.861645,855.387695 
	C36.731621,869.793518 50.139519,885.341675 62.224606,902.250244 
	C69.487495,912.411926 78.716011,921.441284 88.182945,929.692444 
	C102.946030,942.559570 131.544403,942.883179 143.692383,927.452087 
	C144.060532,926.984497 144.844345,926.844177 145.934357,926.303040 
	C148.290833,927.483826 151.171768,928.491394 153.556274,930.194153 
	C167.332092,940.031433 182.989243,942.490051 199.226837,941.066223 
	C219.311234,939.305054 239.063812,939.905212 258.796082,944.423035 
	C282.967682,949.957397 306.462952,946.785156 329.186188,937.206909 
	C333.479065,935.397400 337.780304,933.579651 341.947144,931.503662 
	C364.714447,920.161133 388.602417,919.278687 413.138092,923.464600 
	C423.600037,925.249573 432.415192,930.569214 441.390106,935.656555 
	C445.666443,938.080566 449.964447,940.466370 455.846191,943.762512 
	C454.881989,936.969177 454.166656,931.929138 453.433014,926.760315 
	C463.856079,927.865540 472.673187,934.983276 485.898315,953.044800 
	C492.700439,944.091187 497.687469,933.794312 508.404083,926.812012 
	C510.764069,934.059143 512.871399,940.530579 515.310059,948.019348 
	C517.736450,945.208740 519.936829,942.883972 521.885742,940.364685 
	C531.777954,927.577942 543.689880,916.948486 557.105164,908.076965 
	C567.420654,901.255371 578.537720,896.385864 592.715149,897.102417 
	C591.228455,903.528442 589.921753,909.176514 588.339661,916.014832 
	C591.300598,914.806519 593.515869,913.720947 595.841553,912.983704 
	C608.809387,908.872681 621.670410,904.308533 634.849854,901.033813 
	C640.795471,899.556580 647.515625,899.885681 653.675293,900.801270 
	C684.526917,905.387512 713.763123,914.816101 741.523621,929.377991 
	C764.497498,941.428894 788.045105,952.488220 813.837158,957.590393 
	C840.938904,962.951721 868.012512,968.454834 895.098083,973.897522 
	C897.708008,974.421936 900.316833,975.413391 902.924438,975.407654 
	C914.180664,975.382812 919.234924,981.920105 922.019104,991.902161 
	C928.002869,1013.355774 934.575989,1034.644653 940.589417,1056.090332 
	C947.416138,1080.436523 954.033508,1104.843750 960.477539,1129.294189 
	C964.909302,1146.109619 966.432678,1163.277954 967.125000,1180.680786 
	C967.784851,1197.268433 969.796326,1213.875854 972.354797,1230.296753 
	C976.028748,1253.877563 973.471191,1276.796875 967.147522,1299.483032 
	C963.396301,1312.940430 959.368042,1326.328491 955.119812,1339.637695 
	C949.758972,1356.432373 941.747986,1371.476807 926.696838,1381.917358 
	C921.802490,1385.312378 917.444763,1389.564453 913.200806,1393.785645 
	C910.156799,1396.813354 906.376770,1400.051270 905.256287,1403.878052 
	C902.318481,1413.911133 894.281128,1419.343872 887.709900,1426.241455 
	C876.688660,1437.810059 865.768066,1449.490112 855.242493,1461.506470 
	C851.881226,1465.343750 849.905457,1470.394775 846.428284,1476.384766 
	C853.132080,1477.849487 858.148560,1478.945435 863.406738,1480.094360 
	C864.075745,1482.479004 864.058228,1485.993408 865.805298,1487.678101 
	C867.703613,1489.509033 871.185669,1490.009155 874.074829,1490.451660 
	C895.970459,1493.804321 917.988892,1493.182251 939.870422,1490.950073 
	C953.055908,1489.604858 966.052673,1486.324463 979.101013,1483.745361 
	C990.805054,1481.432251 998.917786,1474.837524 1002.832275,1463.323853 
	C1007.113953,1450.730347 1011.453125,1438.154419 1015.960205,1425.640259 
	C1017.486389,1421.402832 1019.600525,1417.377075 1022.326599,1411.287476 
	C1031.198364,1424.467163 1031.905762,1440.775024 1047.372314,1448.201782 
	C1049.526733,1444.747314 1052.350464,1441.775513 1053.377930,1438.276245 
	C1056.274414,1428.411621 1059.222534,1418.446411 1060.714600,1408.309692 
	C1063.665405,1388.262207 1069.517700,1368.635742 1069.003174,1348.052490 
	C1068.678955,1335.075684 1069.097900,1322.051025 1069.816772,1309.082886 
	C1071.925049,1271.049072 1081.338501,1234.898071 1098.679321,1200.901245 
	C1098.919922,1200.429565 1099.730469,1200.248291 1101.151001,1199.421631 
	C1101.722534,1201.295532 1102.296753,1202.952637 1102.733887,1204.645142 
	C1108.974609,1228.807251 1115.096802,1253.000610 1121.454468,1277.131836 
	C1126.654053,1296.867188 1126.791260,1316.564819 1122.447998,1336.483032 
	C1119.328979,1350.786987 1117.133911,1365.291260 1114.078247,1379.610474 
	C1110.454834,1396.589233 1102.930054,1411.572388 1090.158203,1423.696045 
	C1084.600708,1428.971313 1079.320679,1434.539185 1073.924683,1439.984131 
	C1069.685181,1444.262085 1065.863770,1448.562866 1064.853760,1455.062134 
	C1064.411255,1457.910522 1061.493164,1460.515747 1059.364258,1462.937012 
	C1048.158936,1475.680908 1036.557007,1488.089355 1025.692505,1501.114380 
	C1020.187256,1507.714233 1016.071106,1515.415894 1016.266296,1524.417358 
	C1021.922119,1529.816162 1028.665894,1526.902466 1035.451050,1528.073242 
	C1035.693604,1530.602173 1035.961914,1533.400757 1036.115234,1537.099609 
	C691.506470,1538.000000 347.012909,1538.000000 2.000000,1538.000000 
	C2.000000,1302.625122 2.000000,1067.249878 2.000003,830.937317 
z"/>
<path fill="#FEFEFE" opacity="1.000000" stroke="none" 
	d="
M1118.937256,1538.000000 
	C1125.540161,1535.927246 1133.027466,1533.630127 1140.632690,1531.832886 
	C1152.666016,1528.989502 1162.654175,1523.152100 1171.196411,1514.068604 
	C1176.839111,1508.068604 1179.628418,1501.718506 1179.655518,1493.555420 
	C1179.706055,1478.330200 1185.974854,1465.298462 1195.547241,1451.634033 
	C1197.475220,1455.058472 1199.062256,1457.318970 1200.092163,1459.809692 
	C1203.395386,1467.798828 1206.258911,1475.976807 1209.765381,1483.871704 
	C1211.588989,1487.977417 1213.437744,1493.591431 1218.999512,1492.991211 
	C1224.197754,1492.430176 1225.911133,1487.052002 1227.148560,1482.560059 
	C1235.966064,1450.554321 1242.135498,1418.308105 1234.965088,1385.006470 
	C1234.615356,1383.382324 1233.877808,1381.508057 1234.365601,1380.116455 
	C1235.069092,1378.109375 1236.730347,1376.438110 1238.919312,1373.266724 
	C1236.486450,1360.786621 1233.188110,1346.591919 1231.037598,1332.225464 
	C1227.402222,1307.939087 1230.113892,1284.403931 1241.630859,1262.311523 
	C1247.872314,1250.339233 1254.899292,1244.568359 1268.532593,1240.656494 
	C1267.175781,1238.321655 1265.969727,1236.145996 1264.670776,1234.027344 
	C1256.227295,1220.255737 1256.599731,1207.934204 1266.577393,1195.168945 
	C1271.690918,1188.626709 1277.648560,1182.746216 1283.184937,1176.531250 
	C1287.742798,1171.414917 1292.242065,1166.246460 1297.387817,1160.395386 
	C1291.129761,1158.949341 1286.397705,1157.855835 1280.298218,1156.446411 
	C1295.941040,1129.065308 1314.385498,1104.528564 1324.478882,1074.446289 
	C1319.324585,1075.888550 1315.140137,1077.059448 1309.805054,1078.552246 
	C1310.271362,1075.123169 1310.067017,1072.732544 1310.935913,1070.833008 
	C1320.963257,1048.910645 1332.880493,1028.254395 1350.620117,1011.431396 
	C1356.244141,1006.098022 1362.433350,1004.066772 1370.239136,1003.495544 
	C1411.369263,1000.485718 1451.258179,1007.942505 1490.905884,1017.132996 
	C1523.639526,1024.720825 1556.160767,1033.223999 1588.781250,1041.301392 
	C1590.046387,1041.614624 1591.363770,1041.717285 1593.929688,1042.115845 
	C1589.499268,1035.526855 1585.629639,1029.772095 1580.388916,1021.977966 
	C1587.645386,1023.045898 1592.706299,1023.574951 1597.676880,1024.560547 
	C1616.609619,1028.314575 1635.456055,1032.529419 1654.441406,1035.986206 
	C1680.373901,1040.707886 1692.670654,1062.639526 1694.047119,1080.242432 
	C1694.485229,1085.845703 1695.036743,1091.440186 1695.541382,1097.095337 
	C1696.790161,1096.867310 1697.650635,1096.976685 1697.953003,1096.617065 
	C1715.431763,1075.827759 1738.802246,1063.413208 1763.040161,1053.206421 
	C1809.640869,1033.582397 1856.828613,1015.352234 1903.780640,996.563599 
	C1904.693726,996.198181 1905.703247,996.074219 1907.836792,995.550903 
	C1909.652710,998.104980 1911.958984,1000.830261 1913.691650,1003.881287 
	C1919.280029,1013.721741 1924.831177,1023.591003 1930.084351,1033.612793 
	C1948.927002,1069.559448 1971.396851,1102.730713 2001.893433,1130.036499 
	C2025.252808,1150.951904 2035.264648,1178.458740 2038.738647,1208.691284 
	C2040.548828,1224.444702 2037.528564,1239.895386 2033.061646,1255.007812 
	C2023.101318,1288.705444 2007.958008,1320.192261 1991.225708,1350.907349 
	C1983.340332,1365.382324 1972.329102,1377.475098 1958.515137,1386.797363 
	C1952.718018,1390.709595 1947.024292,1394.774780 1941.260498,1398.736694 
	C1932.946289,1404.451294 1926.384888,1411.594360 1920.374146,1419.854126 
	C1912.580811,1430.563599 1902.741089,1439.766724 1894.025513,1449.828857 
	C1888.801392,1455.859985 1883.716431,1462.069946 1879.208862,1468.638672 
	C1876.941772,1471.942749 1876.101929,1476.226318 1874.099854,1481.402466 
	C1880.881836,1482.468262 1886.008545,1483.273926 1891.130615,1484.079224 
	C1892.543457,1493.795410 1893.061890,1494.886475 1903.412476,1495.519287 
	C1935.435913,1497.476685 1967.343872,1497.000366 1998.798462,1489.396362 
	C2013.557617,1485.828369 2023.648193,1477.945312 2028.007568,1462.664917 
	C2030.348877,1454.458618 2034.676392,1446.759888 2038.601196,1439.084595 
	C2041.376343,1433.657593 2045.870239,1429.766724 2052.299072,1427.625610 
	C2058.301514,1437.095703 2054.758057,1449.680542 2063.249023,1458.921875 
	C2066.066406,1456.763672 2068.701660,1455.325806 2070.575684,1453.212646 
	C2080.603760,1441.904907 2089.145264,1429.740601 2092.651123,1414.622437 
	C2096.408447,1398.418945 2099.250977,1381.858887 2104.716797,1366.232544 
	C2111.727295,1346.189331 2120.534424,1326.730103 2129.330078,1307.365601 
	C2142.540039,1278.282104 2156.147949,1249.371094 2170.111328,1220.641602 
	C2177.379639,1205.686890 2185.744629,1191.263794 2193.660889,1176.625732 
	C2202.472412,1160.332031 2204.713379,1143.382202 2199.227295,1125.504761 
	C2193.954590,1108.323242 2190.710205,1090.767212 2189.336182,1070.303955 
	C2195.660400,1075.640991 2200.482178,1079.475586 2205.043457,1083.598389 
	C2231.862061,1107.838989 2261.625488,1127.965332 2292.830322,1145.983521 
	C2311.146484,1156.559448 2328.278076,1168.846191 2342.722656,1184.062744 
	C2363.629150,1206.087158 2378.336670,1232.035400 2386.174561,1261.695435 
	C2392.153564,1284.320435 2395.299805,1307.386108 2397.794434,1330.560669 
	C2399.539307,1346.769043 2401.334961,1363.013672 2401.989258,1379.287231 
	C2402.806152,1399.610962 2396.955566,1418.018066 2383.491211,1433.780396 
	C2378.746582,1439.334961 2372.786865,1444.986938 2370.887939,1451.600952 
	C2366.937744,1465.358765 2356.552734,1474.584717 2349.957031,1486.321533 
	C2344.281006,1496.421265 2339.431396,1507.080566 2335.240967,1517.889648 
	C2331.925537,1526.442383 2334.569580,1529.638306 2343.814941,1529.741333 
	C2350.768311,1529.818970 2357.729980,1529.167114 2364.578857,1528.845093 
	C2366.069580,1531.611816 2367.511719,1534.288818 2369.477051,1537.482910 
	C1953.291504,1538.000000 1536.583130,1538.000000 1118.937256,1538.000000 
z"/>
<path fill="#FEFEFE" opacity="1.000000" stroke="none" 
	d="
M845.485840,105.492905 
	C850.382385,97.553955 855.278931,89.615021 860.784912,80.836311 
	C861.426819,79.521431 861.459290,79.046326 861.491699,78.571213 
	C860.777588,78.834381 860.063477,79.097549 859.349365,79.360710 
	C843.904968,85.381592 828.440613,91.351959 813.021545,97.436928 
	C796.057312,104.131638 779.134705,110.931717 761.694885,117.884880 
	C754.899536,103.760796 749.695740,89.976906 748.770508,73.903442 
	C732.130371,75.594017 716.966553,81.472275 700.060852,85.483398 
	C700.449219,79.958145 700.798401,74.989906 701.183899,69.505028 
	C698.918213,70.678093 696.803711,71.558136 694.914124,72.784752 
	C678.184875,83.644653 661.570923,94.684120 644.768005,105.428108 
	C633.364807,112.719398 623.771362,121.841949 616.490173,133.156281 
	C607.867493,146.555267 599.788940,160.304443 590.647339,173.858688 
	C589.820068,173.815536 589.575012,173.553619 589.575012,173.553619 
	C590.762817,166.109360 591.950623,158.665085 593.270081,150.395905 
	C581.917297,152.353546 571.446472,156.867615 559.722290,161.823273 
	C553.447449,143.102859 547.798035,124.227814 542.479126,103.237831 
	C537.894348,108.098969 534.229797,111.984375 529.445984,117.056572 
	C528.320679,109.436295 527.338318,102.784203 526.356323,96.134605 
	C516.856812,97.990700 501.231445,108.784607 488.613983,122.067558 
	C477.921539,133.323990 470.015106,146.264267 465.151276,162.320129 
	C463.753845,157.565979 462.756805,154.173920 461.298065,149.211166 
	C447.803467,180.927063 444.600372,212.614334 446.156616,244.634354 
	C428.213928,262.331238 426.152618,265.966461 425.337097,281.857697 
	C423.504669,280.789612 421.740509,280.190552 420.624725,278.989227 
	C419.527679,277.808105 419.088806,276.015656 417.598206,272.893341 
	C410.221008,293.259613 408.242126,311.399933 405.930786,329.500549 
	C404.118500,343.692841 402.163849,357.882111 399.684418,371.969238 
	C397.699585,383.246246 393.076965,393.342041 385.487091,402.329773 
	C378.207245,410.950348 371.167389,420.068298 365.819489,429.941254 
	C360.660736,439.464996 357.465424,450.121552 354.007050,460.480591 
	C349.063354,475.288605 345.569794,490.637054 339.835510,505.112427 
	C329.632690,530.867920 312.482849,552.199341 293.755402,572.270508 
	C271.130096,596.519287 244.849899,616.419556 218.092712,635.765076 
	C203.250351,646.496216 188.640045,657.547668 173.876373,668.388367 
	C148.558334,686.979004 128.437866,710.146790 111.713478,736.683228 
	C97.412292,759.374634 79.348946,778.951965 58.180637,795.566345 
	C48.422482,803.225159 37.900616,808.031189 25.013618,806.320618 
	C16.186634,805.148987 8.580086,807.811157 2.642362,815.740845 
	C2.000000,544.786438 2.000000,273.572906 2.000000,2.000000 
	C390.708374,2.000000 779.416870,2.000000 1169.055664,2.482582 
	C1169.985962,2.965165 1169.995728,3.930382 1169.995728,3.930382 
	C1122.335571,20.224318 1078.277344,44.270935 1033.665527,67.146042 
	C1020.140869,74.080933 1006.010925,79.611969 990.204346,84.065781 
	C992.653503,71.364738 999.553833,62.182137 1006.051331,52.765209 
	C997.386658,52.261047 986.197449,55.773403 965.036804,67.190781 
	C951.939575,74.257469 939.485596,82.516342 925.609558,90.926964 
	C927.312256,78.895859 933.682617,69.285812 937.840942,58.253891 
	C932.725647,57.668201 928.890503,60.457554 925.109619,62.601257 
	C910.078369,71.123947 895.206238,79.927116 880.271973,88.620865 
	C869.646240,94.806458 859.015381,100.983253 847.333130,106.810402 
	C846.014954,106.135544 845.750427,105.814224 845.485840,105.492905 
z"/>
<path fill="#F3F3F3" opacity="1.000000" stroke="none" 
	d="
M1170.776001,3.968573 
	C1169.995728,3.930382 1169.985962,2.965165 1169.992920,2.482582 
	C1193.375122,2.000000 1216.750244,2.000000 1241.062744,2.000011 
	C1241.186157,2.528386 1240.429199,3.385613 1239.550293,3.537380 
	C1212.326416,8.238363 1187.456543,19.294500 1162.090576,32.469063 
	C1164.091797,21.291605 1171.626343,13.962485 1177.007935,4.423371 
	C1174.457031,4.228430 1173.006592,4.117598 1170.776001,3.968573 
z"/>
<path fill="#EEEFEE" opacity="1.000000" stroke="none" 
	d="
M1339.062744,2.000009 
	C1338.743652,2.764753 1337.554199,4.044368 1336.220947,4.217889 
	C1311.587402,7.423733 1286.965088,10.645092 1263.119019,18.025953 
	C1262.551514,18.201632 1261.829834,17.879333 1260.514038,17.697002 
	C1265.675171,12.594460 1270.545410,7.779331 1274.707886,2.482101 
	C1295.375122,2.000000 1316.750244,2.000000 1339.062744,2.000009 
z"/>
<path fill="#404342" opacity="1.000000" stroke="none" 
	d="
M1363.111694,2.000000 
	C1358.930176,2.464768 1353.860352,2.929535 1348.395264,2.697151 
	C1352.741089,2.000000 1357.482300,2.000000 1363.111694,2.000000 
z"/>
<path fill="#FEFEFE" opacity="1.000000" stroke="none" 
	d="
M589.947632,173.941589 
	C589.685364,174.905167 589.295593,175.742676 588.905823,176.580185 
	C588.806335,175.712433 588.706848,174.844681 589.091187,173.765274 
	C589.575012,173.553619 589.820068,173.815536 589.947632,173.941589 
z"/>
<path fill="#FEFEFE" opacity="1.000000" stroke="none" 
	d="
M846.633423,106.971115 
	C845.416321,108.414902 843.973267,109.105141 844.983643,105.819275 
	C845.750427,105.814224 846.014954,106.135544 846.633423,106.971115 
z"/>
<path fill="#000101" opacity="1.000000" stroke="none" 
	d="
M859.587708,79.594345 
	C860.063477,79.097549 860.777588,78.834381 861.491699,78.571213 
	C861.459290,79.046326 861.426819,79.521431 860.847351,80.147148 
	C860.300293,80.297752 859.826050,79.827965 859.587708,79.594345 
z"/>
</g>
</svg>