<svg version="1.1" id="Layer_1" xmlns="http://www.w3.org/2000/svg" xmlns:xlink="http://www.w3.org/1999/xlink" x="0px" y="0px"
	 width="100%" viewBox="0 0 1024 544" enable-background="new 0 0 1024 544" xml:space="preserve">
<path fill="#000000" opacity="1.000000" stroke="none" 
	d="
M479.805389,130.657593 
	C498.232269,128.901810 515.824341,130.931442 533.194458,135.536728 
	C542.612915,138.033783 552.033936,136.548065 561.464417,135.363846 
	C589.493042,131.844193 617.620361,132.165604 645.767090,133.349365 
	C654.251282,133.706177 662.756836,133.706360 671.224121,134.285599 
	C688.700256,135.481125 705.093872,140.978775 721.266724,147.318802 
	C731.660583,151.393372 742.237488,154.921539 753.302856,156.770081 
	C755.098877,157.070129 756.896057,157.415787 757.402039,159.735886 
	C757.833252,161.713364 759.948853,161.610092 761.298096,162.471207 
	C765.195984,164.958969 771.830139,164.125671 771.997864,171.285492 
	C772.011597,171.868835 773.552185,172.396698 774.358215,172.984680 
	C777.450867,175.240677 781.077026,177.040756 783.517273,179.863876 
	C790.733459,188.212280 796.946411,197.207672 801.276123,207.564758 
	C803.954895,213.972610 809.039978,219.790482 809.550842,226.652481 
	C809.984924,232.483002 810.896057,237.748566 813.659119,242.731613 
	C817.776001,250.156158 822.881348,257.041992 826.084351,264.955994 
	C827.181458,267.666656 830.544678,270.371735 826.937500,273.724854 
	C826.701050,273.944611 827.692322,275.428192 828.045837,276.349518 
	C829.415894,279.919891 830.919312,283.450623 832.055115,287.095215 
	C832.806580,289.506378 832.476440,289.677368 829.618347,289.756042 
	C831.669922,295.358887 833.909607,300.892242 835.663940,306.575378 
	C836.297729,308.628448 838.135925,311.405548 834.505737,313.104248 
	C833.450745,313.597961 834.395142,314.896179 834.727356,315.718719 
	C836.036194,318.959320 837.685364,322.082214 838.749512,325.396088 
	C839.755920,328.530060 844.024109,330.904510 840.976074,335.233307 
	C840.483643,335.932587 842.464478,338.356995 843.277649,339.996094 
	C844.289490,342.035767 846.250244,343.572510 846.582520,346.002411 
	C844.727905,347.481720 843.524231,345.241028 841.300110,345.280457 
	C844.673706,352.264923 848.611023,358.602112 851.148438,365.567963 
	C851.753540,367.229248 853.467102,369.535614 849.536499,369.520264 
	C851.892395,375.592865 855.299500,381.047943 855.640930,387.689270 
	C854.463074,387.689270 853.521973,387.689270 852.102173,387.689270 
	C854.012207,396.953278 856.437256,406.119019 855.076660,415.670593 
	C852.658386,415.803253 853.217407,413.548889 851.877319,412.363098 
	C852.513428,420.178894 852.490906,427.652130 849.919434,434.751343 
	C848.276672,435.265442 848.180115,433.968628 847.677612,433.272919 
	C846.830139,436.732117 846.148926,440.269562 845.084900,443.687805 
	C843.230286,449.646179 842.030151,450.634552 839.414368,448.982910 
	C838.573669,450.565460 838.941345,452.614288 837.310669,454.236511 
	C834.501892,451.891632 834.906860,447.673950 832.261658,445.490906 
	C829.806458,443.464569 829.327881,439.072052 824.357178,439.714447 
	C822.896240,439.903259 820.733154,436.578156 819.294373,434.574493 
	C817.065979,431.471191 815.183228,428.119751 812.888977,424.449768 
	C810.710449,427.580139 809.420959,425.498474 808.299805,423.625214 
	C806.062683,419.887390 804.663025,415.798645 803.461670,411.618286 
	C802.922180,409.741089 802.951538,407.608215 801.458984,406.075134 
	C799.597595,405.311981 798.639771,407.906158 796.389709,407.069702 
	C794.104431,401.644836 795.119446,394.866821 791.228210,389.177582 
	C787.950195,391.140686 786.658508,388.809021 784.728699,386.544739 
	C779.734253,380.684509 776.111328,374.241119 774.284180,366.765320 
	C774.146118,366.200531 773.481628,365.269562 773.181641,365.314209 
	C769.292419,365.892914 770.119873,362.908478 769.575500,360.833008 
	C769.219849,359.476837 770.120605,356.640961 766.638672,358.160309 
	C765.551086,358.634888 765.157898,356.562714 765.042664,355.523865 
	C764.767944,353.048645 764.874084,350.532318 764.627197,348.052429 
	C764.440552,346.178223 765.408386,343.878937 761.838867,343.409027 
	C759.910522,343.155182 760.680664,339.921967 759.990845,338.109161 
	C759.423340,336.617798 760.268127,334.760071 758.667053,333.219910 
	C755.941772,335.398438 755.962891,338.493927 756.134399,341.325592 
	C757.247681,359.709167 761.597290,377.076691 772.189026,392.550415 
	C779.540161,403.289886 786.902649,414.009186 796.181824,423.201202 
	C800.825256,427.800964 800.830566,433.404236 800.043579,439.046387 
	C796.578796,463.886536 794.945557,488.979889 789.656067,513.573975 
	C788.753662,517.769653 788.999146,522.199097 788.458618,526.488342 
	C787.106506,537.218567 777.046631,545.196289 766.210083,543.865417 
	C762.182617,543.370789 758.307800,543.393921 754.310974,543.915100 
	C746.232666,544.968384 739.339417,542.341125 733.589417,536.589905 
	C732.281128,535.281311 732.313049,533.780273 733.166870,532.489441 
	C738.677856,524.157043 743.668518,515.048523 755.835754,515.668640 
	C758.671875,515.813171 760.169250,514.393860 760.600220,511.671082 
	C762.601074,499.031342 764.901062,486.429504 766.499390,473.739197 
	C767.409851,466.510468 764.919617,459.551483 762.438599,452.827454 
	C760.212280,446.793701 758.473145,440.465759 753.657471,434.895172 
	C753.818481,443.897705 749.836487,451.082764 746.534607,458.441254 
	C743.934387,464.235962 741.697998,470.122711 740.116333,476.267426 
	C739.111938,480.169708 737.328491,483.726654 735.392822,487.247437 
	C728.573486,499.651123 721.763794,512.068298 716.261780,525.133423 
	C714.349670,529.673950 711.373962,532.132629 706.249207,531.501160 
	C704.938171,531.339600 703.420715,531.089661 702.283264,531.564087 
	C693.406006,535.267090 684.156860,532.589233 675.136902,533.397766 
	C668.473572,533.994995 664.402283,529.668274 659.778320,526.406250 
	C657.947510,525.114746 659.189880,522.775940 660.342773,521.485229 
	C667.186401,513.824585 674.187683,506.151154 685.944397,507.838654 
	C691.978455,508.704773 695.438293,506.641327 697.713013,500.799408 
	C701.272400,491.658783 706.049683,483.018097 709.348267,473.733276 
	C712.802368,464.010864 713.184326,454.263733 710.326965,444.352844 
	C704.929565,425.631226 696.406616,408.738312 682.155762,395.046051 
	C677.699585,390.764618 674.189575,385.620148 670.887573,380.415558 
	C665.337036,371.666840 659.239014,363.361145 652.225708,355.727234 
	C651.218750,354.631104 650.080811,353.453308 649.605652,352.101624 
	C644.644958,337.988495 635.811646,325.465332 632.674377,310.598572 
	C631.442627,304.761261 630.663269,304.477478 625.453186,307.415894 
	C619.797729,310.605499 614.212219,313.919434 608.610535,317.203613 
	C607.227661,318.014374 606.155823,319.366882 604.369141,317.437286 
	C603.215637,316.191345 601.834290,317.759216 600.998962,318.602692 
	C598.780823,320.842285 596.776245,323.293335 595.513550,324.723694 
	C592.361755,325.565979 592.877014,323.311829 590.924805,322.978058 
	C588.723450,326.730225 583.879822,325.506409 580.837402,326.928497 
	C576.567993,328.924133 572.090698,326.083954 570.229736,327.701447 
	C565.198608,332.074402 558.800781,327.257812 553.952515,331.474548 
	C552.569519,332.677399 548.817139,331.464081 546.240967,330.927704 
	C539.232788,329.468567 532.658447,329.845306 526.736206,334.402435 
	C525.207703,335.578613 523.493225,334.453552 521.909912,334.249573 
	C516.047852,333.494293 510.461395,332.740295 504.344696,334.385498 
	C499.462189,335.698792 493.747162,334.543121 488.515869,333.739838 
	C484.150818,333.069611 481.182007,333.144073 480.182068,338.374268 
	C479.472351,342.086426 476.607727,345.031738 476.097137,349.011932 
	C472.416565,377.703552 470.541412,406.528534 469.236542,435.408112 
	C468.989746,440.870270 468.089905,446.321655 467.208405,451.731903 
	C465.957458,459.409973 466.331207,466.901367 468.117340,474.500763 
	C469.244690,479.296936 468.986450,484.180725 463.563751,487.032318 
	C461.491547,488.122009 461.163910,490.617523 460.750397,492.696136 
	C458.187500,505.580292 453.798218,518.042847 452.078827,531.129089 
	C451.237579,537.531372 445.842804,541.634399 436.687378,543.123779 
	C432.761932,543.762329 428.747101,544.187378 424.782074,543.056641 
	C423.996460,542.832520 423.008667,542.387268 422.386017,542.661499 
	C413.492462,546.578125 405.071686,541.742310 396.433502,541.250183 
	C392.264893,541.012695 395.232117,536.687866 393.395355,534.485168 
	C388.926514,533.737305 383.965698,533.681824 379.347992,533.885620 
	C372.438324,534.190613 366.552948,531.268738 360.154327,530.153076 
	C358.074982,529.790588 358.183594,528.327881 358.464905,526.708130 
	C359.047272,523.354797 361.395905,521.174377 363.544006,518.866089 
	C370.075775,511.847229 377.127472,506.002838 387.736603,507.805206 
	C391.560608,508.454865 394.040771,507.024078 395.074646,502.953674 
	C398.020172,491.356598 402.056702,480.061005 404.121277,468.206940 
	C405.212982,461.938690 403.704010,455.922241 403.361084,449.828339 
	C402.816528,440.151642 402.867828,430.536072 403.405548,420.879028 
	C404.362701,403.689911 403.022766,386.628845 400.297546,369.646576 
	C398.954681,361.278290 398.379517,352.758545 396.573486,344.500580 
	C394.640259,335.660950 389.792694,328.105713 382.333008,322.882965 
	C369.871155,314.158081 360.199402,303.405090 354.240204,289.231049 
	C351.304291,282.247955 346.447968,276.784973 338.032745,276.168030 
	C337.549622,276.132599 336.669678,275.934845 336.663055,275.782623 
	C336.449768,270.892334 330.363586,270.766083 329.273743,266.425018 
	C327.347351,258.751984 319.552399,256.204834 314.878082,250.860855 
	C307.218201,242.103531 298.384216,234.382614 290.518646,225.791336 
	C287.142059,222.103195 284.758667,217.487122 282.203918,213.050629 
	C277.354675,204.629547 273.999969,194.510147 264.156342,189.809662 
	C259.859039,187.757629 255.518158,187.081909 250.618073,187.868622 
	C240.902557,189.428421 231.334702,191.358978 221.954422,194.394318 
	C202.661957,200.637161 187.885696,191.571991 174.760971,179.186295 
	C168.214691,173.008621 169.559967,169.011337 176.799316,163.467163 
	C189.228180,153.948639 201.453781,144.161514 213.656876,134.352982 
	C218.419800,130.524673 221.063080,125.585037 220.904648,119.175125 
	C220.634933,108.262665 226.741730,99.897438 232.870132,91.792114 
	C241.384079,80.531738 243.811096,68.879356 237.735672,55.616985 
	C233.855804,47.147430 231.234543,38.159008 229.279266,29.011648 
	C228.622604,25.939543 228.253250,22.806704 231.165634,20.833475 
	C234.393509,18.646461 236.898331,21.082996 239.076096,23.079403 
	C248.237488,31.477831 258.635895,38.017189 269.463837,44.000042 
	C273.069702,45.992443 276.281952,48.697342 279.907501,51.240181 
	C282.167511,48.264160 281.865082,44.609158 282.575500,41.323799 
	C283.990540,34.779564 285.687469,28.365582 289.018280,22.511473 
	C293.285889,15.010891 299.238800,13.955955 305.886505,19.459444 
	C306.778870,20.198229 307.686707,20.997793 308.331940,21.943493 
	C316.586334,34.041477 325.962402,45.391956 332.834381,58.408813 
	C334.349670,61.279110 335.974335,64.086189 338.950317,65.438667 
	C344.319092,67.878593 348.233734,72.419556 353.475433,75.026337 
	C356.419312,76.490379 356.352692,80.356598 359.543457,82.365707 
	C362.599274,84.289825 365.471863,86.418633 368.936310,87.580490 
	C376.455109,90.102036 383.701874,92.383080 389.376495,99.011108 
	C393.729248,104.095131 401.120270,105.476326 407.577515,107.829597 
	C414.240936,110.258003 420.686066,113.270149 427.636780,114.922966 
	C429.894958,115.459946 428.954987,116.940964 427.972198,118.917076 
	C434.805786,117.736427 438.926605,122.742691 444.205078,124.955948 
	C455.530487,129.704697 467.151978,131.638718 479.805389,130.657593 
M421.928406,511.091064 
	C421.535767,512.467834 420.467773,513.736267 421.195404,515.310303 
	C422.929016,516.130188 424.523254,515.507690 424.968109,514.023254 
	C428.200714,503.236572 431.051392,492.354126 432.754211,481.247131 
	C432.087280,481.076660 431.420349,480.906219 430.753418,480.735748 
	C427.901947,490.621613 425.050507,500.507507 421.928406,511.091064 
z"/>
</svg>