<svg version="1.1" id="Layer_1" xmlns="http://www.w3.org/2000/svg" xmlns:xlink="http://www.w3.org/1999/xlink" x="0px" y="0px"
	 width="100%" viewBox="0 0 1024 544" enable-background="new 0 0 1024 544" xml:space="preserve">
<path fill="#000000" opacity="1.000000" stroke="none" 
	d="
M282.468658,545.000000 
	C281.884949,541.841736 281.811310,538.681335 281.644287,535.525818 
	C281.436798,531.607178 281.021057,528.022278 276.274933,526.500366 
	C272.661774,525.341797 273.535736,521.964294 274.118439,519.217163 
	C276.602051,507.508606 279.427643,495.857239 280.893890,483.966278 
	C282.643188,469.779907 284.186646,455.566132 285.638123,441.345734 
	C286.888550,429.095093 287.940826,416.827667 287.739288,404.481506 
	C287.650696,399.052856 290.575623,395.031403 294.696350,391.809692 
	C303.808868,384.685242 311.898193,376.620697 318.509857,367.054901 
	C327.471863,354.088715 325.800659,340.672943 320.676910,327.019623 
	C320.533295,326.636902 319.979980,326.407867 319.386383,325.915161 
	C316.927582,329.782990 318.598236,335.083710 314.997040,338.097656 
	C313.765228,338.349396 313.043823,337.879303 312.698456,337.092255 
	C306.767487,323.577484 298.704163,310.731445 298.155121,295.428925 
	C297.755310,284.285583 298.384552,273.045166 301.314453,262.284393 
	C303.812866,253.108353 310.632111,246.472153 318.246063,241.216278 
	C337.626251,227.838211 358.898407,218.519531 381.887970,213.297150 
	C387.619232,211.995224 393.528107,212.539215 399.335968,212.837936 
	C427.926971,214.308502 456.504333,215.911789 485.036407,218.424606 
	C505.524567,220.228973 525.933228,218.697067 546.121033,214.427872 
	C555.287537,212.489426 564.650818,212.545471 573.988770,212.715988 
	C579.153748,212.810333 584.320435,212.804657 589.486206,212.863922 
	C599.678467,212.980865 607.694946,208.545837 613.090149,200.219299 
	C620.604370,188.622421 627.586731,176.674454 634.579041,164.749130 
	C637.261963,160.173538 634.206360,153.695480 628.932861,153.407425 
	C610.043335,152.375610 601.924316,138.622421 597.382690,120.431137 
	C596.219910,115.773567 598.288025,113.496643 603.247864,113.713371 
	C609.282227,113.977058 614.944092,116.125160 620.710999,117.703491 
	C621.602783,117.947563 622.368164,119.000114 623.954102,117.826645 
	C595.508484,106.219894 579.320984,85.853416 580.078430,54.695522 
	C580.369385,42.726269 580.859375,30.024536 590.750000,20.454361 
	C589.754944,37.328339 586.219543,54.112415 592.553467,71.759766 
	C592.970398,62.862156 592.338379,55.068623 593.606140,47.327152 
	C595.751404,34.227318 600.007507,22.157537 609.270203,12.333980 
	C611.655212,9.804543 613.975891,6.737346 618.370300,7.141745 
	C619.255981,10.202624 617.369080,12.191361 616.060974,14.100684 
	C606.033508,28.737267 602.679504,45.077618 603.335999,62.498425 
	C603.468201,66.004410 603.449585,66.005112 605.720886,69.346748 
	C608.301575,69.432365 609.401917,67.434196 610.624390,65.696030 
	C613.830688,61.137280 615.489014,55.862400 617.390015,50.709564 
	C619.180298,45.856415 620.917542,40.963783 624.092224,36.811188 
	C625.527954,34.933216 626.823242,32.455872 629.934998,33.152763 
	C631.444153,35.103386 630.140869,36.722298 629.496399,38.346161 
	C627.527893,43.306351 625.674377,48.303883 624.587280,53.540825 
	C624.215027,55.334312 623.922668,57.272461 625.509827,58.693535 
	C627.251526,60.252964 629.038574,59.101135 630.631592,58.360989 
	C640.148865,53.939003 649.781982,49.716156 657.955200,42.895653 
	C659.304932,41.769314 660.668152,40.318024 663.039551,40.909176 
	C664.392761,43.346912 662.762390,45.291382 661.586243,47.134525 
	C657.827087,53.025566 652.455750,57.294228 646.614624,60.886135 
	C636.399597,67.167809 625.858826,72.930267 615.762329,79.391350 
	C604.197449,86.792053 604.420654,92.328835 616.322693,99.202576 
	C621.792053,102.361237 627.471985,105.241974 633.294617,107.679703 
	C640.261230,110.596352 643.322266,108.498428 643.827942,101.048454 
	C644.177246,95.902145 644.349792,90.743973 644.619202,85.592041 
	C644.715881,83.742897 644.995789,81.948906 647.059570,80.162773 
	C650.250305,84.217499 650.176941,89.133667 651.107849,93.588905 
	C651.918823,97.469994 652.035706,101.505463 652.334473,105.482101 
	C652.813477,111.858665 655.538452,116.927673 660.766663,120.653770 
	C662.878479,122.158844 665.072998,123.176605 667.750061,122.529854 
	C671.016418,121.740753 673.943115,123.502365 677.068665,123.804001 
	C682.542847,124.332314 684.576172,122.866623 683.638428,117.503090 
	C681.753174,106.719666 681.345947,95.657944 677.763367,85.176781 
	C677.091858,83.212021 675.797607,81.209702 677.576477,78.249542 
	C688.296753,85.123268 687.752380,97.636749 692.188232,107.352959 
	C703.258484,103.062706 706.954529,96.401886 704.381042,85.495178 
	C700.739319,70.061096 695.651550,55.105263 689.137695,40.638634 
	C686.841125,35.538193 686.841736,35.385529 687.361328,31.516970 
	C690.668091,31.330357 691.848206,34.093494 693.207581,36.120857 
	C703.009705,50.739529 710.720581,66.353310 715.148926,83.475967 
	C715.791565,85.960785 715.615845,89.411919 719.145691,89.509064 
	C722.616211,89.604576 724.366150,86.730713 725.233398,83.754021 
	C727.899719,74.602196 726.783325,65.278038 726.237793,55.978191 
	C725.400391,41.701168 721.889709,28.073765 716.564575,14.859493 
	C716.137695,13.800137 715.658813,12.678093 716.305298,11.201967 
	C719.515808,9.663092 720.971375,12.382478 722.467773,14.315294 
	C728.522278,22.136145 731.321289,31.382812 733.683533,40.791397 
	C735.424377,47.724590 736.308594,48.692333 743.696594,51.324806 
	C744.683350,44.849041 740.482117,38.821678 741.939453,32.375309 
	C744.806458,32.027950 745.601013,34.136898 746.623535,35.694351 
	C748.931763,39.210155 750.224426,43.176762 751.312073,47.211960 
	C753.078552,53.765873 754.107788,60.444038 756.888794,66.816444 
	C760.315002,74.667290 756.318115,84.031845 748.126648,90.317467 
	C741.595459,95.329025 734.146240,98.707802 726.831665,102.327461 
	C720.554443,105.433784 714.310913,108.629364 708.649963,112.772614 
	C704.640259,115.707344 700.911011,119.006615 700.288208,124.404175 
	C702.154480,125.520645 703.064697,124.148842 704.127502,123.559540 
	C712.939575,118.673477 722.304382,115.270432 732.172302,113.349945 
	C737.775208,112.259529 740.143921,115.022781 738.361267,120.392235 
	C736.415344,126.253494 733.865967,131.864532 730.634705,137.142944 
	C727.761292,141.836731 723.724976,145.174133 718.709412,147.421234 
	C713.307190,149.841583 712.894958,151.690063 717.120361,156.057587 
	C722.930664,162.063248 729.431274,167.263687 736.462524,171.805984 
	C740.501770,174.415405 743.736572,177.706985 744.278809,182.816162 
	C745.245911,191.928558 733.755737,203.589783 724.798706,201.612244 
	C715.021240,199.453568 706.056396,203.198959 696.700745,203.848434 
	C692.329102,204.151917 692.835754,208.468353 692.515015,211.346375 
	C691.312805,222.134766 688.816162,232.620728 686.005005,243.069519 
	C680.168518,264.763062 669.222290,283.597870 654.191223,300.128937 
	C644.126953,311.197540 636.112549,323.664215 629.455994,336.944855 
	C623.760437,348.308167 615.291687,356.308777 603.341187,360.166656 
	C596.344849,362.425201 593.017029,366.567322 592.457764,373.743408 
	C591.387329,387.479706 588.967529,401.065857 590.019958,415.004883 
	C591.086060,429.125793 590.699341,443.301117 586.773499,457.130402 
	C586.328491,458.697998 586.289124,460.428741 586.326599,462.077820 
	C586.701660,478.556335 587.926941,494.960388 590.417053,511.271484 
	C591.789551,520.261902 595.305542,528.120544 601.338135,534.941650 
	C603.980469,537.929321 606.265320,541.233154 608.856201,544.696716 
	C599.979126,545.000000 590.958191,545.000000 581.390015,544.608398 
	C580.250488,541.801880 579.777344,539.348999 579.024170,536.985291 
	C578.525696,535.420898 577.768188,533.629395 575.620850,534.010864 
	C571.001892,534.831421 570.886719,531.781433 570.631287,528.601318 
	C569.259399,511.520630 570.944641,494.418365 569.923157,477.292297 
	C568.966553,461.254974 564.727051,446.080505 560.835815,430.633301 
	C559.492676,439.090576 555.452393,446.671906 553.466248,454.805389 
	C548.989258,473.138855 547.803528,491.898590 548.205383,510.716736 
	C548.408691,520.233582 550.994873,528.921936 558.391235,535.833923 
	C563.602966,540.704224 563.188721,541.638062 557.000000,545.000000 
	C554.629456,545.000000 552.258850,545.000000 549.075439,544.857422 
	C546.776184,544.560242 545.292419,544.374146 543.803162,544.256470 
	C535.229248,543.579102 531.968750,540.171143 531.608826,531.648132 
	C531.525085,529.666260 531.119385,527.698303 530.865845,525.723389 
	C530.662781,524.141113 530.259460,522.924194 528.253418,522.707275 
	C524.523743,522.304016 524.165833,519.456482 524.951721,516.750610 
	C526.026611,513.049377 526.348633,509.235626 527.226379,505.529785 
	C533.107727,480.697968 537.230530,455.867523 534.969238,430.021759 
	C533.246887,410.336182 532.320984,390.486206 532.663208,370.656433 
	C532.734802,366.510071 530.742371,364.948578 526.788452,365.322113 
	C517.853210,366.166260 508.925018,367.126038 499.973877,367.751343 
	C484.211792,368.852417 468.431366,370.428284 452.696686,367.317627 
	C444.478394,365.692902 436.740540,362.666168 429.069000,359.419739 
	C426.802307,358.460480 425.071014,358.082550 423.208435,360.812561 
	C411.667236,377.728546 401.955841,395.805298 389.905060,412.417358 
	C383.703674,420.965973 380.839294,431.012451 383.481354,441.742828 
	C384.749542,446.893402 386.615448,451.922791 388.531403,456.883148 
	C394.542999,472.446991 402.948364,486.882172 409.968506,501.962189 
	C415.818085,514.527771 423.386719,525.664978 433.037750,535.488159 
	C438.553253,541.102051 438.291809,542.384705 431.000000,545.000000 
	C426.643097,545.000000 422.286194,545.000000 417.151489,544.816650 
	C410.325623,544.109741 406.853241,540.779846 405.092468,535.019897 
	C404.321381,532.497375 403.536469,528.768494 400.052124,529.023865 
	C395.312775,529.371338 394.561523,526.449280 393.568695,523.136780 
	C390.461548,512.770142 386.793732,502.615509 382.205383,492.792877 
	C371.568329,470.021210 359.999908,447.720367 348.149048,425.568604 
	C344.464355,418.681122 344.332581,412.489960 349.031342,406.036865 
	C351.857758,402.155212 354.049805,397.804993 356.433014,393.611938 
	C357.040802,392.542511 358.148132,391.430817 357.142853,389.937744 
	C355.344818,389.300201 354.438751,390.739624 353.360748,391.644501 
	C346.097656,397.740997 339.006683,404.052460 331.584198,409.947021 
	C317.820221,420.877869 309.690338,435.152557 305.883240,452.078094 
	C302.338104,467.838959 300.833557,483.906677 299.513824,499.949799 
	C298.974792,506.502411 297.624451,513.061768 298.803497,519.815308 
	C300.446838,529.228516 304.545135,537.372498 310.000000,545.000000 
	C300.979095,545.000000 291.958221,545.000000 282.468658,545.000000 
M737.324341,75.783241 
	C737.415344,77.429390 737.377869,79.135582 739.951172,80.289658 
	C743.509094,76.672684 744.789856,71.962326 744.515747,67.074745 
	C744.251221,62.357468 740.840027,59.510178 736.269043,56.839878 
	C736.648682,63.458519 736.978027,69.199432 737.324341,75.783241 
M644.065247,128.204987 
	C640.241577,125.426842 635.921082,123.692596 631.523071,122.096741 
	C636.299622,125.541779 639.476562,131.554703 646.465088,131.831207 
	C646.474182,130.017227 645.357239,129.422211 644.065247,128.204987 
z"/>
</svg>