<svg version="1.1" id="Layer_1" xmlns="http://www.w3.org/2000/svg" xmlns:xlink="http://www.w3.org/1999/xlink" x="0px" y="0px"
	 width="100%" viewBox="0 0 1024 544" enable-background="new 0 0 1024 544" xml:space="preserve">
<path fill="#000000" opacity="1.000000" stroke="none" 
	d="
M465.468536,545.000000 
	C462.135651,542.576050 462.277679,539.991638 464.423462,537.142334 
	C466.927856,533.816772 469.157990,530.277588 471.761200,527.035034 
	C479.653381,517.204407 480.895111,505.387482 481.435455,493.564941 
	C482.127411,478.424286 481.943512,463.266357 476.536530,448.740906 
	C476.143799,447.685760 476.058624,446.421844 474.246216,445.796509 
	C471.681366,450.207703 471.841400,455.247894 471.400970,460.027252 
	C470.008575,475.137451 470.128082,490.303101 470.265411,505.461700 
	C470.294067,508.623291 470.414948,511.742706 470.987640,514.896179 
	C472.028809,520.629272 469.715546,522.548096 464.225830,520.803711 
	C461.744415,522.648865 462.475861,525.625793 461.879883,528.092651 
	C460.005951,535.848999 458.479156,537.292175 450.626373,538.487793 
	C445.653900,539.244873 440.660919,539.634583 435.695923,538.874084 
	C430.275970,538.043884 429.279327,535.224854 432.729187,531.023438 
	C435.570190,527.563599 438.538971,524.171753 441.476074,520.836060 
	C449.256378,511.999847 451.111816,501.313202 452.536011,490.393280 
	C453.481720,483.141846 454.100708,475.837921 454.581512,468.538757 
	C454.986603,462.389496 454.646576,456.321594 452.942749,450.247559 
	C450.169708,440.361877 450.176117,430.141205 450.974304,419.988068 
	C452.119507,405.421234 448.021210,391.621887 445.269958,377.614563 
	C444.802216,375.233185 443.102509,374.027740 441.008148,373.118591 
	C433.588623,369.897766 427.911804,364.661682 423.619141,357.864136 
	C419.370361,351.136017 411.843262,348.752197 405.671448,344.688568 
	C394.839294,337.556458 383.102753,332.798401 369.635284,333.145142 
	C363.959412,333.291229 359.328278,329.706390 355.138214,326.028473 
	C348.482880,320.186554 342.534393,313.671692 336.999664,306.769379 
	C333.561310,302.481445 330.236389,298.099579 325.461334,295.104401 
	C323.398590,293.810516 322.433441,291.586090 321.626465,289.383667 
	C320.309357,285.789337 319.173401,282.127655 317.819489,278.547943 
	C315.556030,272.563293 311.691223,268.505157 305.042511,267.222839 
	C297.188263,265.707977 289.557526,263.305603 282.223785,260.043671 
	C277.941986,258.139191 273.782928,258.399017 269.137024,259.386627 
	C260.951019,261.126831 252.513107,262.225891 247.167419,252.875046 
	C245.698807,250.306061 241.809616,249.779556 240.572266,246.397339 
	C238.060928,239.532791 240.443436,233.048904 247.466446,228.448212 
	C256.799072,222.334457 266.094482,216.163834 275.424652,210.046295 
	C278.522705,208.014969 281.203918,205.636307 283.288055,202.500626 
	C285.559479,199.083145 288.732330,196.532410 292.740112,195.503021 
	C299.034058,193.886459 297.330292,188.589554 298.014252,184.473007 
	C298.584625,181.040329 295.633850,179.796188 293.272186,178.903931 
	C287.364227,176.671692 281.263794,174.955292 275.303253,172.854111 
	C268.196045,170.348755 261.300171,167.331146 255.941193,161.807709 
	C246.405746,151.979691 243.614624,140.457489 247.700180,127.329353 
	C248.100372,126.043419 248.492142,124.776489 250.433929,124.119804 
	C253.174271,126.402054 252.182678,129.745575 252.280106,132.662704 
	C252.632004,143.199158 257.583862,150.848068 266.790680,156.112900 
	C261.893585,148.526108 259.885254,140.545975 262.339935,131.348038 
	C266.114685,132.684357 265.491394,135.907913 266.183014,138.147400 
	C268.811768,146.659515 273.010590,151.823822 280.094513,154.155273 
	C276.553986,143.240005 275.366852,132.578934 280.625244,122.026489 
	C283.687744,122.992638 283.242615,124.875389 283.307739,126.439293 
	C283.425507,129.267899 283.154480,132.133545 283.496918,134.928467 
	C285.311462,149.740402 296.709564,160.826981 311.578217,162.451843 
	C312.625122,162.566238 313.565338,162.458649 314.407593,161.810654 
	C314.803070,161.506378 315.198334,161.198288 315.565613,160.861343 
	C324.731628,152.453354 330.502472,146.194275 314.847870,136.320740 
	C306.010712,130.747040 302.429657,121.571327 300.999420,111.845886 
	C300.039734,105.320457 300.747742,98.547661 300.750061,91.885559 
	C300.750366,91.057518 301.002960,90.231514 302.262451,89.761276 
	C304.755493,90.381126 304.630280,92.938354 305.092743,94.808823 
	C306.407593,100.126831 307.125580,105.603928 308.629303,110.860847 
	C310.507446,117.426682 314.266785,122.948570 319.888275,126.949478 
	C324.432861,130.183929 326.726654,129.070511 327.928314,123.705788 
	C328.484467,121.222908 328.401886,118.339478 330.968201,116.422005 
	C333.600861,117.551918 332.739319,120.364937 333.882111,122.585678 
	C338.936951,114.335281 340.306305,105.379395 341.748993,96.356461 
	C343.913666,82.817635 340.027893,69.538925 340.538910,56.051826 
	C341.006531,43.711456 343.604401,31.999674 348.196198,20.654774 
	C348.948151,18.796867 349.396301,16.372887 352.331757,15.925852 
	C354.833221,18.950531 353.541473,22.330956 352.725311,25.293762 
	C347.964050,42.578392 350.189850,59.625034 354.173828,76.604935 
	C356.074707,84.706497 359.105927,85.700813 366.226685,81.448761 
	C378.752747,73.969025 385.721375,62.167664 391.492279,49.414017 
	C393.551422,44.863358 395.375885,40.206982 397.352905,35.618431 
	C398.053009,33.993450 398.485382,32.086906 400.780182,31.511509 
	C403.369659,33.858074 402.298309,36.768330 401.929230,39.376324 
	C400.589905,48.841000 397.290405,57.733242 393.791626,66.578552 
	C391.203308,73.122032 391.939819,74.023163 398.657684,75.930237 
	C407.655487,78.484550 416.556458,81.418350 426.035400,78.294228 
	C426.524750,78.132935 427.214417,78.579330 427.768433,78.731186 
	C428.320160,81.315460 426.479187,82.165070 425.052734,83.185829 
	C418.951355,87.551979 411.958405,88.193703 404.951691,86.967262 
	C395.860931,85.376030 387.806732,87.412247 379.302307,90.735893 
	C364.980408,96.333069 355.834961,105.383041 350.483551,120.120033 
	C346.576538,130.879410 341.992188,141.307205 339.890198,152.645523 
	C339.037476,157.244995 343.723328,162.010971 348.553772,160.289169 
	C361.551422,155.656189 374.899628,151.819778 386.950897,144.808548 
	C391.514099,142.153748 392.121765,138.018036 391.978119,133.203964 
	C391.620941,121.235077 390.835876,109.239220 392.702972,97.310349 
	C393.106750,94.730888 393.362152,92.080345 395.304413,89.802917 
	C398.278778,91.330353 398.281311,93.932533 398.185730,96.288353 
	C397.798462,105.833847 400.117859,115.148201 400.446259,124.626617 
	C400.480225,125.606361 400.815826,126.582787 401.065674,127.546707 
	C402.274963,132.212509 403.811523,132.825729 407.497284,129.727600 
	C414.852875,123.544670 420.367401,115.896545 425.211273,107.621292 
	C434.781189,91.272087 435.221497,73.855881 432.227264,55.831024 
	C430.115967,43.121277 429.351532,30.348278 432.813263,17.710190 
	C433.431061,15.454655 433.431305,12.662382 436.141174,11.478538 
	C438.050323,12.104740 438.318481,13.636086 438.283508,15.119464 
	C437.904816,31.186375 442.836060,46.294933 446.621063,61.607578 
	C448.389404,68.761566 448.210236,76.136055 449.214264,83.377548 
	C450.050293,89.407341 453.524811,91.794724 459.330994,89.774780 
	C468.729614,86.505081 475.672943,80.561638 479.898773,71.327164 
	C484.794525,60.628746 485.641693,49.217541 486.658844,37.791225 
	C486.849915,35.644814 486.998413,33.449295 489.053650,32.256332 
	C490.249237,32.146633 490.833130,32.779186 491.036743,33.599216 
	C493.639954,44.083775 496.773041,54.536255 493.361542,65.464432 
	C493.164490,66.095604 493.123535,66.773743 492.972900,67.421402 
	C489.914001,80.573082 490.040283,80.647942 502.796265,85.276741 
	C506.847839,86.746956 510.805023,88.615555 514.557556,90.739731 
	C520.424316,94.060730 526.340088,96.880188 533.282532,96.984070 
	C535.147888,97.011986 537.288513,97.287674 538.662964,99.828514 
	C533.152466,104.523628 526.814392,104.003647 520.735779,102.708153 
	C515.569763,101.607140 510.562805,99.559814 505.643829,97.544662 
	C497.447021,94.186691 489.492859,94.261925 481.478668,98.083138 
	C475.004608,101.169991 468.229095,103.506340 461.324127,105.435974 
	C453.900482,107.510559 447.784027,111.508781 442.491272,117.128769 
	C432.898865,127.314262 422.997528,137.145370 411.854401,145.748230 
	C399.195770,155.521088 385.597321,163.331635 370.512482,168.596817 
	C369.116699,169.084015 367.824432,169.867752 365.862152,170.800629 
	C356.251984,173.022644 348.170380,176.740250 340.716095,182.978302 
	C344.174286,184.498154 346.607056,183.600983 348.882141,182.138687 
	C354.610413,178.456863 360.292908,174.703796 365.993774,170.979294 
	C366.792175,170.745514 367.599884,170.539246 368.387238,170.272842 
	C370.832092,169.445587 373.391541,167.254807 375.838776,169.401749 
	C378.435120,171.679474 377.426331,175.010742 376.874756,177.896011 
	C374.762787,188.943787 373.579163,191.033066 363.646759,202.357147 
	C375.301208,208.629868 386.890778,214.536377 400.052307,216.676224 
	C415.761230,219.230255 431.292145,218.722061 446.370636,213.412964 
	C472.101288,204.353287 497.701660,205.014999 523.076660,214.331589 
	C539.124268,220.223587 555.399841,221.307114 572.186096,219.157883 
	C579.431030,218.230286 586.791199,218.014099 594.106873,217.866241 
	C610.232971,217.540344 626.307007,217.625732 642.456543,216.054993 
	C664.869080,213.875107 684.954712,221.878571 703.471558,234.198013 
	C709.562805,238.250595 715.903076,241.959579 722.308533,245.502014 
	C732.229370,250.988602 738.513672,258.589569 738.352661,270.511658 
	C738.298523,274.524963 738.023010,278.049438 732.574463,277.364532 
	C733.843323,295.808685 728.185425,312.559265 722.616272,329.274200 
	C718.378845,341.992188 716.168396,354.821899 719.679871,367.986420 
	C722.803345,379.696411 729.809692,389.345367 737.875366,398.054779 
	C743.269287,403.879272 744.708862,410.208679 743.834351,417.751801 
	C742.972290,425.187775 742.782593,432.685028 744.149536,440.128906 
	C746.387390,452.316162 744.723389,464.706726 746.154968,476.972290 
	C747.693115,490.151306 747.598633,503.540588 752.578674,516.166443 
	C753.740173,519.111145 753.440125,521.996521 749.352722,522.361511 
	C746.744873,522.594360 746.092041,524.405396 745.598083,526.358337 
	C745.110474,528.285828 744.555542,530.285217 744.595398,532.241516 
	C744.750366,539.848267 740.568237,543.424622 733.304810,544.813110 
	C727.977905,545.000000 722.955811,545.000000 717.289307,544.680908 
	C712.589844,539.421387 716.431152,535.982117 719.105225,532.553833 
	C725.247009,524.679626 728.639404,515.937256 728.876587,505.882599 
	C729.203552,492.023438 727.554382,478.293365 726.619507,464.512604 
	C725.323975,445.416260 716.659485,429.402130 705.109070,414.945770 
	C699.209045,407.561310 692.330811,400.930908 686.800781,393.170532 
	C685.082581,390.759399 683.429504,388.144897 679.755615,385.830261 
	C681.929443,394.888123 685.926758,401.834167 689.661926,408.815765 
	C693.078857,415.202545 693.472290,421.241150 690.362610,427.857697 
	C681.783386,446.112152 675.087341,465.145538 667.963684,483.982971 
	C663.462891,495.884644 657.302551,507.379944 657.015869,520.618347 
	C656.971008,522.689209 655.675171,525.766663 653.264832,525.042786 
	C647.101807,523.191711 646.756470,527.859436 645.411865,531.306763 
	C644.207764,534.393921 642.856201,537.158447 639.380249,538.055115 
	C632.502075,539.829468 625.479004,539.680664 618.514648,539.031616 
	C614.787048,538.684265 613.888367,536.127319 615.966858,532.909424 
	C616.859131,531.527954 618.158997,530.414001 619.237976,529.148071 
	C625.169067,522.189331 632.281677,516.021118 636.088989,507.558594 
	C644.280334,489.351746 652.419373,471.113373 657.046265,451.527252 
	C658.859619,443.851166 658.543579,436.509979 657.069641,428.852264 
	C655.140564,418.830078 648.878052,411.109985 644.441406,402.407135 
	C639.678528,393.064270 635.260925,383.545197 630.708557,374.095337 
	C629.170776,370.903107 627.332214,370.017670 624.111877,372.379181 
	C617.687317,377.090271 610.068359,379.071564 602.554077,381.320312 
	C588.173645,385.623871 574.121094,381.520569 560.040466,379.722229 
	C544.520813,377.740051 528.970520,376.349457 513.372131,375.325043 
	C510.220734,375.118073 508.364838,375.944458 508.124329,379.572266 
	C507.739777,385.373535 506.915131,391.144653 506.326416,396.933594 
	C504.796265,411.980255 503.349609,427.215271 500.127228,441.823669 
	C495.917328,460.908752 497.732697,479.542542 499.000122,498.397217 
	C499.499237,505.821686 500.147095,513.280823 502.167786,520.557800 
	C502.708527,522.505005 503.453644,526.703674 499.502991,525.933594 
	C494.294647,524.918213 494.127380,527.748047 494.258179,531.092041 
	C494.512695,537.597290 492.286407,542.460327 486.000000,545.000000 
	C479.312347,545.000000 472.624725,545.000000 465.468536,545.000000 
z"/>
</svg>