<svg version="1.1" id="Layer_1" xmlns="http://www.w3.org/2000/svg" xmlns:xlink="http://www.w3.org/1999/xlink" x="0px" y="0px"
	 width="100%" viewBox="0 0 1024 544" enable-background="new 0 0 1024 544" xml:space="preserve">
<g data-loadout-mirror="true" transform="translate(1024 0) scale(-1 1)">
<path fill="#000000" opacity="1.000000" stroke="none" 
	d="
M348.000000,545.000000 
	C325.979095,545.000000 303.958221,545.000000 281.449860,544.579529 
	C278.407867,532.433105 278.022614,520.409485 276.247192,508.611633 
	C272.649200,484.702667 273.652222,460.808380 274.449585,436.857056 
	C274.658844,430.571442 277.332001,425.701202 282.226990,421.906830 
	C284.727722,419.968384 287.242432,418.041382 289.651886,415.992859 
	C304.734833,403.169464 317.151672,388.414429 323.294647,369.167542 
	C325.113678,363.468262 324.875275,363.092896 319.151154,361.960571 
	C319.269745,358.849609 321.259003,356.431824 322.283752,353.666504 
	C324.510101,347.658752 324.131958,346.835632 318.048157,345.592133 
	C316.800629,340.229675 319.293671,334.254028 315.650665,328.841980 
	C310.126068,344.246216 305.304169,359.806763 294.729584,372.709930 
	C292.733795,370.880585 294.680389,368.457489 291.658875,366.811523 
	C286.345276,380.447113 279.488037,393.106995 268.924713,403.680511 
	C266.952301,401.035095 268.851166,398.785004 266.776703,396.609894 
	C258.837738,410.133636 250.031387,422.684052 237.146866,431.270996 
	C234.883392,430.317017 236.748825,427.494293 233.597595,427.090881 
	C222.754807,441.697845 209.521927,454.205872 193.216721,462.657837 
	C190.817719,460.990295 192.801849,458.378784 190.132233,457.164551 
	C182.203217,462.876068 175.437897,470.779297 165.935226,474.226044 
	C164.223007,473.708862 165.324600,471.282776 162.881302,471.318207 
	C152.615631,479.819794 141.188599,487.014038 127.211937,490.797638 
	C127.493378,487.258698 130.596634,485.873444 129.697266,481.941010 
	C121.868675,486.837189 114.348244,491.330750 105.968369,493.879822 
	C97.541977,496.443054 89.096207,499.062286 79.802452,498.101746 
	C80.947929,494.697083 85.114311,495.314026 85.403152,491.388336 
	C75.894112,493.377075 66.586929,494.750549 57.105045,494.473145 
	C47.498112,494.192078 38.078766,493.042358 28.585226,490.212311 
	C30.219591,487.678955 32.962440,488.290192 34.602928,486.035156 
	C22.596247,485.644501 11.623301,482.511047 1.000000,478.000000 
	C1.000000,477.250000 1.000000,476.500000 1.323897,475.252869 
	C6.250546,472.478760 10.009113,469.344391 12.740870,465.176971 
	C10.855681,463.272430 9.212859,465.704132 7.720270,463.648254 
	C11.620031,448.863831 20.706972,437.092072 31.215137,426.015259 
	C29.189064,426.420959 27.162992,426.826691 25.136919,427.232391 
	C34.894989,412.025238 49.431507,403.081635 65.240555,395.959015 
	C63.726582,393.519470 61.104836,395.342255 59.960052,392.824432 
	C71.422966,385.118225 85.055618,382.386993 97.691269,377.000916 
	C95.808044,374.477692 93.018860,375.210480 91.449173,372.745941 
	C107.470100,365.136414 124.090050,359.270721 138.728470,349.716675 
	C137.416168,346.555420 134.232407,348.395325 132.717743,345.720001 
	C145.646225,336.507812 159.156601,328.009888 171.107758,316.601898 
	C166.506699,314.261108 169.325119,312.280945 170.845581,310.334503 
	C182.407059,295.533844 196.020233,282.840820 210.837555,271.370483 
	C212.689651,269.936737 215.301117,268.914642 215.343811,266.285309 
	C214.326294,263.851715 211.885849,266.265625 210.893677,264.339661 
	C211.277420,262.462250 212.752182,261.264923 213.848846,259.833374 
	C228.826248,240.282333 247.313202,224.719757 267.977661,211.472946 
	C289.843903,197.455750 312.507019,184.665955 333.288055,168.956543 
	C339.268829,164.435410 346.225372,161.427017 353.156464,158.526093 
	C385.735687,144.890488 419.052460,134.792526 454.788086,133.254059 
	C480.090759,132.164764 505.379700,131.377426 530.688416,131.354584 
	C555.502197,131.332199 580.314697,132.005707 605.079956,133.701019 
	C620.517212,134.757751 635.954285,135.887894 651.358826,137.332382 
	C670.594727,139.136093 689.800964,141.369446 709.048157,137.644150 
	C716.803650,136.143082 724.700317,135.050613 731.341858,131.346893 
	C732.034668,128.947342 729.128052,128.748123 729.999023,126.628395 
	C734.750122,124.711273 740.624695,125.736893 745.128357,122.458916 
	C744.382324,120.519371 741.831238,120.810883 741.685669,118.458649 
	C745.719482,116.460831 750.664856,116.772308 754.397644,114.252487 
	C754.436768,112.727432 752.455017,112.430931 753.371033,110.354546 
	C768.542053,107.440041 779.780090,96.127747 793.389160,90.200714 
	C793.415283,87.410309 790.709717,87.914780 790.690613,85.522331 
	C796.726440,81.669724 802.874329,77.423012 808.176086,72.113853 
	C815.326782,64.953239 823.562866,59.297562 832.890137,55.461754 
	C837.906555,53.398788 841.283630,50.039398 844.536865,45.833763 
	C856.734192,30.065628 867.859680,13.309306 884.000000,1.000000 
	C886.700012,1.000000 889.400024,1.000000 892.820740,1.203832 
	C896.996887,3.595262 898.759460,7.014863 899.796814,10.734274 
	C901.221619,15.842985 902.333557,21.041866 903.485352,26.223053 
	C904.642151,31.426443 905.593567,31.892160 909.956055,28.897629 
	C920.244202,21.835455 930.444153,14.643476 940.792847,7.671879 
	C943.626282,5.763072 946.864380,3.381207 950.420471,5.826336 
	C953.980103,8.273854 952.635437,12.089293 952.155762,15.484865 
	C951.924683,17.120478 951.355408,18.709015 950.929749,20.316341 
	C948.548950,29.306662 945.978699,38.251705 943.820557,47.295097 
	C939.028748,67.373924 939.112671,67.393951 952.151611,82.991646 
	C952.685242,83.630066 953.225220,84.263336 953.750977,84.908234 
	C961.563660,94.491196 967.893250,105.039154 968.715515,117.522728 
	C969.725525,132.856949 977.881714,142.967056 989.738586,151.284241 
	C1001.987427,159.876236 1012.445862,170.775894 1025.000000,179.000000 
	C1025.000000,181.370560 1025.000000,183.741104 1024.779785,186.805389 
	C1018.608826,194.692993 1012.813049,202.052185 1003.250183,204.852127 
	C1002.034729,205.208008 1000.835571,206.067230 999.939636,206.993729 
	C994.562317,212.554474 987.754456,214.179169 980.381836,214.294373 
	C970.958740,214.441650 961.951050,211.916275 952.863953,209.924866 
	C945.223938,208.250580 937.561279,206.591400 929.718384,206.433090 
	C908.013000,205.994904 894.645813,215.881195 888.361755,236.672104 
	C887.090332,240.878616 886.579529,245.356094 884.559570,249.102341 
	C882.274475,249.473618 882.408569,246.786469 880.464783,246.838943 
	C878.091980,252.237366 878.000488,258.719421 873.437500,263.912598 
	C872.633606,261.905884 872.052185,260.454620 871.112610,258.109222 
	C867.308960,267.100372 864.066406,275.405365 857.388550,282.329407 
	C856.554810,280.566864 856.029236,279.455780 855.320801,277.958099 
	C849.735474,287.502411 844.792969,297.064117 836.331421,303.828461 
	C834.257202,302.406097 835.612427,300.034058 833.366638,298.974091 
	C830.746216,299.179626 828.567871,301.048401 826.306763,302.653809 
	C821.153564,306.312714 817.944031,311.639282 814.519043,316.750397 
	C810.718262,322.422302 807.141296,328.258942 802.115906,332.982758 
	C801.065247,333.970367 799.662170,335.994019 798.515930,335.092957 
	C794.817139,332.185364 793.615784,335.642365 791.699585,337.289764 
	C789.431335,339.239777 787.293030,341.342590 784.996399,343.256897 
	C784.186523,343.931976 782.673462,345.084686 782.093079,343.536621 
	C780.950928,340.490662 779.539307,342.427795 778.323059,343.084076 
	C774.224487,345.295563 770.299988,347.852936 766.113831,349.874054 
	C757.790771,353.892517 753.278564,360.634918 751.264465,369.389771 
	C748.118835,383.063385 747.104858,397.017822 746.473206,410.943359 
	C745.371643,435.229370 745.616882,459.557556 745.120789,483.860107 
	C744.854065,496.921570 747.854858,508.879608 752.958191,520.571594 
	C756.454285,528.581299 758.061157,529.741821 766.740906,528.304443 
	C776.924255,526.618042 787.591248,532.134949 794.000000,545.000000 
	C771.312439,545.000000 748.624878,545.000000 725.308777,544.667664 
	C721.490967,535.409363 719.838501,525.462463 714.747803,517.799744 
	C707.346924,506.659546 704.377869,495.622803 703.911499,482.210236 
	C703.127502,459.667969 696.760803,437.664825 693.309631,415.340240 
	C693.030396,413.533661 693.438232,410.775909 690.247742,410.146118 
	C687.734070,413.029785 687.237305,416.736481 686.364868,420.186981 
	C682.537048,435.327179 679.600464,450.734772 674.961548,465.615479 
	C670.726929,479.199310 668.216309,492.576355 670.264038,506.790894 
	C671.310181,514.052734 672.174866,515.523254 679.420532,515.618713 
	C688.426086,515.737366 694.964172,519.842285 699.349243,527.560181 
	C704.269165,536.219360 703.362488,539.772766 695.000000,545.000000 
	C680.312439,545.000000 665.624878,545.000000 650.204346,544.790527 
	C643.320435,541.388123 638.430664,537.129333 637.063965,529.894714 
	C635.513489,521.687500 634.652344,513.391357 635.368591,505.073944 
	C636.002075,497.718384 635.190674,490.786194 631.510803,484.327545 
	C629.764587,481.262665 629.594666,478.222473 630.350891,474.738892 
	C633.347168,460.937500 636.167419,447.135468 636.841919,432.914917 
	C637.526733,418.478241 639.262207,404.093475 640.416626,389.676270 
	C641.265930,379.069916 641.900513,368.446533 642.672424,357.833740 
	C642.946838,354.061188 641.361877,352.335510 637.501343,352.261597 
	C633.180603,352.178864 628.871704,351.605896 624.550110,351.426270 
	C604.398254,350.588806 584.491272,347.930298 564.778076,343.689972 
	C549.626648,340.430817 534.970032,335.444244 520.153503,331.023315 
	C516.139343,329.825592 513.950378,330.875549 512.460510,334.784363 
	C510.388580,340.220184 508.004639,345.546722 505.552246,350.826172 
	C495.882446,371.643280 480.882019,388.184265 463.813507,403.156281 
	C448.615753,416.487335 436.947235,432.237732 432.146057,452.336029 
	C430.883850,457.619568 430.901611,462.828735 432.548340,468.074310 
	C436.752838,481.467529 445.201019,492.530273 452.035339,504.507080 
	C457.145386,513.462280 463.562103,517.321106 473.974030,515.618652 
	C482.498352,514.224854 489.553131,517.982300 494.952942,524.710938 
	C502.476227,534.085754 501.452698,539.357727 491.000000,545.000000 
	C474.645782,545.000000 458.291534,545.000000 441.227966,544.768921 
	C435.441376,541.727600 431.659760,537.624695 428.463257,532.836487 
	C412.678650,509.191406 396.020264,486.175018 383.988403,460.117310 
	C378.721863,448.711426 378.594940,439.490479 386.025574,429.564667 
	C393.718079,419.289032 400.328339,408.289246 405.587891,396.535675 
	C406.242950,395.071808 407.440216,393.306061 405.721649,391.981415 
	C403.934021,390.603485 402.662384,392.414917 401.447998,393.409790 
	C385.418182,406.542084 368.114319,417.764191 349.869781,427.522797 
	C333.860596,436.085754 323.653076,449.763916 315.740723,465.506378 
	C313.641663,469.682678 312.582642,474.217865 312.318085,478.953247 
	C311.619324,491.460419 312.824249,503.924835 313.699066,516.341309 
	C314.401855,526.315552 312.700104,527.853149 325.589172,527.734497 
	C336.091187,527.637817 345.571625,535.287170 348.000000,545.000000 
z"/>
</g>
</svg>