<svg version="1.1" id="Layer_1" xmlns="http://www.w3.org/2000/svg" xmlns:xlink="http://www.w3.org/1999/xlink" x="0px" y="0px"
	 width="100%" viewBox="0 0 1024 544" enable-background="new 0 0 1024 544" xml:space="preserve">
<g data-loadout-mirror="true" transform="translate(1024 0) scale(-1 1)">
<path fill="#000000" opacity="1.000000" stroke="none" 
	d="
M297.909668,268.011719 
	C304.544220,253.998093 309.784607,239.683899 319.866028,227.958694 
	C352.361176,190.165192 391.863647,164.019989 440.626740,151.341034 
	C473.486481,142.797150 505.825043,144.195969 538.535400,150.073929 
	C550.322205,152.191986 562.066650,154.565872 573.887207,156.470215 
	C584.130615,158.120483 594.053040,155.665298 603.981445,153.397415 
	C609.318420,152.178299 614.775391,151.366470 620.221924,150.770767 
	C629.380188,149.769119 636.801025,145.122238 644.094849,140.071396 
	C650.805359,135.424469 657.476685,130.716705 664.284729,126.216347 
	C669.277832,122.915703 674.015259,119.704292 677.479980,114.405525 
	C681.286316,108.584000 687.773926,107.291550 694.422302,108.693260 
	C699.251221,109.711380 703.899780,109.717926 708.707764,108.670349 
	C717.100098,106.841812 725.639404,107.839058 734.119995,107.793045 
	C736.130981,107.782135 738.098938,108.002579 739.759705,106.462616 
	C744.135437,102.405258 749.119751,103.031570 752.896484,106.518463 
	C762.299194,115.199387 774.398193,117.570389 785.820923,121.309311 
	C795.025879,124.322296 803.198242,128.596817 810.655945,134.708511 
	C819.284546,141.779694 828.206238,148.498627 837.109802,155.226151 
	C840.939209,158.119614 843.648376,161.839249 846.033630,165.868057 
	C848.342529,169.767853 848.572876,173.943008 846.179016,177.724991 
	C844.059082,181.074265 843.246704,184.696442 842.281738,188.397415 
	C840.623718,194.756104 837.769470,200.493332 833.016113,205.241425 
	C830.105896,208.148331 825.370361,206.759949 823.108459,208.945114 
	C820.893127,211.085236 821.399475,215.673523 818.338257,218.133835 
	C812.758606,222.618088 806.432190,225.281448 799.429443,226.664780 
	C772.475952,231.989197 755.048950,248.921860 744.052917,273.130585 
	C738.606689,285.120850 733.215088,297.038513 726.119385,308.215088 
	C719.685303,318.349548 716.892029,329.825989 716.250793,341.863770 
	C715.587585,354.315369 715.092102,366.790131 712.690125,379.094482 
	C711.631470,384.517761 711.803894,390.080566 712.478943,395.536835 
	C713.272034,401.946503 719.579529,407.743805 726.422607,408.758301 
	C728.225525,409.025604 730.115479,409.263702 731.898010,409.020569 
	C743.791931,407.398376 752.402710,414.577087 761.590027,420.078186 
	C763.897339,421.459808 765.157166,423.944122 764.779358,426.788605 
	C763.629822,427.925995 762.431152,427.523895 761.374023,427.147980 
	C758.314270,426.059906 756.577881,426.295959 756.912537,430.302704 
	C757.170715,433.393005 755.099731,433.538086 752.950867,432.328003 
	C749.788269,430.547058 746.999878,430.998932 744.104065,432.997223 
	C740.870239,435.228760 737.311523,434.692047 734.090027,433.085693 
	C726.622925,429.362488 718.837769,428.865143 710.714233,429.793213 
	C705.066223,430.438507 699.415771,429.401276 693.779846,428.927643 
	C688.888672,428.516602 685.914978,425.705200 684.514160,421.095154 
	C683.788147,418.705933 682.988953,416.336884 682.334961,413.928314 
	C680.896057,408.629181 678.376526,404.241425 673.645386,401.007263 
	C667.964355,397.123779 665.227234,390.781952 661.807129,385.094482 
	C658.405823,379.438141 655.253906,373.631836 651.479309,366.987854 
	C648.459045,373.091156 647.752686,378.780884 647.330872,384.456268 
	C646.590576,394.415100 646.130188,404.394867 645.566772,414.366669 
	C645.075928,423.054932 654.300720,434.149261 662.977905,433.668121 
	C674.402039,433.034668 683.557861,438.363647 693.127747,442.889801 
	C696.260254,444.371338 698.205017,447.030914 697.959717,450.786255 
	C694.657837,452.764984 691.395630,448.519196 688.243286,451.088074 
	C687.467407,453.119171 689.279175,455.329071 687.496948,458.006378 
	C682.924500,455.224396 678.442627,456.527557 673.959961,459.086700 
	C672.847839,459.721649 670.960083,459.404449 669.554871,459.039673 
	C666.006775,458.118469 662.514893,456.888428 663.085083,464.617737 
	C658.202209,459.341400 653.795532,460.025757 649.301270,461.281219 
	C648.703491,461.448181 647.886230,461.378723 647.339050,461.094452 
	C639.369141,456.953735 630.692444,455.646179 621.944153,454.402313 
	C615.883667,453.540588 611.795593,449.676453 610.723206,443.757965 
	C608.803040,433.160858 602.435913,425.972351 594.363098,419.591461 
	C585.405029,412.510864 580.683655,402.072693 574.328430,392.949127 
	C568.439209,384.494537 562.352295,376.192169 558.681213,366.336243 
	C556.810730,361.314514 551.626587,361.167542 547.079285,361.715210 
	C540.955261,362.452789 535.023376,364.213440 529.320740,366.598877 
	C518.073486,371.303497 506.526764,375.055878 494.528229,377.231873 
	C490.087067,378.037323 486.963562,380.073730 484.726013,384.008606 
	C481.090302,390.402252 475.359070,395.108032 470.402649,400.225281 
	C471.895264,403.160309 474.114105,403.476898 476.509827,403.767181 
	C484.474152,404.732178 492.462769,404.729492 500.460266,404.651337 
	C509.969818,404.558380 517.852722,408.656464 525.012146,414.417877 
	C526.958618,415.984253 528.499329,418.015320 527.797791,420.846588 
	C520.891968,422.592560 513.717957,422.879211 507.472473,426.782043 
	C504.360260,428.726868 500.687317,428.144318 497.283508,427.019409 
	C492.464203,425.426666 487.519165,425.047302 482.494232,425.171814 
	C465.328888,425.597107 448.178192,425.131226 431.033112,424.312500 
	C427.684784,424.152618 424.411346,423.574677 421.259674,422.471008 
	C416.313232,420.738770 413.916504,416.912109 414.321381,411.683990 
	C414.462494,409.861725 414.722534,408.026886 414.628510,406.213348 
	C414.493744,403.613831 412.691559,401.996704 410.590637,400.878693 
	C408.299164,399.659210 407.260559,401.917877 406.125793,403.088654 
	C399.697418,409.721130 392.575684,415.393585 384.379425,419.703918 
	C382.971252,420.444519 380.988770,421.177734 381.601532,423.291656 
	C382.126556,425.102997 383.988647,425.325745 385.671906,425.646667 
	C392.936127,427.031586 400.286255,426.365875 407.592560,426.711426 
	C417.101501,427.161224 425.380371,430.953033 432.143433,437.549225 
	C434.931091,440.268097 437.227051,443.745331 436.054291,448.411285 
	C434.298401,448.411285 432.701447,448.411285 431.313324,448.411285 
	C429.601471,450.012329 430.040588,452.495514 427.999176,453.897827 
	C425.113586,453.198761 422.313995,450.645111 418.798950,452.560608 
	C417.122162,453.474335 414.893524,453.277222 414.080994,455.688080 
	C413.538269,457.298309 411.995148,457.435638 410.795776,456.490967 
	C408.143921,454.402283 405.487244,454.544281 402.401398,455.450409 
	C400.796082,455.921814 398.618408,455.596588 397.054169,454.868591 
	C386.762970,450.079620 375.604523,450.536011 364.742676,449.444427 
	C352.825745,448.246796 340.786591,447.699615 329.116852,445.058746 
	C319.471558,442.875946 305.104553,431.630066 309.159058,416.762177 
	C312.537354,404.374023 307.162933,394.756073 298.135895,386.668030 
	C295.092377,383.941101 292.494598,385.506287 290.197113,387.589294 
	C286.373871,391.055695 282.848114,394.848907 279.048645,398.343048 
	C261.490417,414.490204 239.942398,421.147308 216.939621,424.306122 
	C205.293198,425.905457 193.698578,425.801300 182.180252,423.270233 
	C173.141953,421.284088 171.494843,418.167847 175.780197,409.948456 
	C186.006424,390.334381 202.062546,377.683197 222.994019,370.880798 
	C233.905518,367.334717 245.161972,364.816284 255.598618,359.821991 
	C260.912933,357.278961 265.768188,354.110657 270.131805,350.208282 
	C277.511597,343.608582 281.994690,335.502258 282.584930,325.453278 
	C283.763245,305.393036 289.976898,286.667267 297.909668,268.011719 
z"/>
</g>
</svg>