<svg version="1.1" id="Layer_1" xmlns="http://www.w3.org/2000/svg" xmlns:xlink="http://www.w3.org/1999/xlink" x="0px" y="0px"
	 width="100%" viewBox="0 0 1024 544" enable-background="new 0 0 1024 544" xml:space="preserve">
<path fill="#000000" opacity="1.000000" stroke="none" 
	d="
M668.000000,545.000000 
	C651.979126,545.000000 635.958191,545.000000 619.516357,544.660767 
	C625.167786,536.258118 633.371582,530.416504 640.717773,523.689941 
	C645.628845,519.193054 651.474670,515.390564 654.366455,509.267578 
	C665.381042,485.945251 676.875916,462.751953 682.050232,437.202728 
	C685.615662,419.597748 684.491333,402.454468 675.841125,386.246002 
	C672.785522,380.520508 669.989746,374.658966 667.693359,368.563293 
	C661.535583,352.217712 656.676941,335.373444 648.899414,319.647919 
	C645.307556,312.385376 645.071472,312.113007 638.257935,316.043671 
	C602.641479,336.590454 564.521484,341.547516 524.379761,334.932495 
	C507.952148,332.225342 491.429230,330.162109 474.690094,331.222992 
	C466.649994,331.732544 464.764862,333.719360 465.418518,341.811157 
	C466.937622,360.616333 467.349182,379.362091 463.385254,397.975281 
	C460.952362,409.399384 463.922211,421.322510 460.253418,432.670563 
	C459.065948,436.343536 459.321838,440.228912 459.217896,444.063080 
	C458.658325,464.701477 462.859772,484.728729 466.731171,504.815155 
	C468.043274,511.622955 471.354980,518.087097 470.335968,525.314941 
	C470.118561,526.856995 469.865326,528.363770 468.275085,529.024231 
	C466.774292,529.647583 465.848755,528.507751 464.804962,527.658203 
	C461.092529,524.636658 460.043365,525.099304 458.310577,529.681885 
	C456.409821,534.708740 458.282623,539.972900 457.000000,545.000000 
	C440.979095,545.000000 424.958221,545.000000 408.625916,544.705688 
	C414.792236,537.264465 421.193390,530.045898 427.781616,523.002319 
	C430.837250,519.735474 432.875854,516.109314 433.782043,511.727570 
	C437.255768,494.931335 436.955811,478.058105 435.269257,461.099426 
	C434.538177,453.747986 432.687958,446.882904 430.050629,439.943329 
	C426.285522,430.036102 423.591492,419.724976 422.435486,409.035370 
	C421.947845,404.526642 422.620819,399.621307 420.437531,395.098572 
	C418.111877,396.501770 418.424591,398.371521 418.000366,399.908356 
	C415.641418,408.454193 416.589325,417.583588 413.888184,425.998688 
	C404.297302,455.877655 406.053528,486.384186 408.355438,516.943726 
	C408.620239,520.459290 408.894653,523.956787 407.804749,527.335205 
	C406.811096,530.415100 404.864014,531.199646 402.118713,529.069214 
	C397.499817,525.484741 396.682587,525.929504 395.181763,531.783264 
	C394.063324,536.145691 395.192169,540.844421 393.000000,545.000000 
	C376.979095,545.000000 360.958221,545.000000 344.525635,544.662109 
	C347.273712,539.312500 351.669983,535.413452 356.208038,531.808411 
	C368.375549,522.142456 377.005096,510.447723 379.169006,494.643005 
	C379.709686,490.694031 380.700409,486.807587 381.271240,482.861572 
	C383.012604,470.823853 385.037445,458.554932 383.046356,446.608154 
	C381.270233,435.951477 379.701477,425.270966 378.150360,414.583038 
	C377.403870,409.439117 377.644928,404.339264 378.183075,399.164856 
	C379.062622,390.707001 379.010773,382.275452 376.769470,373.895966 
	C373.460052,361.523346 368.907867,349.424957 367.414978,336.639069 
	C366.758026,331.012329 364.457825,327.453156 359.214905,325.375946 
	C350.815826,322.048248 344.991699,315.683716 340.171631,308.302826 
	C337.986237,304.956390 335.675781,301.649170 333.897552,298.086792 
	C327.187103,284.643738 316.992096,275.610687 302.680939,270.454224 
	C292.550201,266.804047 282.440430,262.759216 273.068329,257.227539 
	C261.912506,250.643021 264.482086,252.250153 262.412048,263.098572 
	C261.767578,266.475983 262.643890,270.506744 259.812958,272.946655 
	C257.144928,275.246124 257.251068,277.784821 257.570740,280.597656 
	C258.058136,284.886230 258.837585,289.146027 259.201874,293.442719 
	C259.477997,296.698883 259.798523,300.106628 257.072449,303.023529 
	C254.699432,302.133850 252.691818,302.084290 251.654678,305.131744 
	C251.116226,306.713898 249.471146,307.041321 247.844040,306.283173 
	C246.985596,305.883209 246.314270,305.292358 245.116440,305.764954 
	C240.750610,307.487427 238.527634,306.401306 236.988220,302.001007 
	C236.094528,299.446472 236.043564,296.778961 236.000427,294.103455 
	C235.946793,290.775665 236.115021,287.396149 235.592621,284.134216 
	C234.551270,277.632050 230.137817,275.025879 224.081497,277.376556 
	C220.648849,278.708893 217.574631,278.149872 215.244797,275.913422 
	C209.415268,270.317566 201.902863,266.554016 198.195221,258.581390 
	C195.259842,252.269409 190.134293,251.753189 184.647614,256.191895 
	C181.517105,258.724487 179.209244,262.026001 176.652512,265.098633 
	C168.802475,274.532562 161.006790,276.662506 149.534378,272.669067 
	C148.290482,272.236084 146.868332,271.425018 145.741318,271.690674 
	C138.362549,273.429962 131.550705,270.603271 124.621002,269.166901 
	C117.030693,267.593597 112.660057,260.542542 114.435974,252.945038 
	C115.958466,246.431686 116.711128,239.917389 117.104698,233.234161 
	C117.564896,225.419525 119.474457,217.845917 124.552193,211.361771 
	C132.806915,200.820694 141.441635,190.763718 153.009506,183.605164 
	C156.961990,181.159241 160.614029,178.209503 164.299149,175.355423 
	C167.556427,172.832718 170.019241,169.858673 169.759430,165.281647 
	C169.621597,162.853653 171.081863,160.888641 172.648560,159.088150 
	C179.747086,150.930389 179.261551,149.670670 168.218338,147.496933 
	C167.729019,147.400635 167.224350,147.383072 166.734177,147.290161 
	C156.815323,145.409851 146.792145,146.338943 136.823853,146.365417 
	C123.069702,146.401962 110.024681,143.462387 97.663795,137.704865 
	C84.522888,131.584000 74.372269,122.331284 69.347610,108.288368 
	C68.448822,105.776443 67.876488,103.219086 69.476242,100.692772 
	C72.974724,100.693443 74.058090,103.386116 75.538857,105.467255 
	C79.738113,111.369072 84.681061,116.500031 90.880234,120.295029 
	C92.463074,121.264008 94.160957,122.767616 96.332489,121.312775 
	C96.740158,119.089806 95.311432,117.475548 94.619743,115.659950 
	C92.463463,109.999908 90.704842,104.271751 92.136612,98.143387 
	C92.493164,96.617264 92.893402,94.614426 95.065048,94.621353 
	C96.901978,94.627197 97.369957,96.366211 97.899857,97.720520 
	C99.051468,100.663811 99.857414,103.756187 101.169968,106.620193 
	C105.991768,117.141457 113.094688,125.458611 124.338875,129.467026 
	C126.126266,130.104202 128.336807,131.361542 129.945831,129.478256 
	C131.704727,127.419579 130.114517,125.328972 129.016220,123.539421 
	C127.013672,120.276512 124.788277,117.150703 122.667465,113.959976 
	C116.344040,104.446434 107.399529,97.236198 100.243340,88.478104 
	C92.280861,78.733238 86.992531,67.678406 86.852783,54.804008 
	C86.820686,51.847420 86.780060,47.304317 90.414619,46.918087 
	C93.785408,46.559887 93.577316,51.072453 94.240074,53.566593 
	C97.957184,67.555237 106.480072,78.170357 117.381439,87.115051 
	C119.026093,88.464508 121.112656,91.078506 123.424164,89.452599 
	C126.144272,87.539276 124.166199,84.581360 123.565956,82.099480 
	C123.335129,81.145035 122.763115,80.275696 122.370888,79.357193 
	C121.457352,77.217957 120.470093,75.103905 119.691299,72.916077 
	C119.303581,71.826851 119.258514,70.526428 120.294968,69.669357 
	C121.401039,68.754723 122.507996,69.373161 123.511368,70.002464 
	C124.356628,70.532600 125.114380,71.205360 125.971054,71.713547 
	C127.463211,72.598709 128.757141,74.723625 130.745499,73.445236 
	C132.554108,72.282410 131.838791,70.089203 131.682602,68.336304 
	C131.083618,61.613266 128.097351,55.551815 126.196014,49.188187 
	C123.403847,39.842979 121.243774,30.445099 124.346741,20.749104 
	C125.212578,18.043579 125.499504,13.789404 129.260330,14.372112 
	C132.482300,14.871330 131.206497,18.801765 131.337280,21.304335 
	C131.910461,32.272305 134.160431,42.750656 140.028809,52.208954 
	C141.254578,54.184563 142.557709,56.490425 145.263397,56.270821 
	C148.068817,56.043118 149.419846,53.720768 150.437012,51.365574 
	C151.769806,48.279552 152.083771,44.947895 152.734268,41.684189 
	C153.876923,35.951046 152.870331,30.010536 154.595993,24.363993 
	C155.042007,22.904648 155.623001,21.258247 157.390305,21.270773 
	C159.097260,21.282866 159.864182,22.798155 160.235489,24.315769 
	C161.025513,27.544903 161.625000,30.824686 162.520538,34.022682 
	C163.214279,36.500072 164.489838,38.702286 167.333176,39.240887 
	C170.379669,39.817978 172.513123,38.192848 174.038879,35.865128 
	C175.491150,33.649498 176.664230,31.241610 177.851639,28.864098 
	C179.187759,26.188826 180.310379,23.404282 181.705856,20.762344 
	C182.498718,19.261320 183.797592,17.869621 185.691330,18.445135 
	C187.431305,18.973915 187.330948,20.755808 187.342743,22.264290 
	C187.357086,24.096935 187.318726,25.929943 187.325897,27.762707 
	C187.333176,29.626472 187.349762,31.583765 189.382065,32.469532 
	C191.464645,33.377220 193.377808,32.619175 194.855042,31.113842 
	C196.951675,28.977331 198.818207,26.616388 200.887466,24.451117 
	C202.225952,23.050518 203.613098,21.012289 205.896011,22.267891 
	C208.113541,23.487537 207.167938,25.731058 206.935196,27.681667 
	C206.579880,30.659477 204.437759,33.537926 206.215576,36.775757 
	C208.521240,37.023918 209.692810,35.500454 210.991760,34.282169 
	C213.299072,32.118114 215.506302,29.843430 217.873947,27.749052 
	C219.322845,26.467382 221.190033,25.832930 222.942703,26.976431 
	C224.960419,28.292870 224.245407,30.233025 223.364182,31.880421 
	C215.051254,47.421024 207.982971,63.695286 196.405792,77.314209 
	C194.313431,79.775589 191.333145,81.586060 190.161972,84.911766 
	C194.504013,88.551208 196.658936,93.571671 199.985504,97.707954 
	C203.205811,101.712128 205.873505,106.355606 211.190079,108.647018 
	C211.959320,105.694084 211.570450,103.425964 211.192001,101.124687 
	C210.924393,99.497398 210.750458,97.801170 210.906952,96.171463 
	C211.094345,94.219688 211.322098,91.805801 213.816986,91.539909 
	C216.069199,91.299866 216.648453,93.478630 217.309799,95.175797 
	C217.914230,96.726936 218.522614,98.285446 218.979248,99.883575 
	C220.323990,104.589844 222.667313,108.807289 225.324707,112.851746 
	C229.518250,119.234184 234.732819,121.835846 240.253067,120.463287 
	C246.200165,118.984612 251.226501,112.513191 251.865158,105.638763 
	C252.891830,94.587395 250.669952,84.100853 246.497910,73.934731 
	C244.854034,69.929062 243.229904,65.915154 241.622269,61.894806 
	C240.930954,60.165913 240.120361,58.194874 242.099747,56.942551 
	C244.031509,55.720364 245.590866,57.258259 246.906921,58.503853 
	C248.230698,59.756741 249.397766,61.185009 250.560379,62.596638 
	C256.033386,69.241821 259.470245,76.968964 262.673889,84.876564 
	C264.963348,90.527687 267.781250,90.839149 271.688782,86.085808 
	C273.358704,84.054443 274.711548,81.690933 275.852570,79.307922 
	C282.974030,64.434837 282.414612,48.610001 281.373535,32.757263 
	C281.143372,29.252842 278.743073,23.990515 282.750641,22.990849 
	C287.630951,21.773462 288.054077,27.751356 289.411682,31.274847 
	C292.197296,38.504456 292.747131,46.168549 293.352783,53.798191 
	C293.550995,56.294678 293.236969,59.272873 296.165741,60.137360 
	C299.205292,61.034538 300.366211,58.066757 301.809875,56.147827 
	C305.671204,51.015347 308.116882,45.211559 309.660217,39.002743 
	C312.085571,29.245306 312.909454,19.324654 312.749390,9.297915 
	C312.704224,6.468415 312.555420,3.610664 314.000000,1.000000 
	C315.714355,1.000000 317.428711,1.000000 319.641846,1.382240 
	C320.525940,3.037970 320.877411,4.322878 321.302002,5.583137 
	C324.470337,14.986597 323.082428,24.714350 323.361053,34.322819 
	C323.409607,35.998165 323.254700,37.888958 325.007111,38.736980 
	C327.092896,39.746323 328.491119,38.078751 329.689026,36.778755 
	C333.594177,32.540894 335.883026,27.368139 337.888306,22.045877 
	C340.472382,15.187492 341.077209,7.757643 344.000000,1.000000 
	C345.388885,1.000000 346.777802,1.000000 348.693909,1.406029 
	C352.154663,9.991920 347.645782,18.471449 349.595062,26.682287 
	C352.686371,26.855118 353.751953,25.007744 354.676758,23.307133 
	C356.423187,20.095673 357.901337,16.739452 359.544891,13.470495 
	C360.486450,11.597693 361.154541,8.788631 363.823578,9.452832 
	C366.264343,10.060225 365.994537,12.844121 366.250366,14.973322 
	C366.711975,18.815081 364.614227,22.530519 365.457550,27.183817 
	C366.970734,25.060162 368.013580,23.573233 369.081055,22.104160 
	C370.527466,20.113605 371.844818,17.301697 374.812286,18.382298 
	C377.667725,19.422115 377.139984,22.467314 377.141510,24.932417 
	C377.142029,25.748837 376.892822,26.572025 376.708801,27.380981 
	C371.258911,51.338470 358.726288,70.877846 339.769135,86.360680 
	C326.686340,97.045753 312.224091,105.641022 297.613708,114.014984 
	C294.562927,115.763527 291.255463,117.373566 288.782959,121.644325 
	C292.585907,120.917831 295.414795,120.246590 298.281647,119.850235 
	C323.674194,116.339676 348.066711,109.867355 371.089752,98.070831 
	C386.227173,90.314713 402.780426,86.735390 419.937469,87.924759 
	C432.411530,88.789490 444.716949,90.896980 456.548615,95.289207 
	C468.921082,99.882217 480.590179,105.958961 492.381622,111.794426 
	C505.276184,118.175865 518.534180,123.949104 532.939941,125.340324 
	C568.387939,128.763687 603.854553,126.747368 639.240173,124.021904 
	C654.703918,122.830856 670.142578,121.161758 685.617065,122.377251 
	C713.741333,124.586365 739.515808,134.517670 763.553406,148.669128 
	C781.462036,159.212296 795.510498,173.208954 797.802124,195.635635 
	C798.682922,204.255203 796.800659,206.883652 788.664673,205.904785 
	C788.536743,206.365479 788.274902,206.842499 788.293518,207.308304 
	C789.152527,228.797974 785.134033,249.778564 781.382141,270.745270 
	C777.259460,293.783844 779.649719,315.473083 792.749695,335.407837 
	C799.479126,345.648285 808.009094,354.317352 816.503845,363.026184 
	C819.838623,366.444946 822.452881,370.091278 822.331604,375.253510 
	C821.540649,408.917664 826.840088,441.923462 833.485962,474.748688 
	C835.950378,486.920837 837.415039,499.463074 844.338928,510.317474 
	C845.552063,512.219360 845.365723,514.483398 845.324097,516.654053 
	C845.251221,520.460754 843.706055,522.506348 839.681885,520.937378 
	C836.125916,519.550903 834.720337,521.804749 833.642212,524.354065 
	C832.042480,528.136719 831.890320,532.223450 832.586853,536.159363 
	C833.134521,539.254395 832.753418,542.091614 832.000000,545.000000 
	C816.312439,545.000000 800.624878,545.000000 784.593262,544.688660 
	C789.018982,538.822754 793.992554,533.427917 798.504395,527.671265 
	C803.615845,521.149658 807.172852,514.039307 806.666260,505.235687 
	C805.670776,487.937439 803.870178,470.765442 800.643005,453.730835 
	C795.543823,426.815338 784.396851,403.080688 764.024658,384.312317 
	C755.406921,376.373016 747.833557,367.584106 740.570068,358.451874 
	C735.908447,352.590973 731.038574,346.891632 726.142944,341.222748 
	C724.115601,338.875214 721.893860,336.634613 718.692932,335.376648 
	C716.813660,339.025696 717.206482,342.504089 717.713013,345.934967 
	C719.301147,356.693542 722.540161,366.954895 726.830627,376.948486 
	C734.768921,395.438843 733.955444,395.154572 725.741272,413.615173 
	C709.758179,449.535431 691.917480,484.908264 687.416077,524.825562 
	C687.053101,528.044617 686.171997,531.334290 682.882202,532.642029 
	C679.135071,534.131592 678.923035,529.327820 676.359314,528.307312 
	C673.639771,529.023804 672.398560,531.287537 671.547668,533.577881 
	C670.161255,537.309570 669.162415,541.185181 668.000000,545.000000 
M188.267212,106.009872 
	C190.298355,106.940742 191.888901,108.913773 194.926407,108.705513 
	C191.918396,101.923912 188.966019,95.393517 187.307724,87.588638 
	C178.944489,95.706474 171.339508,103.086861 166.515915,112.754974 
	C163.879761,118.038681 162.605667,123.542725 166.694519,128.681366 
	C169.792755,132.575073 182.290588,135.378143 186.980789,133.505127 
	C186.920441,131.594269 185.667206,130.185989 184.736664,128.665604 
	C181.567093,123.487053 179.551514,117.857834 178.822723,111.881851 
	C178.479233,109.065376 177.215698,105.436058 180.014511,103.471649 
	C182.764603,101.541443 185.165466,104.531563 188.267212,106.009872 
z"/>
</svg>