<svg version="1.1" id="Layer_1" xmlns="http://www.w3.org/2000/svg" xmlns:xlink="http://www.w3.org/1999/xlink" x="0px" y="0px"
	 width="100%" viewBox="0 0 1024 544" enable-background="new 0 0 1024 544" xml:space="preserve">
<path fill="#000000" opacity="1.000000" stroke="none" 
	d="
M313.270050,489.087036 
	C317.190491,497.355377 314.587128,502.969543 306.434143,505.636383 
	C291.114838,510.647278 275.829498,508.580109 260.562073,505.726379 
	C253.180267,504.346619 249.722351,498.749268 248.382965,492.029877 
	C245.195068,476.037140 240.068314,460.517792 237.241913,444.427063 
	C235.587585,435.008911 236.160431,425.488739 234.836670,416.089325 
	C234.118134,410.987213 233.681870,405.845886 233.001221,400.737823 
	C231.995941,393.193512 233.096130,386.124390 239.428223,381.315338 
	C249.733749,373.488647 256.562225,363.224976 261.496826,351.572876 
	C265.701233,341.644928 270.625977,332.005005 272.199463,321.050690 
	C273.092041,314.836761 271.576538,309.093414 270.448639,303.306091 
	C267.522461,288.291321 264.977020,273.222015 262.664856,258.106110 
	C262.348907,256.040588 261.694183,254.026901 260.603668,251.990234 
	C257.435028,256.775543 257.233612,262.255615 256.325592,267.454834 
	C251.293335,296.269135 247.468231,325.282104 240.405792,353.749146 
	C234.054489,379.349854 225.323410,403.840210 210.063065,425.548676 
	C195.884338,445.718475 180.192459,464.789917 157.854324,476.255066 
	C136.083969,487.428802 112.648117,493.889709 88.043144,495.345886 
	C73.780151,496.189972 62.928802,490.330811 55.052616,477.861664 
	C58.590508,475.137909 59.796978,470.662537 62.223591,466.930298 
	C68.139854,457.830750 76.945099,453.789581 87.391975,452.704620 
	C96.319862,451.777435 105.265381,451.008392 114.181534,449.981964 
	C139.267761,447.094238 157.440765,433.013611 172.154724,413.633759 
	C188.863220,391.626892 197.285797,366.125824 202.588577,339.432739 
	C207.521011,314.603973 209.918228,289.438599 211.684998,264.223816 
	C213.557800,237.496216 218.973389,211.567062 228.192596,186.416214 
	C240.992737,151.496246 266.512848,128.869293 299.447510,114.004829 
	C324.014404,102.917000 350.162811,96.624336 376.789734,93.074951 
	C393.655823,90.826683 410.698181,92.444115 427.549072,94.916023 
	C448.794403,98.032570 470.186249,99.732506 491.544281,101.797821 
	C521.841980,104.727608 552.151672,107.658043 581.974243,114.098663 
	C589.848816,115.799286 597.804749,116.159798 605.816528,115.919022 
	C613.980103,115.673683 622.119385,115.649300 630.279663,116.465652 
	C640.307190,117.468803 649.177673,113.518555 657.920837,109.231560 
	C667.916687,104.330322 677.622070,98.690163 688.991455,97.276642 
	C699.321594,95.992332 709.752014,95.955254 719.828186,97.979622 
	C734.281677,100.883423 747.789062,98.377075 761.528992,94.261147 
	C781.768188,88.198257 802.150024,82.573227 822.611267,77.306442 
	C831.881226,74.920319 838.915161,70.112938 844.209778,62.354679 
	C845.990601,59.745228 847.730957,57.094772 850.140564,54.970142 
	C858.992554,47.165203 870.215759,49.619637 875.116516,60.428562 
	C875.925415,62.212681 875.978455,64.350647 877.595032,65.857819 
	C880.120667,66.021774 881.967651,64.408508 883.880981,63.230572 
	C887.566406,60.961617 891.040588,58.352406 894.690918,56.022869 
	C897.668884,54.122395 900.604797,50.599613 904.484436,53.345024 
	C908.275635,56.027920 908.388672,60.812740 906.881348,64.339020 
	C903.670654,71.850113 905.229553,76.404831 912.184204,80.981361 
	C919.351318,85.697731 925.337891,92.202461 931.869080,97.892487 
	C936.916077,102.289482 940.130554,107.579041 941.701294,114.240288 
	C944.345093,125.452248 948.221558,136.183029 955.633057,145.414810 
	C958.827881,149.394363 961.215088,154.057800 962.496643,159.184296 
	C963.705322,164.019012 962.602539,168.178314 959.156799,171.569366 
	C955.906921,174.767685 953.259521,178.253220 951.340698,182.423325 
	C949.649109,186.099396 947.168213,189.247192 943.110596,190.730820 
	C941.272766,191.402817 940.320618,192.980606 939.367798,194.585068 
	C931.848328,207.247101 918.342224,210.892715 907.450867,201.146988 
	C894.661255,189.702652 880.287903,187.076950 863.967590,186.021210 
	C842.941040,184.661057 829.962158,196.595718 818.143982,210.362396 
	C809.275940,220.692490 801.205444,231.758728 792.076416,241.930786 
	C787.895752,246.588943 785.232727,252.100861 783.363892,258.071838 
	C779.334534,270.945740 775.038513,283.731140 768.862732,295.780365 
	C764.797241,303.712341 760.033020,311.493408 752.827209,316.619659 
	C741.918274,324.380341 737.466187,334.678284 736.451660,347.508362 
	C734.981445,366.101074 730.279785,384.237244 727.913696,402.709686 
	C726.224365,415.898468 725.734131,429.215546 723.457947,442.362854 
	C722.128723,450.040558 723.865112,457.578461 726.415894,464.916840 
	C727.370361,467.662476 728.856079,469.051788 731.840698,468.959045 
	C740.858765,468.678772 748.718079,471.404053 755.644897,477.419800 
	C759.574524,480.832581 763.738220,484.260956 762.921082,489.671997 
	C761.989136,495.842926 757.968811,500.554504 752.027222,503.017273 
	C749.932678,503.885468 747.498901,504.175568 745.201904,504.264984 
	C740.351685,504.453857 737.089783,505.858643 733.694885,510.238525 
	C728.209961,517.314819 719.333679,518.720093 710.587402,518.046753 
	C707.703125,517.824829 705.186646,518.165222 702.382263,518.790894 
	C688.900146,521.798706 676.303589,518.872253 664.671753,511.763306 
	C661.054077,509.552338 659.993469,505.395691 658.828247,501.562744 
	C656.444763,493.722107 655.847046,485.561249 654.687012,477.503662 
	C654.151917,473.787048 653.108643,470.395813 649.982727,467.918030 
	C647.622253,466.046997 646.371704,463.458069 646.692749,460.443726 
	C648.828857,440.387726 643.654724,421.118286 640.467163,401.635376 
	C637.965576,386.345459 637.396973,370.856262 635.676086,355.485901 
	C634.843750,348.051178 634.151001,340.606598 632.389954,333.299896 
	C631.320496,328.862793 629.003235,326.546356 624.205566,326.117157 
	C599.498779,323.906860 574.824341,321.799713 549.949890,322.194489 
	C528.363831,322.537048 507.133087,319.340179 486.619720,312.297272 
	C469.580780,306.447205 453.067993,299.358490 437.198914,290.801086 
	C431.113678,287.519623 424.728027,285.391052 417.697571,285.313843 
	C413.405609,285.266754 410.915710,286.972198 409.670319,291.163971 
	C406.211243,302.806946 403.158691,314.591370 398.453583,325.828033 
	C397.040558,329.202576 395.710297,332.698425 393.718506,335.728760 
	C385.631378,348.032501 379.224121,361.190308 373.362793,374.639954 
	C367.880280,387.220337 359.805206,398.334656 353.315918,410.340118 
	C347.882599,420.392090 346.286804,431.391663 346.049103,442.655396 
	C345.943970,447.638123 347.535217,452.159485 349.884491,456.452362 
	C355.010040,465.818451 361.013641,474.636414 366.795532,483.595947 
	C369.117828,487.194458 372.159515,487.825958 375.835815,486.570587 
	C386.180267,483.038330 394.672699,486.438843 402.499542,493.202148 
	C407.237091,497.295959 409.068695,502.247498 408.223969,508.324768 
	C407.561584,513.089966 404.274658,515.767944 398.751587,517.238220 
	C381.709625,521.774841 364.714081,519.535828 347.721985,517.195496 
	C343.786865,516.653503 340.639862,514.348389 338.436340,510.966614 
	C322.161438,485.989502 305.027618,461.548584 291.495422,434.867432 
	C289.101746,430.147919 287.675018,425.015381 284.898743,419.536407 
	C279.903015,425.097565 277.665833,431.161469 277.486938,437.574554 
	C277.156860,449.405914 279.380249,461.060028 281.395294,472.685791 
	C281.841858,475.262299 283.304932,477.237244 286.208252,476.468781 
	C298.590118,473.191437 305.886993,480.811523 313.270050,489.087036 
z"/>
</svg>