<svg version="1.1" id="Layer_1" xmlns="http://www.w3.org/2000/svg" xmlns:xlink="http://www.w3.org/1999/xlink" x="0px" y="0px"
	 width="100%" viewBox="0 0 1024 544" enable-background="new 0 0 1024 544" xml:space="preserve">
<path fill="#000000" opacity="1.000000" stroke="none" 
	d="
M505.177246,493.117676 
	C505.513916,496.212158 506.023804,498.849243 506.065765,501.493774 
	C506.122314,505.058929 507.670898,509.564270 501.347412,509.777313 
	C499.720856,509.832092 499.621582,511.939758 499.266418,513.400269 
	C496.054138,526.609863 485.916168,532.127808 472.627136,527.932556 
	C467.860077,526.427612 466.955597,524.034973 469.919617,519.697510 
	C472.819458,515.453979 475.972656,511.463470 478.434784,506.846161 
	C484.342163,495.767883 486.066467,483.860840 486.603058,471.663574 
	C486.954407,463.676910 486.346191,455.635345 486.935242,447.675140 
	C487.629364,438.294861 484.239838,429.768677 482.843109,419.743134 
	C479.338623,426.401306 478.964508,432.674469 478.551758,438.675537 
	C477.228241,457.918304 475.118561,477.155121 476.939789,496.518066 
	C477.241333,499.723999 477.932343,504.520599 471.780243,503.929535 
	C470.045593,503.762878 469.722260,505.360199 469.291321,506.579407 
	C468.514984,508.775787 467.910370,511.034271 467.099213,513.216675 
	C465.727142,516.908203 463.204285,519.363770 459.225983,520.123108 
	C454.464569,521.031921 449.671204,521.585815 444.817047,521.260315 
	C442.483948,521.103882 439.934418,521.016235 438.635162,518.715576 
	C437.179993,516.138672 439.326691,514.325806 440.635925,512.510681 
	C443.348206,508.750458 446.015045,504.909729 448.767609,501.241455 
	C457.195221,490.009796 457.979065,476.881348 459.601929,463.885101 
	C460.426117,457.284515 460.756958,450.622894 461.554352,444.018250 
	C462.589996,435.439728 460.685486,427.122894 459.584381,418.741455 
	C458.208679,408.270020 458.497009,397.774414 459.005432,387.297058 
	C459.576965,375.519348 457.297302,364.111420 455.267731,352.649719 
	C454.487335,348.242523 451.878296,345.457428 447.490448,344.569336 
	C436.402496,342.325287 428.556458,336.015717 423.606995,325.918091 
	C422.954468,324.586823 422.154022,323.195953 421.068909,322.228973 
	C408.255463,310.810333 399.061493,295.850494 385.036957,285.594482 
	C380.582062,282.336670 377.188385,277.863159 373.968353,273.416779 
	C363.344330,258.746704 351.266632,244.963669 345.409088,227.324356 
	C344.225159,223.759140 342.047546,222.147125 337.829742,222.656540 
	C333.759827,223.148102 329.535706,222.387390 325.381104,222.146667 
	C321.184509,221.903488 317.170105,222.490479 313.079224,223.653656 
	C307.554321,225.224548 301.819977,225.663345 297.022705,221.408676 
	C292.014648,216.967072 286.935059,212.573593 289.397614,204.570099 
	C290.339935,201.507370 292.076355,199.201889 294.363525,197.267990 
	C301.391968,191.325165 307.002838,184.000580 313.656586,177.697769 
	C314.900055,176.519913 316.082855,167.360580 315.226654,166.191559 
	C314.402893,165.066833 313.131073,165.323608 312.007721,165.273834 
	C300.823303,164.778229 292.864746,159.166519 287.508759,149.637283 
	C284.409576,144.123276 281.546936,138.473328 278.693542,132.826065 
	C277.876556,131.209076 277.149261,129.425873 276.935120,127.651978 
	C276.564056,124.578217 275.698059,121.176941 278.645081,118.796875 
	C281.399139,116.572655 284.021576,118.517288 286.601593,119.505638 
	C300.889618,124.979126 315.599182,129.379684 329.822144,136.749985 
	C329.615417,133.562180 327.853546,132.041733 326.051178,130.475601 
	C319.167755,124.494370 310.570923,122.182228 302.246094,119.297417 
	C293.108765,116.131042 283.974487,112.955215 275.783997,107.660522 
	C265.844421,101.235107 263.467987,90.323112 269.757141,80.254944 
	C270.532349,79.013954 271.195831,77.297974 273.103516,78.056503 
	C274.667908,78.678520 274.263367,80.291901 274.154785,81.579521 
	C273.945648,84.058350 273.261047,86.556328 273.444733,88.995834 
	C273.759094,93.170845 275.553192,96.558296 280.340729,98.001236 
	C281.770386,92.525902 280.022827,87.570366 279.104889,82.636009 
	C277.382599,73.377983 276.671570,64.152946 278.850159,54.902485 
	C279.280731,53.074310 279.367065,50.831734 281.761749,50.006554 
	C284.067017,50.760975 283.995605,52.753658 283.871826,54.510918 
	C282.843140,69.114037 288.085815,82.677216 290.948578,96.611633 
	C292.083557,102.136139 299.671387,107.125702 305.383484,107.347153 
	C308.877655,107.482620 310.333771,105.031006 310.412994,102.297829 
	C310.681641,93.029030 311.938904,83.697098 308.381836,74.627663 
	C305.465454,67.191788 303.176941,59.539146 302.186646,51.539600 
	C301.219727,43.728504 302.549622,36.291725 305.352661,29.049240 
	C305.946686,27.514435 306.702881,25.447498 308.669067,25.915012 
	C311.159851,26.507263 310.309357,28.868034 310.009186,30.557207 
	C307.931305,42.250797 309.671692,53.430386 314.400940,64.215218 
	C315.262115,66.179176 316.090912,68.678833 318.464417,68.886993 
	C320.865845,69.097610 322.022339,66.713112 323.193878,64.923706 
	C328.428894,56.927898 331.069092,47.652172 335.731964,39.375450 
	C336.987885,37.146175 337.686981,34.330540 340.709351,33.572880 
	C343.099487,34.899815 342.073792,36.740505 341.527802,38.401093 
	C337.371429,51.042484 333.854431,63.896198 327.328217,75.676247 
	C321.875092,85.519363 321.604034,96.431114 322.379730,107.318123 
	C322.767334,112.758316 326.478485,116.249664 335.599365,121.135895 
	C335.885620,120.989799 336.245056,120.903198 336.439667,120.675636 
	C337.752625,119.140251 337.523987,115.747742 340.332977,116.184853 
	C343.248077,116.638466 342.293457,119.658791 342.387329,121.633469 
	C342.678864,127.766235 345.631927,133.477310 344.880249,139.829620 
	C344.591858,142.266632 347.282867,142.863388 349.336914,142.646378 
	C357.111816,141.824997 365.066498,141.440872 370.567200,134.508850 
	C372.377563,132.227402 373.638733,129.964432 373.909302,126.933182 
	C374.205597,123.613754 373.840729,119.954735 376.354980,117.185753 
	C379.561310,117.600464 379.325134,120.275322 380.024292,122.138268 
	C381.085358,124.965591 382.641510,126.371391 385.694550,124.982903 
	C390.874146,122.627304 395.711365,119.712021 400.153168,116.142715 
	C402.874146,113.956223 402.398560,112.107033 399.784973,110.190399 
	C396.100372,107.488327 391.836029,106.021576 387.710602,104.255577 
	C377.609070,99.931335 368.594421,94.110809 361.635620,85.442131 
	C360.802734,84.404510 359.950836,83.353920 359.310699,82.197044 
	C358.536743,80.798294 357.121277,79.138634 358.736694,77.696800 
	C360.517395,76.107391 361.804688,78.043396 362.905396,79.088295 
	C370.312714,86.120193 379.203430,90.579269 388.654724,94.048195 
	C395.388672,96.519775 399.413666,93.805061 398.490356,86.718491 
	C396.876221,74.329697 394.350708,62.095631 388.483826,50.837467 
	C387.459778,48.872410 385.590759,46.989216 387.308380,44.224888 
	C390.172791,44.052689 391.638031,46.236217 393.192139,48.046253 
	C400.967926,57.102859 403.824280,68.266327 406.273041,79.525368 
	C407.471130,85.033829 408.028656,90.679207 408.977600,96.245316 
	C409.421143,98.846985 410.228027,101.337715 412.905426,103.435478 
	C417.631744,97.188118 420.741272,90.523239 421.499420,83.236626 
	C423.514069,63.874142 423.026855,44.685501 415.020996,26.404682 
	C414.379852,24.940609 413.240082,23.023539 415.064392,21.875824 
	C417.098450,20.596153 418.491486,22.500732 419.590027,23.881124 
	C426.021606,31.962833 428.564026,41.585201 430.317993,51.500557 
	C430.422272,52.089981 430.506134,52.683022 430.925232,53.265717 
	C432.454987,47.473412 433.106720,41.644981 432.344849,35.699131 
	C432.196686,34.542805 431.973694,33.387741 431.937714,32.227371 
	C431.887634,30.614038 431.455658,28.560106 433.724243,28.193649 
	C435.565948,27.896156 436.232971,29.671392 436.703613,31.043509 
	C439.774689,39.996521 441.597961,49.187286 438.820190,58.471359 
	C435.718445,68.838341 433.072662,79.294975 430.553680,89.812973 
	C427.935120,100.746712 423.419037,107.979439 413.115112,120.207497 
	C416.804993,118.634377 420.026337,116.979263 423.427155,115.878868 
	C428.218292,114.328613 432.324341,116.479179 432.084473,121.070381 
	C431.310913,135.877060 429.217163,150.396469 416.425568,160.503372 
	C412.146729,163.884171 407.266663,166.080078 401.780212,166.227386 
	C398.740173,166.309021 397.384766,167.810776 396.189636,170.253845 
	C394.824280,173.044800 396.971771,174.187332 398.347595,175.707184 
	C402.260590,180.029724 406.494873,184.092224 410.108948,188.648697 
	C420.194885,201.364670 433.782349,203.469284 448.753632,202.272491 
	C460.238708,201.354385 471.064941,196.857086 482.653198,196.503372 
	C492.348297,196.207428 501.977570,197.170837 511.565521,198.038879 
	C531.641663,199.856415 551.436584,197.756226 571.295044,195.405640 
	C584.506470,193.841858 597.774353,192.576630 611.053528,191.819901 
	C621.697815,191.213333 632.272461,190.099854 642.871399,189.093567 
	C659.202759,187.542999 674.550659,191.912170 689.694031,197.323380 
	C702.190979,201.788940 713.329590,208.821518 724.510925,215.752533 
	C737.075256,223.540833 739.414001,236.153870 738.955505,249.319290 
	C738.713135,256.280151 738.181152,263.255890 738.177185,270.245239 
	C738.174744,274.461670 737.534851,278.552460 735.437073,282.291290 
	C733.098022,286.460236 729.896545,290.347687 731.877686,295.575867 
	C727.928772,296.823425 726.753357,293.641876 724.622498,292.414734 
	C712.677673,312.041351 714.998718,333.307281 730.755676,349.400513 
	C736.833618,355.608185 743.319031,361.350464 750.253662,366.559143 
	C755.360046,370.394562 757.649841,375.286804 757.310852,381.651703 
	C756.493469,396.995605 757.669250,412.236786 760.129822,427.381317 
	C760.897827,432.108704 759.174438,436.641174 759.333618,441.283417 
	C759.778564,454.259186 761.000854,467.169617 762.747498,480.037018 
	C763.396667,484.819580 764.248474,489.545624 765.187073,494.278381 
	C765.838806,497.564819 766.519897,501.560669 761.013123,501.944092 
	C759.236877,502.067810 758.781250,503.815796 758.410706,505.251221 
	C757.704529,507.987000 756.949524,510.734680 756.572571,513.525757 
	C755.841919,518.934937 752.619507,521.877136 747.540100,522.809021 
	C742.155701,523.796936 736.722656,525.068970 731.207397,523.800110 
	C726.656189,522.753113 725.401733,520.465271 728.052490,516.635803 
	C732.260437,510.556885 735.190308,503.972473 737.955200,497.182831 
	C740.083618,491.956085 741.247742,486.766144 740.859131,481.153687 
	C739.502686,461.569031 738.531006,441.952911 735.811096,422.485229 
	C734.132996,410.473907 728.367493,400.268768 720.412231,391.634369 
	C710.362793,380.726868 696.921631,373.658661 686.222839,363.135986 
	C686.921204,368.409424 689.372803,372.984375 692.528931,376.611145 
	C700.669312,385.965363 698.822571,394.359253 693.683105,404.771240 
	C680.580505,431.315857 667.379944,457.868225 656.426575,485.422363 
	C654.586609,490.050812 653.333679,494.911926 651.792542,499.660065 
	C650.839355,502.596863 649.536438,504.978912 645.721497,503.660614 
	C643.370667,502.848328 642.144348,504.646484 641.470520,506.228180 
	C635.782166,519.579468 624.134033,517.565002 613.281677,517.060303 
	C608.095581,516.819092 606.819519,513.624023 610.417664,509.710052 
	C615.159912,504.551544 619.064331,498.712524 623.834595,493.651245 
	C629.535400,487.602539 633.545227,480.759399 637.006287,473.240875 
	C643.971924,458.109375 650.908386,442.987518 657.343872,427.610199 
	C664.002869,411.698914 662.673584,397.088776 652.631714,383.240417 
	C641.089966,367.323669 630.941284,350.487213 620.059265,334.135651 
	C618.271545,331.449524 616.628967,331.019409 613.928833,332.484680 
	C595.660400,342.398773 575.975159,345.252899 555.466187,344.410187 
	C546.657104,344.048248 537.826660,344.149506 529.021545,345.280029 
	C524.510559,345.859222 521.597412,347.315216 521.119995,352.361267 
	C518.921265,375.601990 512.609924,398.122406 507.621735,420.779205 
	C503.712799,438.534058 503.372498,456.039703 503.422882,473.801208 
	C503.440735,480.090240 504.537689,486.376221 505.177246,493.117676 
z"/>
</svg>