<svg version="1.1" id="Layer_1" xmlns="http://www.w3.org/2000/svg" xmlns:xlink="http://www.w3.org/1999/xlink" x="0px" y="0px"
	 width="100%" viewBox="0 0 1024 544" enable-background="new 0 0 1024 544" xml:space="preserve">
<path fill="#000000" opacity="1.000000" stroke="none" 
	d="
M669.278442,294.613281 
	C720.640625,305.029755 771.102478,317.147522 819.765137,335.818451 
	C848.733215,346.932983 877.128174,359.275848 903.640625,375.559845 
	C908.315979,378.431458 912.715637,381.754211 917.218750,384.902802 
	C918.555542,385.837494 919.916443,386.809784 920.271790,388.659363 
	C917.799927,390.300720 915.974243,388.579590 914.159180,387.769073 
	C892.417297,378.060638 871.078674,367.402893 848.372742,359.976288 
	C847.610352,359.726929 846.843323,359.492004 845.961487,359.493011 
	C862.565796,368.891510 880.576477,375.962372 896.194580,389.336060 
	C891.439209,390.500610 888.837097,388.888550 886.222107,387.632843 
	C856.745056,373.478180 826.510254,361.254822 795.146912,351.924530 
	C790.227600,350.461090 785.189026,349.398529 780.051453,348.522278 
	C785.013916,351.985535 791.351196,352.932831 796.382629,357.270172 
	C792.137451,359.641815 788.332581,358.402771 784.729370,357.793854 
	C763.858948,354.266937 743.698547,347.719971 723.085144,343.081329 
	C718.217468,341.985931 713.401672,340.649475 708.515503,339.651764 
	C706.808777,339.303253 704.893982,338.272064 703.616333,341.233582 
	C702.449402,343.938690 699.383606,342.385864 697.288574,342.152222 
	C681.567871,340.398987 666.087219,337.224213 650.638489,333.895691 
	C639.418335,331.478241 628.192505,329.086487 616.983826,326.616821 
	C614.556030,326.081848 612.401245,326.578003 610.220825,327.585724 
	C604.574280,330.195343 598.516785,331.315277 592.448486,332.410828 
	C589.515381,332.940338 586.284607,332.338867 584.573547,336.279541 
	C583.713989,338.259216 580.599487,337.261353 578.524170,336.885681 
	C575.265564,336.295746 572.599976,335.968781 570.382202,339.580750 
	C568.924438,341.954926 566.110229,343.852509 562.607239,342.597717 
	C561.500244,342.201141 559.919006,342.029968 559.345154,343.081329 
	C556.679565,347.965210 552.834900,345.908142 549.391296,344.768585 
	C539.168274,341.385712 536.473633,344.162201 540.112671,353.731995 
	C540.638184,355.113953 540.798218,356.649841 541.017578,358.130737 
	C542.065369,365.206299 538.208008,368.618866 531.255981,366.792816 
	C530.450989,366.581360 529.656616,366.328888 528.859558,366.088043 
	C517.149048,362.549774 512.243042,364.329407 505.525940,374.577545 
	C503.648651,377.441711 501.496643,379.979950 497.806305,380.325226 
	C494.330872,380.650452 493.683624,382.811249 494.373291,385.610870 
	C497.476074,398.206696 500.198181,410.903595 504.570374,423.163239 
	C505.785889,426.571533 508.000458,427.749634 511.395020,427.708862 
	C513.151306,427.687714 514.935486,426.451935 516.743530,427.731598 
	C517.148071,430.074432 515.515076,431.406189 514.142273,432.784637 
	C509.449280,437.497040 509.986267,442.956360 515.980896,446.265839 
	C519.589355,448.257996 523.675232,449.383789 527.542664,450.908844 
	C531.336609,452.404938 534.703247,454.349152 535.923950,458.689758 
	C530.896729,461.362762 526.121948,461.610565 520.886108,458.457336 
	C523.037231,465.250824 519.634827,471.060699 519.116150,477.236359 
	C518.275635,487.243439 513.384338,494.750580 502.400360,496.953949 
	C499.586304,490.332581 506.724945,485.687347 506.450165,478.579865 
	C499.705139,485.402161 492.491577,489.670044 483.921600,492.127502 
	C475.479706,494.548279 467.229065,490.663391 458.633240,492.633148 
	C458.102692,490.017487 459.789062,488.598083 461.459991,487.386047 
	C464.767426,484.986877 468.513245,483.945953 472.636108,483.608307 
	C483.517975,482.717102 492.528992,478.448456 498.121887,468.488708 
	C499.390198,466.230133 500.078552,463.970398 499.598358,461.339996 
	C496.235046,442.917389 490.111420,425.315399 483.718506,407.795776 
	C482.637146,404.832306 481.607117,402.025177 477.178192,402.536255 
	C475.497650,402.730164 473.526703,400.511841 471.706696,399.363556 
	C469.875092,398.207947 467.787567,397.292847 466.296204,395.791565 
	C459.866425,389.318878 450.818298,390.082581 444.148285,391.571564 
	C437.740417,393.002045 432.390228,392.018158 426.548248,391.442352 
	C424.575806,391.247986 422.544891,391.561737 422.421539,393.955902 
	C421.792664,406.160736 413.796783,415.378265 409.526031,426.097351 
	C407.248322,431.814026 404.352448,437.281158 401.896088,442.930695 
	C397.794403,452.364624 397.848602,452.388184 406.274109,458.090912 
	C404.736938,460.808594 401.850861,460.744965 399.444305,461.246887 
	C392.649780,462.664062 389.481628,469.151947 392.548950,475.538818 
	C393.963562,478.484314 396.370972,480.542908 398.507751,482.864532 
	C401.837860,486.482666 402.335602,488.010437 401.686493,492.163544 
	C397.657410,492.733734 393.889893,492.843018 391.087494,488.918579 
	C389.430267,486.597809 387.350830,486.902161 385.916901,489.363007 
	C383.599457,493.340118 379.995209,494.827179 375.640900,495.531342 
	C367.477386,496.851410 359.557037,499.561005 351.295166,500.042694 
	C349.843933,497.842499 351.593872,496.083588 351.879639,493.808990 
	C346.638580,492.953583 341.561066,493.289764 336.494324,493.717468 
	C331.540802,494.135620 326.590637,495.231049 321.814911,492.673676 
	C319.532227,491.451385 317.355286,493.516693 314.661133,493.350159 
	C314.357361,490.386017 316.226624,488.763763 318.235077,487.399567 
	C322.352142,484.603241 326.945892,483.531555 331.946503,483.560455 
	C341.953491,483.618164 351.858582,482.476959 361.703247,480.648651 
	C366.456116,479.765991 369.734558,477.606476 372.036713,473.106232 
	C379.708679,458.109192 386.169403,442.597656 392.724640,427.103668 
	C395.753601,419.944336 389.413971,416.306366 387.887970,410.910217 
	C387.479401,409.465485 385.964172,408.231171 385.822235,406.497742 
	C384.851196,394.638000 377.662750,386.981262 368.662537,380.268250 
	C358.736420,372.864624 346.950653,368.846802 336.760284,361.874359 
	C317.105408,348.426208 300.485992,332.279449 287.751709,311.994873 
	C273.116974,288.683044 258.545959,265.375000 249.306931,239.261902 
	C240.988632,215.751205 238.873337,191.738647 243.220886,167.018173 
	C245.056320,156.581848 247.689011,146.198288 247.731552,135.456940 
	C247.752182,130.245682 246.039139,126.546127 241.050766,124.343056 
	C235.527130,121.903580 230.585419,118.502182 226.522339,113.943672 
	C218.971451,105.472122 209.231766,104.210297 198.680710,105.362221 
	C195.768433,105.680161 194.071930,108.562073 190.910400,108.836563 
	C189.844345,104.709007 191.439224,101.458725 193.345108,98.389938 
	C196.220306,93.760399 200.275848,90.405159 205.070938,87.797150 
	C211.238358,84.442741 216.673904,80.471329 220.074875,73.811066 
	C224.406326,65.328613 232.895233,62.893299 241.506317,62.065155 
	C253.583160,60.903709 265.790802,59.872211 277.258057,65.676147 
	C279.944366,67.035774 282.610931,68.382675 284.965515,70.263199 
	C289.090820,73.557983 293.620605,75.888031 298.988617,76.222054 
	C302.715637,76.453972 306.535706,77.649826 307.283905,81.341240 
	C308.016724,84.956711 306.294464,88.557915 302.056763,89.201637 
	C301.666687,91.184967 302.422180,92.327614 303.038422,93.480904 
	C307.845276,102.477165 311.415436,111.977875 314.562225,121.651146 
	C316.779388,128.466736 318.931458,135.299515 323.435242,141.083237 
	C324.130219,141.975708 324.751770,143.145386 324.859253,144.240646 
	C325.758331,153.403351 332.143188,157.412323 339.858398,159.563278 
	C355.085693,163.808578 370.425781,167.654114 385.745789,171.560913 
	C413.837097,178.724564 441.753326,186.298935 468.060333,198.933151 
	C486.906219,207.984100 504.238983,219.454926 521.854431,230.556946 
	C537.093750,240.161407 551.710510,250.641632 566.437866,260.953827 
	C586.935303,275.306274 609.550171,283.707550 634.109558,287.652679 
	C645.761658,289.524414 657.279541,292.231628 669.278442,294.613281 
z"/>
</svg>