<svg version="1.1" id="Layer_1" xmlns="http://www.w3.org/2000/svg" xmlns:xlink="http://www.w3.org/1999/xlink" x="0px" y="0px"
	 width="100%" viewBox="0 0 2816 1536" enable-background="new 0 0 2816 1536" xml:space="preserve">
<g data-loadout-mirror="true" transform="translate(2816 0) scale(-1 1)">
<path fill="#FEFEFE" opacity="1.000000" stroke="none" 
	d="
M1602.000000,1538.000000 
	C1068.061157,1538.000000 535.122253,1538.000000 2.091686,1538.000000 
	C2.091686,1026.119873 2.091686,514.239685 2.091686,2.179760 
	C940.439148,2.179760 1878.878418,2.179760 2817.658691,2.179760 
	C2817.658691,513.999817 2817.658691,1025.999878 2817.658691,1538.000000 
	C2412.905762,1538.000000 2007.952881,1538.000000 1602.000000,1538.000000 
M1460.412842,1436.985840 
	C1467.034058,1440.098389 1473.497925,1443.638306 1480.337524,1446.158081 
	C1484.242432,1447.596680 1488.989136,1448.430298 1492.931274,1447.574951 
	C1496.292969,1446.845459 1499.046875,1443.313477 1502.681519,1440.557129 
	C1507.246948,1443.545166 1512.300415,1446.852783 1518.538208,1450.935425 
	C1517.594604,1445.079590 1516.904541,1440.796631 1515.979614,1435.055908 
	C1522.074951,1438.606812 1526.776001,1441.345459 1533.590332,1445.315063 
	C1531.787842,1438.904907 1531.667603,1433.755371 1529.165283,1430.362427 
	C1515.273560,1411.526123 1498.588379,1396.639282 1473.229004,1397.156982 
	C1450.981323,1397.611084 1429.501953,1393.213745 1408.195679,1387.669922 
	C1403.452393,1386.435547 1398.835571,1384.122925 1394.645996,1381.524292 
	C1390.703979,1379.078735 1390.676514,1375.804199 1393.812866,1372.320312 
	C1395.134766,1370.851929 1396.863037,1369.751221 1398.395264,1368.469849 
	C1410.698853,1358.180298 1422.175171,1347.084595 1431.596069,1334.025391 
	C1435.492188,1328.624390 1439.162476,1323.060791 1443.062622,1317.662842 
	C1444.293457,1315.959351 1445.936890,1314.553833 1448.148682,1312.208984 
	C1450.358398,1317.853516 1449.868774,1322.356079 1448.815308,1326.896362 
	C1447.011963,1334.668823 1445.057129,1342.410156 1443.454102,1350.223877 
	C1442.093140,1356.857910 1443.637085,1363.029419 1448.646362,1367.652588 
	C1458.540405,1376.784058 1469.304321,1384.962891 1483.230835,1386.181274 
	C1497.140625,1387.398071 1511.149414,1387.773682 1525.121460,1387.926147 
	C1549.106689,1388.187744 1573.107300,1387.531494 1596.658936,1393.574829 
	C1602.968750,1395.194092 1609.497437,1394.547119 1614.419678,1389.562622 
	C1619.640015,1384.276123 1625.666138,1384.355469 1632.008301,1386.150146 
	C1635.510742,1387.141357 1639.006958,1388.440308 1642.208252,1390.156006 
	C1652.043213,1395.427002 1661.421143,1394.871460 1670.356567,1388.344116 
	C1674.962646,1384.979492 1679.425171,1384.749268 1684.266724,1387.663696 
	C1685.604248,1388.468872 1687.248169,1388.764893 1689.139160,1389.430908 
	C1689.352905,1386.992065 1689.513916,1385.154785 1689.713135,1382.881348 
	C1691.880859,1382.881348 1693.860352,1382.881348 1696.582275,1382.881348 
	C1694.271851,1375.290894 1689.542358,1371.015503 1683.421509,1367.910889 
	C1675.110229,1363.695068 1666.681152,1359.686035 1658.557861,1355.132935 
	C1649.498901,1350.055786 1640.073608,1348.815063 1629.741333,1349.169189 
	C1606.791016,1349.955566 1583.800537,1349.960205 1560.834839,1349.650879 
	C1554.301880,1349.562988 1547.576050,1347.963501 1541.332764,1345.877441 
	C1531.795654,1342.691040 1530.606201,1337.312500 1536.880737,1329.224121 
	C1538.507324,1327.127319 1540.542969,1325.353149 1542.305298,1323.355469 
	C1557.934082,1305.639160 1574.851562,1288.814209 1583.315552,1266.006226 
	C1588.635986,1251.669434 1594.439453,1237.450073 1598.692871,1222.791138 
	C1609.349731,1186.063965 1609.864502,1149.272461 1597.220093,1112.731812 
	C1593.739990,1102.674805 1590.431519,1092.549927 1587.370361,1082.358154 
	C1582.964233,1067.687988 1582.187622,1052.866211 1586.830811,1038.070801 
	C1593.937012,1015.426758 1597.785400,992.127930 1601.069580,968.702759 
	C1606.912842,927.024109 1610.239380,885.258484 1606.550293,843.145386 
	C1605.154907,827.217102 1604.492432,811.224243 1603.569824,795.256470 
	C1603.523193,794.447815 1604.178955,793.598572 1604.504395,792.776428 
	C1606.303711,793.959595 1607.827881,794.961914 1610.209106,796.527771 
	C1611.257690,793.293518 1612.040771,790.878418 1613.987549,788.196960 
	C1614.684692,788.109680 1615.381714,788.022339 1616.263916,789.531738 
	C1616.534668,802.103027 1621.658936,811.205688 1634.211304,815.329224 
	C1639.442749,817.047852 1641.815918,821.404724 1643.204102,826.486755 
	C1644.169312,830.020264 1645.473145,833.461304 1646.911743,837.808167 
	C1655.162476,830.310730 1650.165649,821.000244 1653.216431,813.328369 
	C1664.566162,820.713867 1665.751709,832.002380 1666.769775,843.157043 
	C1671.870972,843.226807 1672.857544,839.782043 1673.781372,836.676331 
	C1676.288330,828.248047 1677.063965,819.700806 1674.731689,811.058777 
	C1673.518799,806.565063 1671.776733,802.115601 1671.298950,797.539185 
	C1669.277466,778.174377 1661.008179,761.262451 1651.770508,744.556030 
	C1643.723999,730.003479 1636.302734,715.102112 1628.750488,700.280823 
	C1625.192139,693.297424 1621.974609,686.140320 1618.497925,678.842224 
	C1618.986938,678.678040 1619.918213,678.005737 1620.667725,678.168945 
	C1629.431763,680.077576 1638.239990,681.849487 1646.885864,684.209229 
	C1652.251221,685.673645 1653.503784,690.367065 1653.302124,695.349976 
	C1653.167847,698.668091 1652.263672,701.971680 1652.292969,705.276550 
	C1652.362427,713.056824 1657.051758,717.339783 1664.965210,717.215454 
	C1666.524170,717.191040 1668.079956,716.966797 1669.201050,716.871704 
	C1674.891968,722.592102 1676.053589,728.979126 1675.171509,735.869080 
	C1674.664795,739.826111 1673.343018,743.703796 1673.083496,747.662720 
	C1672.398560,758.115295 1672.135864,769.184082 1681.916870,775.683716 
	C1689.382080,780.644348 1690.795410,786.682556 1689.817505,794.419373 
	C1689.446899,797.352234 1688.855347,800.257263 1688.312866,803.482910 
	C1695.550415,802.806946 1697.550781,796.428040 1701.432373,792.122131 
	C1709.379639,801.163147 1703.004028,810.696289 1702.937256,821.119751 
	C1717.193970,810.890137 1720.838867,797.285828 1721.370605,782.242859 
	C1721.568970,776.629822 1720.581665,770.786499 1721.809448,765.432068 
	C1726.221802,746.188965 1722.944092,727.746704 1717.552979,709.330322 
	C1713.443115,695.290894 1709.359619,681.235046 1705.707275,667.072266 
	C1700.311890,646.151184 1692.160767,626.748962 1677.299316,610.589233 
	C1670.537109,603.236389 1664.614990,595.082764 1657.605225,587.990784 
	C1628.752930,558.799683 1616.109131,522.546021 1612.237915,482.839996 
	C1608.923828,448.847351 1599.582642,416.976166 1583.296753,387.009613 
	C1580.141724,381.204102 1577.326050,375.053406 1575.467041,368.734436 
	C1569.964478,350.030823 1576.209717,335.623291 1592.615601,325.262146 
	C1609.423462,314.647064 1627.436401,307.274902 1646.707397,302.693573 
	C1662.799683,298.867920 1675.634277,291.057922 1680.212769,274.023560 
	C1682.186279,273.426056 1683.747192,272.828217 1685.362183,272.484741 
	C1696.495117,270.116882 1703.988770,263.590790 1706.755493,252.554550 
	C1708.922241,243.911789 1710.366577,235.069305 1711.723999,226.252747 
	C1712.173950,223.329895 1712.050903,220.905594 1714.510864,218.324707 
	C1722.881592,209.542084 1723.809937,201.749405 1718.067627,191.106308 
	C1711.494995,178.924652 1702.822632,168.827393 1690.514160,161.652771 
	C1665.963501,147.342255 1643.757324,129.820786 1623.175659,110.214745 
	C1612.086914,99.651726 1599.132812,92.605515 1583.904053,89.692490 
	C1551.353394,83.466019 1518.578491,80.942917 1485.468994,82.702072 
	C1464.008057,83.842316 1443.260010,87.961624 1423.325928,96.224670 
	C1404.151611,104.172798 1385.620361,113.278442 1370.158813,127.331833 
	C1352.143188,143.706696 1339.151978,163.679428 1329.947754,186.227020 
	C1318.196533,215.013824 1314.828003,245.444046 1312.015869,275.966583 
	C1309.787354,300.153687 1310.533813,324.767273 1303.776489,348.307678 
	C1298.370239,367.141266 1291.496216,385.572052 1284.828857,404.020844 
	C1274.867065,431.585236 1270.311157,460.033691 1270.085449,489.230255 
	C1269.938599,508.224121 1270.253052,527.221802 1270.077148,546.215149 
	C1270.012573,553.184021 1269.801270,560.272217 1268.508545,567.088196 
	C1262.556519,598.472412 1256.301392,629.800476 1249.964355,661.110107 
	C1238.603882,717.239319 1228.017578,773.493713 1220.319458,830.270630 
	C1214.535400,872.930054 1210.527832,915.680603 1212.130615,958.780090 
	C1213.467896,994.742554 1214.919678,1030.703613 1216.744385,1066.643921 
	C1217.689697,1085.263306 1218.529541,1103.986450 1221.234741,1122.395630 
	C1225.683350,1152.669312 1231.931030,1182.675171 1236.705078,1212.906738 
	C1238.027466,1221.281006 1238.147827,1230.310913 1236.541992,1238.598755 
	C1230.587280,1269.328735 1212.800415,1292.565063 1187.433472,1309.937744 
	C1159.862915,1328.819824 1129.954346,1343.479980 1098.855957,1355.585083 
	C1078.367310,1363.560181 1059.867310,1374.124512 1045.283813,1391.008667 
	C1041.647095,1395.219360 1036.704102,1398.311035 1032.311279,1401.854980 
	C1030.301025,1403.476807 1028.169434,1404.947998 1024.900024,1407.371948 
	C1028.800293,1409.420776 1031.457275,1411.562500 1034.448608,1412.250732 
	C1044.130615,1414.478760 1053.863647,1417.130371 1063.708374,1417.871216 
	C1083.376221,1419.351318 1102.874146,1416.798096 1122.403809,1414.047241 
	C1168.309937,1407.581055 1206.249390,1386.762695 1236.544922,1352.057007 
	C1246.821289,1340.284668 1255.812378,1327.390625 1265.390137,1315.008545 
	C1266.813599,1313.168213 1268.154785,1311.257446 1269.670410,1309.496826 
	C1272.565918,1306.133545 1276.242798,1305.727295 1279.337524,1308.584961 
	C1286.916748,1315.583740 1294.284424,1322.831909 1301.383667,1330.315063 
	C1303.046997,1332.068481 1303.517090,1335.097900 1304.178589,1337.633545 
	C1307.331909,1349.723022 1304.431152,1361.475708 1301.730347,1373.146484 
	C1298.679810,1386.328369 1302.850464,1396.654175 1313.147339,1404.924438 
	C1317.302856,1408.262451 1321.449829,1411.614014 1325.520752,1415.053955 
	C1332.799194,1421.203857 1340.822876,1425.485962 1350.516724,1426.563232 
	C1357.786133,1427.371216 1364.989502,1428.815918 1372.199463,1430.104736 
	C1390.840454,1433.436768 1409.757935,1435.567749 1426.996094,1444.514160 
	C1430.640259,1446.405396 1435.876587,1447.905151 1439.429443,1446.725098 
	C1446.326050,1444.434448 1450.841553,1446.649780 1455.404907,1451.058105 
	C1456.237549,1451.862427 1457.699463,1452.015381 1460.233032,1452.996460 
	C1459.177979,1447.434570 1458.331787,1442.973389 1458.276978,1437.671143 
	C1458.516479,1437.369507 1458.755859,1437.067993 1460.412842,1436.985840 
z"/>
<path fill="#010101" opacity="1.000000" stroke="none" 
	d="
M1612.823730,788.463318 
	C1612.040771,790.878418 1611.257690,793.293518 1610.209106,796.527771 
	C1607.827881,794.961914 1606.303711,793.959595 1604.504395,792.776428 
	C1604.178955,793.598572 1603.523193,794.447815 1603.569824,795.256470 
	C1604.492432,811.224243 1605.154907,827.217102 1606.550293,843.145386 
	C1610.239380,885.258484 1606.912842,927.024109 1601.069580,968.702759 
	C1597.785400,992.127930 1593.937012,1015.426758 1586.830811,1038.070801 
	C1582.187622,1052.866211 1582.964233,1067.687988 1587.370361,1082.358154 
	C1590.431519,1092.549927 1593.739990,1102.674805 1597.220093,1112.731812 
	C1609.864502,1149.272461 1609.349731,1186.063965 1598.692871,1222.791138 
	C1594.439453,1237.450073 1588.635986,1251.669434 1583.315552,1266.006226 
	C1574.851562,1288.814209 1557.934082,1305.639160 1542.305298,1323.355469 
	C1540.542969,1325.353149 1538.507324,1327.127319 1536.880737,1329.224121 
	C1530.606201,1337.312500 1531.795654,1342.691040 1541.332764,1345.877441 
	C1547.576050,1347.963501 1554.301880,1349.562988 1560.834839,1349.650879 
	C1583.800537,1349.960205 1606.791016,1349.955566 1629.741333,1349.169189 
	C1640.073608,1348.815063 1649.498901,1350.055786 1658.557861,1355.132935 
	C1666.681152,1359.686035 1675.110229,1363.695068 1683.421509,1367.910889 
	C1689.542358,1371.015503 1694.271851,1375.290894 1696.582275,1382.881348 
	C1693.860352,1382.881348 1691.880859,1382.881348 1689.713135,1382.881348 
	C1689.513916,1385.154785 1689.352905,1386.992065 1689.139160,1389.430908 
	C1687.248169,1388.764893 1685.604248,1388.468872 1684.266724,1387.663696 
	C1679.425171,1384.749268 1674.962646,1384.979492 1670.356567,1388.344116 
	C1661.421143,1394.871460 1652.043213,1395.427002 1642.208252,1390.156006 
	C1639.006958,1388.440308 1635.510742,1387.141357 1632.008301,1386.150146 
	C1625.666138,1384.355469 1619.640015,1384.276123 1614.419678,1389.562622 
	C1609.497437,1394.547119 1602.968750,1395.194092 1596.658936,1393.574829 
	C1573.107300,1387.531494 1549.106689,1388.187744 1525.121460,1387.926147 
	C1511.149414,1387.773682 1497.140625,1387.398071 1483.230835,1386.181274 
	C1469.304321,1384.962891 1458.540405,1376.784058 1448.646362,1367.652588 
	C1443.637085,1363.029419 1442.093140,1356.857910 1443.454102,1350.223877 
	C1445.057129,1342.410156 1447.011963,1334.668823 1448.815308,1326.896362 
	C1449.868774,1322.356079 1450.358398,1317.853516 1448.148682,1312.208984 
	C1445.936890,1314.553833 1444.293457,1315.959351 1443.062622,1317.662842 
	C1439.162476,1323.060791 1435.492188,1328.624390 1431.596069,1334.025391 
	C1422.175171,1347.084595 1410.698853,1358.180298 1398.395264,1368.469849 
	C1396.863037,1369.751221 1395.134766,1370.851929 1393.812866,1372.320312 
	C1390.676514,1375.804199 1390.703979,1379.078735 1394.645996,1381.524292 
	C1398.835571,1384.122925 1403.452393,1386.435547 1408.195679,1387.669922 
	C1429.501953,1393.213745 1450.981323,1397.611084 1473.229004,1397.156982 
	C1498.588379,1396.639282 1515.273560,1411.526123 1529.165283,1430.362427 
	C1531.667603,1433.755371 1531.787842,1438.904907 1533.590332,1445.315063 
	C1526.776001,1441.345459 1522.074951,1438.606812 1515.979614,1435.055908 
	C1516.904541,1440.796631 1517.594604,1445.079590 1518.538208,1450.935425 
	C1512.300415,1446.852783 1507.246948,1443.545166 1502.681519,1440.557129 
	C1499.046875,1443.313477 1496.292969,1446.845459 1492.931274,1447.574951 
	C1488.989136,1448.430298 1484.242432,1447.596680 1480.337524,1446.158081 
	C1473.497925,1443.638306 1467.034058,1440.098389 1459.239990,1436.619141 
	C1457.567993,1436.382202 1457.068970,1436.511963 1456.569946,1436.641602 
	C1456.875122,1437.265137 1457.180298,1437.888672 1457.485474,1438.512207 
	C1458.331787,1442.973389 1459.177979,1447.434570 1460.233032,1452.996460 
	C1457.699463,1452.015381 1456.237549,1451.862427 1455.404907,1451.058105 
	C1450.841553,1446.649780 1446.326050,1444.434448 1439.429443,1446.725098 
	C1435.876587,1447.905151 1430.640259,1446.405396 1426.996094,1444.514160 
	C1409.757935,1435.567749 1390.840454,1433.436768 1372.199463,1430.104736 
	C1364.989502,1428.815918 1357.786133,1427.371216 1350.516724,1426.563232 
	C1340.822876,1425.485962 1332.799194,1421.203857 1325.520752,1415.053955 
	C1321.449829,1411.614014 1317.302856,1408.262451 1313.147339,1404.924438 
	C1302.850464,1396.654175 1298.679810,1386.328369 1301.730347,1373.146484 
	C1304.431152,1361.475708 1307.331909,1349.723022 1304.178589,1337.633545 
	C1303.517090,1335.097900 1303.046997,1332.068481 1301.383667,1330.315063 
	C1294.284424,1322.831909 1286.916748,1315.583740 1279.337524,1308.584961 
	C1276.242798,1305.727295 1272.565918,1306.133545 1269.670410,1309.496826 
	C1268.154785,1311.257446 1266.813599,1313.168213 1265.390137,1315.008545 
	C1255.812378,1327.390625 1246.821289,1340.284668 1236.544922,1352.057007 
	C1206.249390,1386.762695 1168.309937,1407.581055 1122.403809,1414.047241 
	C1102.874146,1416.798096 1083.376221,1419.351318 1063.708374,1417.871216 
	C1053.863647,1417.130371 1044.130615,1414.478760 1034.448608,1412.250732 
	C1031.457275,1411.562500 1028.800293,1409.420776 1024.900024,1407.371948 
	C1028.169434,1404.947998 1030.301025,1403.476807 1032.311279,1401.854980 
	C1036.704102,1398.311035 1041.647095,1395.219360 1045.283813,1391.008667 
	C1059.867310,1374.124512 1078.367310,1363.560181 1098.855957,1355.585083 
	C1129.954346,1343.479980 1159.862915,1328.819824 1187.433472,1309.937744 
	C1212.800415,1292.565063 1230.587280,1269.328735 1236.541992,1238.598755 
	C1238.147827,1230.310913 1238.027466,1221.281006 1236.705078,1212.906738 
	C1231.931030,1182.675171 1225.683350,1152.669312 1221.234741,1122.395630 
	C1218.529541,1103.986450 1217.689697,1085.263306 1216.744385,1066.643921 
	C1214.919678,1030.703613 1213.467896,994.742554 1212.130615,958.780090 
	C1210.527832,915.680603 1214.535400,872.930054 1220.319458,830.270630 
	C1228.017578,773.493713 1238.603882,717.239319 1249.964355,661.110107 
	C1256.301392,629.800476 1262.556519,598.472412 1268.508545,567.088196 
	C1269.801270,560.272217 1270.012573,553.184021 1270.077148,546.215149 
	C1270.253052,527.221802 1269.938599,508.224121 1270.085449,489.230255 
	C1270.311157,460.033691 1274.867065,431.585236 1284.828857,404.020844 
	C1291.496216,385.572052 1298.370239,367.141266 1303.776489,348.307678 
	C1310.533813,324.767273 1309.787354,300.153687 1312.015869,275.966583 
	C1314.828003,245.444046 1318.196533,215.013824 1329.947754,186.227020 
	C1339.151978,163.679428 1352.143188,143.706696 1370.158813,127.331833 
	C1385.620361,113.278442 1404.151611,104.172798 1423.325928,96.224670 
	C1443.260010,87.961624 1464.008057,83.842316 1485.468994,82.702072 
	C1518.578491,80.942917 1551.353394,83.466019 1583.904053,89.692490 
	C1599.132812,92.605515 1612.086914,99.651726 1623.175659,110.214745 
	C1643.757324,129.820786 1665.963501,147.342255 1690.514160,161.652771 
	C1702.822632,168.827393 1711.494995,178.924652 1718.067627,191.106308 
	C1723.809937,201.749405 1722.881592,209.542084 1714.510864,218.324707 
	C1712.050903,220.905594 1712.173950,223.329895 1711.723999,226.252747 
	C1710.366577,235.069305 1708.922241,243.911789 1706.755493,252.554550 
	C1703.988770,263.590790 1696.495117,270.116882 1685.362183,272.484741 
	C1683.747192,272.828217 1682.186279,273.426056 1680.212769,274.023560 
	C1675.634277,291.057922 1662.799683,298.867920 1646.707397,302.693573 
	C1627.436401,307.274902 1609.423462,314.647064 1592.615601,325.262146 
	C1576.209717,335.623291 1569.964478,350.030823 1575.467041,368.734436 
	C1577.326050,375.053406 1580.141724,381.204102 1583.296753,387.009613 
	C1599.582642,416.976166 1608.923828,448.847351 1612.237915,482.839996 
	C1616.109131,522.546021 1628.752930,558.799683 1657.605225,587.990784 
	C1664.614990,595.082764 1670.537109,603.236389 1677.299316,610.589233 
	C1692.160767,626.748962 1700.311890,646.151184 1705.707275,667.072266 
	C1709.359619,681.235046 1713.443115,695.290894 1717.552979,709.330322 
	C1722.944092,727.746704 1726.221802,746.188965 1721.809448,765.432068 
	C1720.581665,770.786499 1721.568970,776.629822 1721.370605,782.242859 
	C1720.838867,797.285828 1717.193970,810.890137 1702.937256,821.119751 
	C1703.004028,810.696289 1709.379639,801.163147 1701.432373,792.122131 
	C1697.550781,796.428040 1695.550415,802.806946 1688.312866,803.482910 
	C1688.855347,800.257263 1689.446899,797.352234 1689.817505,794.419373 
	C1690.795410,786.682556 1689.382080,780.644348 1681.916870,775.683716 
	C1672.135864,769.184082 1672.398560,758.115295 1673.083496,747.662720 
	C1673.343018,743.703796 1674.664795,739.826111 1675.171509,735.869080 
	C1676.053589,728.979126 1674.891968,722.592102 1669.201050,716.871704 
	C1668.079956,716.966797 1666.524170,717.191040 1664.965210,717.215454 
	C1657.051758,717.339783 1652.362427,713.056824 1652.292969,705.276550 
	C1652.263672,701.971680 1653.167847,698.668091 1653.302124,695.349976 
	C1653.503784,690.367065 1652.251221,685.673645 1646.885864,684.209229 
	C1638.239990,681.849487 1629.431763,680.077576 1620.667725,678.168945 
	C1619.918213,678.005737 1618.986938,678.678040 1618.497925,678.842224 
	C1621.974609,686.140320 1625.192139,693.297424 1628.750488,700.280823 
	C1636.302734,715.102112 1643.723999,730.003479 1651.770508,744.556030 
	C1661.008179,761.262451 1669.277466,778.174377 1671.298950,797.539185 
	C1671.776733,802.115601 1673.518799,806.565063 1674.731689,811.058777 
	C1677.063965,819.700806 1676.288330,828.248047 1673.781372,836.676331 
	C1672.857544,839.782043 1671.870972,843.226807 1666.769775,843.157043 
	C1665.751709,832.002380 1664.566162,820.713867 1653.216431,813.328369 
	C1650.165649,821.000244 1655.162476,830.310730 1646.911743,837.808167 
	C1645.473145,833.461304 1644.169312,830.020264 1643.204102,826.486755 
	C1641.815918,821.404724 1639.442749,817.047852 1634.211304,815.329224 
	C1621.658936,811.205688 1616.534668,802.103027 1616.371582,787.981323 
	C1615.831421,783.924377 1615.183594,781.417847 1614.535889,778.911377 
	C1613.764404,779.047668 1612.992920,779.183899 1612.221558,779.320190 
	C1612.422241,782.367920 1612.623047,785.415588 1612.823730,788.463318 
z"/>
<path fill="#8B8B8B" opacity="1.000000" stroke="none" 
	d="
M1613.405762,788.330139 
	C1612.623047,785.415588 1612.422241,782.367920 1612.221558,779.320190 
	C1612.992920,779.183899 1613.764404,779.047668 1614.535889,778.911377 
	C1615.183594,781.417847 1615.831421,783.924377 1616.279053,787.182983 
	C1615.381714,788.022339 1614.684692,788.109680 1613.405762,788.330139 
z"/>
<path fill="#FEFEFE" opacity="1.000000" stroke="none" 
	d="
M1457.881226,1438.091675 
	C1457.180298,1437.888672 1456.875122,1437.265137 1456.569946,1436.641602 
	C1457.068970,1436.511963 1457.567993,1436.382202 1458.531006,1436.509521 
	C1458.755859,1437.067993 1458.516479,1437.369507 1457.881226,1438.091675 
z"/>
</g>
</svg>