<svg version="1.1" id="Layer_1" xmlns="http://www.w3.org/2000/svg" xmlns:xlink="http://www.w3.org/1999/xlink" x="0px" y="0px"
	 width="100%" viewBox="0 0 1024 544" enable-background="new 0 0 1024 544" xml:space="preserve">
<path fill="#000000" opacity="1.000000" stroke="none" 
	d="
M404.468658,545.000000 
	C410.176697,538.649963 413.740906,530.466736 419.129089,523.508484 
	C425.432465,515.368347 426.582886,505.119354 427.574738,495.151276 
	C428.776978,483.068787 429.445801,470.932953 430.663971,458.852325 
	C431.647949,449.093903 429.678680,439.587219 428.474182,430.064331 
	C427.297028,420.757660 428.734955,411.763641 430.091583,402.763092 
	C432.850586,384.458435 432.111450,366.287354 429.481628,348.067780 
	C428.715302,342.758698 425.924011,340.005829 420.998627,338.275909 
	C411.586914,334.970398 401.932037,331.875671 395.554352,323.330017 
	C394.361176,321.731293 392.616394,320.251526 392.148926,318.451233 
	C389.057526,306.546356 380.287384,297.790131 375.065277,287.086578 
	C373.354431,283.579987 370.446014,280.984070 367.692169,278.330475 
	C360.449219,271.351257 354.534821,263.369080 348.919739,255.040726 
	C338.920563,240.209793 331.276154,224.136673 323.267548,208.244278 
	C322.458527,206.638824 321.841736,204.815979 321.656250,203.039673 
	C321.119446,197.899597 318.553040,195.739731 313.334991,196.221344 
	C303.600220,197.119797 293.998505,197.439163 284.557495,201.344482 
	C276.165344,204.815918 267.370575,204.754532 259.926270,196.809708 
	C251.153275,187.446838 251.291046,177.106659 260.658936,168.284515 
	C270.348053,159.159836 279.401550,149.360367 288.740479,139.863373 
	C290.546478,138.026810 291.078491,135.873367 290.361938,133.432739 
	C288.817902,128.173920 289.407623,123.177277 292.394897,118.593369 
	C294.429474,115.471413 293.941650,112.845245 291.899811,109.881874 
	C288.785278,105.361664 285.760101,100.730324 283.230927,95.868401 
	C279.768372,89.212166 275.138275,83.706863 269.173645,79.227982 
	C265.031250,76.117424 261.150970,72.680862 257.915253,68.629410 
	C255.302994,65.358643 253.528809,61.731056 254.744354,57.625664 
	C256.612396,56.662033 257.497375,57.586594 258.365753,58.301533 
	C261.475311,60.861595 265.094910,61.780514 269.036316,61.918739 
	C275.633545,62.150112 277.446381,60.544174 277.647827,53.985817 
	C277.851898,47.342228 277.199005,40.672745 278.675629,34.072681 
	C279.816376,28.973858 281.508942,24.077301 284.389069,19.772512 
	C292.835327,7.148242 302.934601,6.304849 314.887787,9.673637 
	C315.890167,9.956143 316.738922,10.428781 317.083862,11.754034 
	C316.304626,14.743125 313.348450,14.833444 311.135590,14.995919 
	C298.293457,15.938825 291.485962,24.043661 292.506653,38.459438 
	C293.488800,52.330273 294.833221,66.375000 302.006226,78.910484 
	C302.653442,80.041542 303.252594,81.200073 304.202362,82.951141 
	C305.249084,79.707695 304.223877,77.236816 303.966858,74.732384 
	C303.746460,72.584427 303.689697,70.408752 303.726990,68.248215 
	C303.767914,65.881020 303.956177,62.929710 306.554443,62.443420 
	C309.261688,61.936733 309.543121,65.035721 310.303406,66.940872 
	C314.342194,77.061447 318.285400,83.197830 323.287506,86.779922 
	C324.583954,82.599564 322.916016,79.310333 320.573914,76.222984 
	C317.550018,72.236870 314.540405,68.250099 312.550659,63.608353 
	C311.736847,61.709915 311.108826,59.717560 312.557495,57.943226 
	C314.222931,55.903355 316.226288,57.158035 318.058746,57.813084 
	C330.856506,62.387939 331.646179,61.903145 334.886963,48.792336 
	C337.333893,38.893105 337.210083,29.042168 335.182404,19.114086 
	C334.653839,16.526001 334.322662,13.838437 334.382568,11.207530 
	C334.433075,8.990110 335.420319,6.864914 337.988220,6.414236 
	C340.459717,5.980479 341.518524,7.833794 342.420166,9.680533 
	C348.970154,23.096001 350.895233,37.165031 348.858429,51.945164 
	C346.787140,66.975571 346.207245,82.120438 346.184845,97.289619 
	C346.180328,100.345276 347.630005,101.951187 350.418335,102.537178 
	C353.226562,103.127357 355.895752,102.184151 356.473999,99.457642 
	C358.855896,88.226189 366.491272,78.747940 367.014160,66.893936 
	C367.250488,61.535183 369.761353,60.552425 374.186890,63.705101 
	C379.071594,67.184914 381.840240,72.267822 382.868408,77.878914 
	C384.303314,85.709755 385.155518,93.661530 383.529633,101.690353 
	C382.540131,106.576721 380.643372,110.806396 377.324341,114.528183 
	C372.756104,119.650726 372.051086,123.543427 376.273773,128.837173 
	C386.188904,141.267273 394.217194,154.820236 402.246948,168.479965 
	C409.258636,180.407867 419.092804,183.615677 434.294800,180.163330 
	C451.213806,176.321030 468.090027,172.778000 485.631958,173.973740 
	C501.904449,175.082962 518.196838,176.249176 534.495422,176.534241 
	C553.142761,176.860413 571.637695,173.548935 590.306030,173.268112 
	C598.470642,173.145294 606.587402,173.187057 614.747559,173.523697 
	C625.894653,173.983551 637.074829,173.738678 648.239624,173.647278 
	C664.776062,173.511932 680.232666,178.166626 694.882080,185.132065 
	C707.506042,191.134445 719.056030,199.197830 731.076111,206.358765 
	C744.104126,214.120132 750.119019,225.259155 752.919800,240.143692 
	C755.389771,253.269684 754.185364,265.060455 749.701416,277.144257 
	C748.537842,280.279968 747.544067,282.097321 743.805664,279.373810 
	C739.613892,292.428528 732.000427,303.239471 725.999756,314.886993 
	C720.196899,326.150513 723.645813,337.104736 729.529785,347.195923 
	C736.408142,358.992401 746.223450,368.526550 756.566956,377.116974 
	C765.625366,384.640137 768.907043,392.424927 767.879211,404.594574 
	C766.075256,425.954651 768.015198,447.517120 768.987610,468.979340 
	C769.605225,482.609161 770.524048,496.219482 772.230652,509.762695 
	C772.499451,511.896454 772.982300,514.018250 773.548035,516.096069 
	C774.345825,519.026123 773.611145,521.385620 771.174500,523.130920 
	C763.831177,528.390930 762.370117,535.961670 762.878418,544.640930 
	C753.645752,545.000000 744.291565,545.000000 734.541016,544.664673 
	C735.904236,540.350891 740.474487,538.113770 741.160461,533.567139 
	C741.848633,529.005981 743.767151,524.992859 745.873718,521.029236 
	C748.217590,516.619019 749.057861,511.931702 748.679932,507.021393 
	C747.172302,487.432007 747.331482,467.771301 745.873718,448.165802 
	C744.593689,430.949554 739.182007,415.670837 728.114075,402.460236 
	C722.478760,395.733887 715.241089,390.958038 708.024231,386.120148 
	C708.653809,390.990875 711.202332,394.740265 713.269348,398.672852 
	C715.696167,403.289948 716.011902,407.811188 713.814514,412.549225 
	C703.997498,433.716980 696.263611,455.736145 687.652039,477.389130 
	C681.842224,491.997101 674.684387,506.273438 672.961731,522.286438 
	C672.678833,524.916504 671.003174,527.025024 668.066772,527.190002 
	C661.487061,527.559570 658.849731,532.033569 657.586182,537.503113 
	C656.976135,540.143616 655.970337,542.540283 655.000000,545.000000 
	C645.979126,545.000000 636.958191,545.000000 627.426453,544.619263 
	C627.182861,543.121521 627.073853,541.591675 627.775940,540.951721 
	C634.283081,535.020325 636.961365,526.327515 642.938110,520.078186 
	C646.911682,515.923340 650.195007,511.367279 652.340942,506.065216 
	C660.019348,487.094513 667.904846,468.211853 674.689148,448.881195 
	C682.143799,427.640594 679.118958,407.958160 667.016052,389.362549 
	C660.643738,379.571869 655.050903,369.358032 650.191406,358.744202 
	C645.530701,348.564575 637.775940,340.346832 632.857483,330.059998 
	C630.837280,330.955933 629.326172,331.591888 627.843933,332.289215 
	C621.000549,335.508820 614.899902,339.776794 609.468140,345.056183 
	C607.835144,346.643372 605.368652,348.802277 603.721191,345.694824 
	C601.685425,341.854919 599.028870,342.866394 596.157959,343.583710 
	C577.464233,348.254547 558.607239,348.103760 539.630432,345.752747 
	C525.887207,344.050171 512.107849,343.479889 498.285645,345.123108 
	C495.319763,345.475677 494.278931,346.732971 494.271362,349.582825 
	C494.198212,377.174286 493.077911,404.735168 492.110809,432.305939 
	C491.633179,445.923279 493.945862,459.502411 495.914246,472.987823 
	C497.784821,485.803284 500.235535,498.534668 502.480072,511.294403 
	C503.017395,514.349121 502.201263,516.629028 499.862305,518.835938 
	C495.217499,523.218384 493.042908,528.839600 494.631775,535.113586 
	C495.667572,539.203735 494.999695,542.265686 492.000000,545.000000 
	C482.979095,545.000000 473.958221,545.000000 464.383484,544.607483 
	C463.230560,541.348755 465.214142,539.662781 466.668976,537.636658 
	C475.327972,525.577515 482.246735,513.059265 480.889038,497.256378 
	C479.593933,482.182098 477.839264,467.170197 476.156494,452.144684 
	C475.584198,447.034424 475.307098,441.822601 473.064453,437.075195 
	C468.237152,426.856567 465.652435,416.183167 465.502350,404.831390 
	C465.439209,400.056244 465.267700,395.150421 463.817871,390.033356 
	C461.896301,391.743591 461.708038,393.417480 461.202637,394.970734 
	C457.590942,406.070282 456.863159,417.912598 453.468994,428.912628 
	C448.532959,444.909882 447.481781,461.206879 446.371155,477.578156 
	C445.335815,492.839813 444.943207,508.145752 444.333527,523.434814 
	C444.247314,525.596619 443.734039,527.486877 441.766418,528.491150 
	C434.955994,531.967163 432.666504,537.769287 433.000000,545.000000 
	C423.645782,545.000000 414.291534,545.000000 404.468658,545.000000 
z"/>
</svg>