<svg version="1.1" id="Layer_1" xmlns="http://www.w3.org/2000/svg" xmlns:xlink="http://www.w3.org/1999/xlink" x="0px" y="0px"
	 width="100%" viewBox="0 0 1024 544" enable-background="new 0 0 1024 544" xml:space="preserve">
<path fill="#000000" opacity="1.000000" stroke="none" 
	d="
M367.908051,234.810089 
	C400.428925,221.057434 433.797150,215.194809 468.735931,218.452026 
	C490.757202,220.504990 512.176147,225.267365 532.873230,232.748734 
	C549.196472,238.649094 565.407898,240.765915 582.298645,236.345474 
	C585.728882,235.447769 589.259827,235.820602 592.746704,235.624496 
	C603.441650,235.022949 608.251160,230.316238 608.600037,219.713181 
	C608.760620,214.830841 609.354614,209.971588 610.953735,205.486526 
	C617.209351,187.940704 607.692749,170.697403 593.639160,161.591995 
	C586.096130,156.704803 578.243713,152.330414 571.106995,146.774155 
	C556.078003,135.073349 546.326233,119.550613 538.233765,102.729225 
	C530.854919,87.391258 524.287354,71.778519 521.229736,54.893559 
	C520.566162,51.229351 520.442322,47.570465 520.841492,43.951546 
	C522.050964,32.984894 530.809875,27.384233 542.307800,30.036491 
	C548.224426,31.401299 553.605164,34.036041 558.675354,37.286678 
	C567.789795,43.130142 576.836182,49.079865 585.919250,54.972439 
	C587.146667,55.768742 588.198853,56.966766 590.240845,56.827877 
	C591.490234,52.753838 589.745850,48.764435 589.250671,44.827618 
	C588.605347,39.696701 589.222290,34.851994 590.737488,30.071936 
	C592.646912,24.047983 597.710022,21.224123 604.009583,22.351255 
	C610.142639,23.448593 615.090332,26.757803 619.651917,30.756872 
	C649.460999,56.889946 668.808167,89.099571 676.349182,128.206924 
	C677.354553,133.420486 678.772400,138.558365 680.103699,143.704239 
	C681.947632,150.831558 686.515564,155.250778 693.726562,156.745544 
	C705.444092,159.174469 717.244141,161.107773 728.529541,165.432480 
	C740.435608,169.995041 750.073547,177.022064 757.117004,187.791229 
	C767.318665,203.389008 776.811401,219.483765 789.443237,233.399490 
	C795.992615,240.614471 796.263245,248.824051 793.240662,258.115356 
	C786.607666,278.505432 772.151001,288.373993 751.822937,291.312836 
	C749.193298,291.692963 746.542114,292.099396 743.990234,292.812927 
	C731.309326,296.358673 726.099121,304.975281 725.244995,321.691406 
	C724.379700,338.626068 723.555237,355.694122 717.895569,371.885925 
	C709.120178,396.991272 694.061279,417.485535 671.758972,432.364929 
	C670.234802,433.381805 668.782227,434.506989 667.248230,435.508026 
	C659.043274,440.862030 656.835571,448.669128 658.700989,457.731140 
	C660.677368,467.331879 663.268982,476.804199 665.428345,486.369537 
	C667.013489,493.391296 670.947144,497.359039 678.356445,498.076630 
	C683.461182,498.571014 688.642273,499.010498 693.544189,500.825287 
	C703.696228,504.583862 711.092834,510.951874 713.421570,522.003113 
	C714.887634,528.960083 712.730286,532.650940 706.023376,535.127502 
	C700.136414,537.301392 693.942322,537.379211 687.803101,537.706665 
	C671.626526,538.569763 655.543701,537.640137 639.525208,535.192139 
	C626.223022,533.159302 617.716614,525.581482 612.623169,513.356567 
	C604.719910,494.387543 594.435730,476.663452 583.553650,459.278015 
	C578.666809,451.470642 578.379578,451.415222 569.626892,454.729218 
	C541.547668,465.360809 512.661621,472.038086 482.490082,472.132263 
	C477.009247,472.149384 471.525085,471.548279 466.045197,471.190338 
	C463.950623,471.053497 462.062439,471.363373 460.609863,473.052551 
	C454.281464,480.411560 447.292358,487.039917 439.230408,492.500305 
	C438.608459,492.921539 438.266846,493.756561 437.760101,494.446747 
	C440.081482,497.165619 443.059357,496.702698 445.783264,496.624695 
	C459.428497,496.233795 473.002441,494.371033 486.686523,494.673401 
	C497.541656,494.913300 507.817505,497.256744 517.197083,502.882294 
	C524.474121,507.246765 529.825012,513.209229 531.837463,521.661194 
	C533.411987,528.274109 530.091064,533.230103 523.357849,534.338684 
	C520.579468,534.796143 517.730469,535.039429 514.915161,535.026794 
	C457.094482,534.767395 399.273895,534.466492 341.453522,534.138916 
	C336.629456,534.111633 331.755280,534.015259 327.177216,532.251221 
	C319.494446,529.290955 316.052185,522.697510 318.159943,514.578186 
	C319.115448,510.897461 320.770874,507.398804 322.103516,503.815582 
	C323.598907,499.794861 322.454590,496.791870 318.304260,495.567719 
	C309.601929,493.000916 302.414673,488.058105 295.835236,482.015167 
	C294.117340,480.437378 292.410095,479.324677 289.602509,480.223297 
	C267.671570,487.242798 246.535309,478.013702 236.582260,457.016907 
	C230.775299,444.766632 228.620224,431.957855 232.709213,418.698914 
	C237.200974,404.133850 248.139603,399.892395 261.519226,407.279816 
	C262.811310,407.993225 264.139130,408.641785 265.699799,409.449524 
	C267.364868,406.378235 266.695404,403.377808 266.437286,400.521484 
	C262.425720,356.131042 273.629120,316.323608 302.572235,282.080109 
	C320.312195,261.091370 342.438049,245.897781 367.908051,234.810089 
z"/>
</svg>