<svg version="1.1" id="Layer_1" xmlns="http://www.w3.org/2000/svg" xmlns:xlink="http://www.w3.org/1999/xlink" x="0px" y="0px"
	 width="100%" viewBox="0 0 1024 544" enable-background="new 0 0 1024 544" xml:space="preserve">
<path fill="#000000" opacity="1.000000" stroke="none" 
	d="
M609.804565,87.627617 
	C615.459595,86.873260 618.804077,84.035835 620.932434,79.092537 
	C623.679260,72.712738 629.210327,69.563141 635.847412,68.790909 
	C640.993958,68.192131 645.305664,66.576843 649.259216,63.073425 
	C654.130737,58.756592 659.546753,55.228222 666.105469,60.548977 
	C667.379272,61.582348 668.556458,60.784866 669.673645,59.885979 
	C673.567322,56.753147 678.293457,55.695339 683.014648,54.602257 
	C686.569153,53.779316 689.671204,53.985683 691.559204,57.679161 
	C692.417847,59.358955 693.756958,59.125374 695.378479,58.998386 
	C700.179260,58.622425 704.778198,57.360958 708.298401,63.326042 
	C709.794922,65.861885 713.136902,67.545746 713.711548,71.309219 
	C713.995117,73.166634 716.142456,72.785629 717.557861,72.648132 
	C723.021545,72.117386 725.947510,74.892487 727.352051,79.832039 
	C727.670410,80.951591 728.261597,82.027908 728.388062,83.161949 
	C729.063232,89.214409 731.567078,93.343452 738.291748,94.055809 
	C740.929504,94.335236 742.585571,96.438484 743.125183,99.172089 
	C743.801147,102.596809 745.283875,106.080818 745.015930,109.426964 
	C744.488464,116.015236 746.924744,120.430489 752.386047,123.799767 
	C754.996582,125.410263 756.918335,127.879723 756.023071,131.363739 
	C755.654114,132.799591 756.137634,133.505127 757.412720,134.055313 
	C759.918457,135.136612 760.722656,137.582520 760.691345,139.831604 
	C760.616638,145.184753 760.697815,150.699341 759.411743,155.821213 
	C758.532166,159.324158 758.456665,162.130585 760.699097,164.591446 
	C768.309570,172.942932 766.597473,181.664886 761.873108,190.417130 
	C760.589722,192.794601 760.677795,194.468323 761.850830,196.815353 
	C763.626648,200.368744 764.929993,204.180862 766.190369,207.964249 
	C768.435974,214.705093 764.910461,220.078552 761.200439,224.949448 
	C758.886536,227.987411 757.925903,230.874176 759.572449,233.988174 
	C761.721436,238.052414 760.585815,242.428741 761.522705,246.601395 
	C762.326050,250.179001 759.262634,252.608398 756.904541,254.983719 
	C753.948303,257.961517 750.075562,260.366730 752.644897,265.832092 
	C753.385437,267.407379 752.327759,270.105957 751.531921,272.060516 
	C750.331848,275.008148 749.914673,277.750580 751.400635,280.688599 
	C752.770752,283.397491 751.523743,285.364288 749.524475,287.269165 
	C744.429749,292.123352 738.697144,295.470978 730.671326,294.988037 
	C733.234558,301.712128 733.589661,307.690826 732.598694,314.110413 
	C730.755127,326.053864 718.381165,330.922180 709.028503,327.328125 
	C699.406250,323.630554 690.113159,319.081482 680.641785,314.984100 
	C675.634705,312.818024 670.554749,310.820282 664.919434,309.607605 
	C667.213928,311.588104 669.546082,313.526978 671.793030,315.559998 
	C674.405029,317.923279 674.850098,320.516663 672.612854,323.484100 
	C669.244934,327.951477 665.195251,331.608246 660.190552,334.108093 
	C656.291931,336.055389 652.422668,335.766052 648.842407,333.244415 
	C647.100708,332.017731 645.823730,331.385803 643.598755,332.927551 
	C634.493469,339.236908 633.103516,338.970245 625.083130,330.860840 
	C624.375061,330.144897 623.711487,329.404755 621.693604,329.680176 
	C623.367371,340.117340 627.504456,351.768158 613.202454,357.358337 
	C613.151184,357.534027 612.877502,357.985535 612.994751,358.139771 
	C618.239502,365.037415 617.130615,374.383484 621.890015,381.406281 
	C625.652039,386.957458 622.450317,392.664032 622.564026,398.267975 
	C622.604980,400.286102 620.234558,399.895782 618.520996,399.188019 
	C616.277710,398.261475 614.860168,395.808746 611.445740,395.508881 
	C612.668030,400.701141 614.532654,405.333710 614.961853,410.247864 
	C615.146790,412.365021 616.169312,414.895569 614.172974,416.344604 
	C611.894775,417.998260 610.290833,415.462830 608.545776,414.422638 
	C605.728394,412.743378 603.646912,409.902771 599.880981,408.936646 
	C598.444763,412.205872 600.534241,415.116760 600.643799,418.103882 
	C600.804138,422.471863 599.686401,423.531647 595.429260,422.403229 
	C591.111633,421.258820 587.873047,418.265289 584.198547,416.008453 
	C581.862427,414.573608 579.871765,412.389435 576.827881,412.085846 
	C577.233887,421.061615 576.587463,421.531250 567.851685,418.824188 
	C558.582397,415.951874 549.884216,411.770844 541.324829,407.265808 
	C539.893494,406.512421 538.643921,405.200867 536.508118,405.622864 
	C534.476257,408.091858 536.345337,410.948181 536.282532,413.579559 
	C535.797852,433.891327 534.626404,454.197052 535.291077,474.525238 
	C535.508667,481.178833 535.891663,487.828186 536.284180,494.474457 
	C536.521912,498.499451 538.163818,501.801636 541.521790,504.236755 
	C543.940979,505.991119 546.313477,507.841949 548.504395,509.868591 
	C550.195862,511.433289 550.968262,513.678406 549.920898,515.805603 
	C548.670349,518.345581 546.061523,517.291565 544.101318,517.012146 
	C542.397827,516.769348 540.821228,515.636108 539.042664,514.830200 
	C534.700867,527.236023 525.687927,534.908386 514.572876,540.533203 
	C511.948364,541.861328 511.391479,539.776611 510.883301,538.011841 
	C510.219604,535.707092 510.964630,533.500122 514.365112,527.287415 
	C499.284790,532.815063 484.102417,531.222900 469.111176,533.376221 
	C468.447174,527.764832 473.286346,526.069031 476.343048,522.471130 
	C472.018311,522.175781 469.651093,519.694519 467.301819,517.119751 
	C465.402069,515.037720 463.752899,515.045837 462.307800,517.803711 
	C458.029572,525.968262 450.810974,529.911682 442.075165,531.581177 
	C441.911591,531.612427 441.739868,531.711975 441.589386,531.684387 
	C438.986420,531.207764 437.037354,535.622681 434.452240,533.035034 
	C432.638214,531.219116 434.112793,528.243347 433.611938,525.414429 
	C419.940216,527.369507 406.381165,527.926331 392.438568,527.389221 
	C391.876862,523.776794 394.001709,521.155762 397.071930,519.802063 
	C406.800934,515.512573 415.887054,508.888397 427.524628,510.926300 
	C429.609100,511.291321 431.861420,510.983582 433.998962,510.702698 
	C439.073303,510.035889 442.582458,507.881683 444.748871,502.578064 
	C453.187103,481.920319 457.026917,460.116394 461.688538,438.496826 
	C462.756409,433.544128 458.409332,430.780304 457.303009,426.669678 
	C456.616425,424.118500 455.631836,421.715759 455.645721,418.998779 
	C455.692657,409.819641 452.252899,401.808624 447.295471,394.297363 
	C445.870361,392.138123 444.028870,391.323212 441.455750,391.203125 
	C433.757874,390.843994 426.163483,389.965240 419.733276,385.010254 
	C418.696472,384.211334 417.230865,383.336151 416.026062,384.066589 
	C411.597351,386.751709 408.295563,383.947754 405.060516,381.825775 
	C398.920868,377.798584 392.563904,374.381409 385.777374,371.465271 
	C377.359344,367.848145 371.233124,360.343140 362.758392,356.521606 
	C361.211792,355.824219 359.943970,354.115234 358.974274,352.600067 
	C354.769257,346.029449 350.467010,339.742340 343.177338,335.948151 
	C339.683594,334.129700 338.533295,330.089355 337.334869,326.363739 
	C336.310150,323.178040 335.802032,319.515717 332.038574,317.595245 
	C329.467560,320.273590 330.464844,323.354553 330.664612,326.194031 
	C331.225067,334.160645 332.674683,342.095825 332.193909,350.095398 
	C331.712311,358.109680 328.246613,365.702972 328.509247,373.876984 
	C328.538605,374.791504 328.057739,375.854218 326.782898,376.130310 
	C325.331696,376.019928 324.978180,374.829712 324.828278,373.702393 
	C324.027191,367.678833 322.086517,361.878265 319.355957,356.635345 
	C308.567474,335.920532 311.704071,315.346069 319.258850,294.761658 
	C320.656464,290.953552 320.960449,287.579742 319.807007,283.667938 
	C315.551575,269.236053 317.204773,254.780533 321.829529,240.925278 
	C325.614044,229.587234 326.799225,218.674026 323.248810,207.224197 
	C322.222626,203.914963 321.534058,200.438675 321.636017,196.897278 
	C321.692841,194.922913 320.894836,193.524109 319.295990,192.242950 
	C312.940704,187.150467 310.933228,177.400696 314.908051,170.190033 
	C316.549896,167.211563 317.363953,164.305054 316.165649,161.158463 
	C314.545959,156.905396 315.460846,152.967529 317.176697,149.071060 
	C318.806671,145.369629 319.978851,141.738007 318.694550,137.555313 
	C317.346069,133.163544 320.521423,129.339203 321.024750,125.036919 
	C321.702087,119.247421 319.071686,116.147163 315.827515,112.451149 
	C308.866974,104.521133 303.090973,95.835510 300.958405,85.228523 
	C300.435181,82.626152 300.211060,79.957306 299.583710,77.383797 
	C298.774506,74.064186 296.241333,73.140099 293.097839,73.143456 
	C289.814575,73.146973 289.716400,75.507393 289.124725,77.845291 
	C287.314087,84.999603 287.444458,92.380486 286.347229,99.612068 
	C286.197662,100.597679 286.272491,101.635033 286.005768,102.581444 
	C285.468994,104.486206 285.057953,106.831146 282.555664,106.899139 
	C279.857147,106.972458 279.465027,104.507202 279.338013,102.603905 
	C278.795197,94.472557 278.469086,86.326660 278.076538,78.185463 
	C278.022217,77.059502 278.514832,75.877663 277.789764,74.836800 
	C275.627747,73.996681 274.044434,76.304466 271.414795,75.591301 
	C271.469177,69.491730 274.056610,64.644005 278.713196,60.748550 
	C281.265778,58.613205 283.855164,56.519955 286.472687,54.464634 
	C291.442474,50.562214 291.628021,45.519409 289.981842,40.031044 
	C289.599884,38.757477 289.034485,37.534981 288.707031,36.249866 
	C288.118042,33.938549 287.631256,31.373457 289.858246,29.799385 
	C292.271454,28.093697 293.817108,30.479727 295.348969,31.812290 
	C300.395050,36.201885 305.395874,37.720333 312.180206,34.767841 
	C323.719025,29.746201 335.071869,30.307961 345.736572,38.178013 
	C349.279724,40.792686 353.983734,41.064247 357.483215,44.908249 
	C360.702209,48.444157 363.242706,52.440502 364.922119,56.340145 
	C371.379822,71.335068 373.301697,86.789482 366.456299,102.487015 
	C363.017792,110.372078 359.831299,118.564011 359.299652,127.163559 
	C359.011047,131.831955 360.836029,136.766693 362.343414,141.373260 
	C363.932556,146.229721 366.898254,149.955200 372.256073,151.735779 
	C378.405365,153.779388 384.206726,156.781799 389.895172,159.958527 
	C396.418549,163.601517 403.144623,164.500046 410.558075,162.217270 
	C430.294556,156.139999 450.455627,151.149918 467.026062,137.814072 
	C472.283539,133.582840 478.114655,130.507019 484.461853,128.262344 
	C487.353790,127.239616 490.102600,126.148567 493.078369,127.818871 
	C493.360931,127.977486 493.846985,128.200729 494.011383,128.081299 
	C500.915710,123.064285 509.119324,128.105026 516.246216,125.213264 
	C521.225708,123.192841 525.986755,123.264153 530.630798,125.986908 
	C535.112549,128.614471 539.866333,129.523911 545.030396,128.841934 
	C549.360962,128.270050 553.303040,129.244583 556.459473,132.554367 
	C557.915649,134.081268 559.798401,134.727341 561.899414,134.618896 
	C565.255615,134.445618 568.515076,134.924683 571.625305,136.177277 
	C574.039429,134.088028 573.717590,131.173553 574.407043,128.725586 
	C576.581848,121.003342 579.604919,114.231194 588.606140,112.497299 
	C591.013611,112.033562 591.103943,109.652596 591.806702,107.832268 
	C595.224182,98.980133 598.945129,90.386177 609.804565,87.627617 
M518.625854,478.715698 
	C517.947266,466.087189 517.275757,453.458252 516.584656,440.830444 
	C516.426147,437.932983 515.280518,435.686432 513.320801,433.328247 
	C508.716431,427.787811 504.436890,422.194244 503.605286,414.271667 
	C502.639374,405.069641 495.783295,398.754791 489.628326,392.432648 
	C487.988678,390.748444 485.588684,390.669495 483.547546,391.697052 
	C481.471039,392.742462 482.135834,394.963531 482.392761,396.652618 
	C482.764832,399.098663 483.480316,401.517334 484.283844,403.867462 
	C485.751465,408.159698 486.879425,412.412476 486.038422,417.049622 
	C484.462372,425.739685 482.100098,434.186310 479.369446,442.588165 
	C476.132996,452.546295 473.397095,462.675232 470.711670,472.801056 
	C469.265778,478.253113 470.458099,479.946259 475.857300,481.609772 
	C477.259399,482.041748 478.836884,482.085083 479.743683,483.896515 
	C477.846741,486.785889 474.524506,487.123627 471.602722,487.817261 
	C467.663208,488.752441 466.373840,491.099731 465.961029,494.891876 
	C465.257721,501.352539 468.371735,505.743805 473.002502,509.423584 
	C476.946198,512.557434 480.675323,515.787598 481.734253,520.988525 
	C484.448700,520.821289 487.287933,521.436157 488.849396,519.764160 
	C493.707306,514.562317 500.124603,514.637695 506.332245,513.776672 
	C512.490784,512.922546 516.177979,509.621307 517.696411,503.544800 
	C519.666870,495.659424 518.286987,487.630371 518.625854,478.715698 
z"/>
</svg>