<svg version="1.1" id="Layer_1" xmlns="http://www.w3.org/2000/svg" xmlns:xlink="http://www.w3.org/1999/xlink" x="0px" y="0px"
	 width="100%" viewBox="0 0 1024 544" enable-background="new 0 0 1024 544" xml:space="preserve">
<path fill="#000000" opacity="1.000000" stroke="none" 
	d="
M441.678772,198.000412 
	C441.639374,182.840225 441.450989,168.178497 441.605682,153.520386 
	C441.755066,139.363235 448.392334,128.643509 461.122589,122.893555 
	C469.700531,119.019104 472.413757,113.441803 472.202209,104.548187 
	C471.897766,91.751381 470.954071,78.893654 472.660400,66.119339 
	C475.406708,45.559410 491.948486,30.751390 512.069458,30.664396 
	C533.843262,30.570257 550.339050,44.449657 553.354797,65.567795 
	C555.177551,78.331642 554.208008,91.194305 553.925232,103.985283 
	C553.725403,113.023384 556.290833,118.857407 565.005920,122.893974 
	C578.483704,129.136505 585.276306,140.779602 584.861206,155.501358 
	C584.114258,181.990631 584.884399,208.489883 583.984558,234.961212 
	C583.224243,257.327118 573.636475,275.377136 555.161011,288.237183 
	C549.805603,291.964844 547.587402,296.646057 547.311707,302.903778 
	C546.000305,332.672119 544.635742,362.438629 543.135315,392.197998 
	C541.945312,415.801758 540.530090,439.394165 539.217224,462.991760 
	C538.496033,475.954285 537.844238,488.921082 537.034607,501.878082 
	C536.607971,508.706970 536.376343,508.611786 529.595093,508.523926 
	C518.100281,508.374939 506.598877,508.333771 495.107300,508.579041 
	C491.459717,508.656952 489.623596,508.132874 489.433075,503.931061 
	C488.694214,487.635162 487.630463,471.354156 486.707916,455.066437 
	C485.145386,427.480621 483.527985,399.897675 482.070068,372.306274 
	C481.147644,354.848907 480.486938,337.377838 479.679352,319.914276 
	C479.371735,313.262970 479.051666,306.610779 478.605621,299.967804 
	C478.281708,295.143280 475.776917,291.525970 471.836884,288.854523 
	C451.202454,274.863922 442.353363,254.805634 441.904938,230.491104 
	C441.708313,219.829788 441.747589,209.164124 441.678772,198.000412 
z"/>
</svg>